<?xml version="1.0" encoding="UTF-8"?>
<svg xmlns="http://www.w3.org/2000/svg" xmlns:xlink="http://www.w3.org/1999/xlink" width="153.495pt" height="57.8263pt" viewBox="0 0 122.796 46.261">
<defs>
<clipPath id="clip-0">
<path clip-rule="nonzero" d="M 0.863281 31 L 30 31 L 30 45.535156 L 0.863281 45.535156 Z M 0.863281 31 "/>
</clipPath>
<clipPath id="clip-1">
<path clip-rule="nonzero" d="M 23 31 L 58 31 L 58 45.535156 L 23 45.535156 Z M 23 31 "/>
</clipPath>
<clipPath id="clip-2">
<path clip-rule="nonzero" d="M 0.863281 28 L 30 28 L 30 45.535156 L 0.863281 45.535156 Z M 0.863281 28 "/>
</clipPath>
<clipPath id="clip-3">
<path clip-rule="nonzero" d="M 23 28 L 58 28 L 58 45.535156 L 23 45.535156 Z M 23 28 "/>
</clipPath>
<clipPath id="clip-4">
<path clip-rule="nonzero" d="M 0.863281 0 L 27 0 L 27 45.535156 L 0.863281 45.535156 Z M 0.863281 0 "/>
</clipPath>
<clipPath id="clip-5">
<path clip-rule="nonzero" d="M 26 0 L 58 0 L 58 45.535156 L 26 45.535156 Z M 26 0 "/>
</clipPath>
<clipPath id="clip-6">
<path clip-rule="nonzero" d="M 12 21 L 41 21 L 41 45.535156 L 12 45.535156 Z M 12 21 "/>
</clipPath>
<clipPath id="clip-7">
<path clip-rule="nonzero" d="M 65 31 L 99 31 L 99 45.535156 L 65 45.535156 Z M 65 31 "/>
</clipPath>
<clipPath id="clip-8">
<path clip-rule="nonzero" d="M 65 28 L 99 28 L 99 45.535156 L 65 45.535156 Z M 65 28 "/>
</clipPath>
<clipPath id="clip-9">
<path clip-rule="nonzero" d="M 65 0 L 83 0 L 83 45.535156 L 65 45.535156 Z M 65 0 "/>
</clipPath>
<clipPath id="clip-10">
<path clip-rule="nonzero" d="M 82 0 L 99 0 L 99 45.535156 L 82 45.535156 Z M 82 0 "/>
</clipPath>
<clipPath id="clip-11">
<path clip-rule="nonzero" d="M 93 8 L 121.730469 8 L 121.730469 32 L 93 32 Z M 93 8 "/>
</clipPath>
<clipPath id="clip-12">
<path clip-rule="nonzero" d="M 93 11 L 121.730469 11 L 121.730469 39 L 93 39 Z M 93 11 "/>
</clipPath>
</defs>
<path fill="none" stroke-width="0.59776" stroke-linecap="butt" stroke-linejoin="miter" stroke="rgb(0%, 0%, 0%)" stroke-opacity="1" stroke-miterlimit="10" d="M 8.504965 -0.000628029 C 8.504965 1.566989 4.69506 2.832989 0.000146127 2.832989 C -4.694768 2.832989 -8.504672 1.566989 -8.504672 -0.000628029 C -8.504672 -1.564276 -4.694768 -2.834245 0.000146127 -2.834245 C 4.69506 -2.834245 8.504965 -1.564276 8.504965 -0.000628029 Z M 8.504965 -0.000628029 " transform="matrix(0.984277, 0, 0, -0.984277, 26.421731, 6.026726)"/>
<g clip-path="url(#clip-0)">
<path fill="none" stroke-width="0.59776" stroke-linecap="butt" stroke-linejoin="miter" stroke="rgb(0%, 0%, 0%)" stroke-opacity="1" stroke-miterlimit="10" d="M -22.676724 -34.015933 C -22.676724 -35.58355 -18.870788 -36.84955 -14.171906 -36.84955 C -9.476992 -36.84955 -5.671056 -35.58355 -5.671056 -34.015933 " transform="matrix(0.984277, 0, 0, -0.984277, 26.421731, 6.026726)"/>
</g>
<g clip-path="url(#clip-1)">
<path fill="none" stroke-width="0.59776" stroke-linecap="butt" stroke-linejoin="miter" stroke="rgb(0%, 0%, 0%)" stroke-opacity="1" stroke-miterlimit="10" d="M 5.667379 -34.015933 C 5.667379 -35.58355 9.477284 -36.84955 14.172198 -36.84955 C 18.87108 -36.84955 22.677016 -35.58355 22.677016 -34.015933 " transform="matrix(0.984277, 0, 0, -0.984277, 26.421731, 6.026726)"/>
</g>
<g clip-path="url(#clip-2)">
<path fill="none" stroke-width="0.59776" stroke-linecap="butt" stroke-linejoin="miter" stroke="rgb(0%, 0%, 0%)" stroke-opacity="1" stroke-dasharray="1.79327 1.79327" stroke-miterlimit="10" d="M -5.671056 -34.015933 C -5.671056 -32.452285 -9.476992 -31.182317 -14.171906 -31.182317 C -18.870788 -31.182317 -22.676724 -32.452285 -22.676724 -34.015933 " transform="matrix(0.984277, 0, 0, -0.984277, 26.421731, 6.026726)"/>
</g>
<g clip-path="url(#clip-3)">
<path fill="none" stroke-width="0.59776" stroke-linecap="butt" stroke-linejoin="miter" stroke="rgb(0%, 0%, 0%)" stroke-opacity="1" stroke-dasharray="1.79327 1.79327" stroke-miterlimit="10" d="M 22.677016 -34.015933 C 22.677016 -32.452285 18.87108 -31.182317 14.172198 -31.182317 C 9.477284 -31.182317 5.667379 -32.452285 5.667379 -34.015933 " transform="matrix(0.984277, 0, 0, -0.984277, 26.421731, 6.026726)"/>
</g>
<g clip-path="url(#clip-4)">
<path fill="none" stroke-width="0.59776" stroke-linecap="butt" stroke-linejoin="miter" stroke="rgb(0%, 0%, 0%)" stroke-opacity="1" stroke-miterlimit="10" d="M -22.676724 -34.015933 C -22.676724 -19.629574 -8.504672 -14.383018 -8.504672 -0.000628029 " transform="matrix(0.984277, 0, 0, -0.984277, 26.421731, 6.026726)"/>
</g>
<g clip-path="url(#clip-5)">
<path fill="none" stroke-width="0.59776" stroke-linecap="butt" stroke-linejoin="miter" stroke="rgb(0%, 0%, 0%)" stroke-opacity="1" stroke-miterlimit="10" d="M 22.677016 -34.015933 C 22.677016 -19.629574 8.504965 -14.383018 8.504965 -0.000628029 " transform="matrix(0.984277, 0, 0, -0.984277, 26.421731, 6.026726)"/>
</g>
<g clip-path="url(#clip-6)">
<path fill="none" stroke-width="0.59776" stroke-linecap="butt" stroke-linejoin="miter" stroke="rgb(0%, 0%, 0%)" stroke-opacity="1" stroke-miterlimit="10" d="M -5.671056 -34.015933 C -5.671056 -20.431242 5.667379 -20.431242 5.667379 -34.015933 " transform="matrix(0.984277, 0, 0, -0.984277, 26.421731, 6.026726)"/>
</g>
<path fill="none" stroke-width="0.59776" stroke-linecap="butt" stroke-linejoin="miter" stroke="rgb(0%, 0%, 0%)" stroke-opacity="1" stroke-miterlimit="10" d="M 65.19714 -0.000628029 C 65.19714 1.566989 61.391204 2.832989 56.692321 2.832989 C 51.997408 2.832989 48.187503 1.566989 48.187503 -0.000628029 C 48.187503 -1.564276 51.997408 -2.834245 56.692321 -2.834245 C 61.391204 -2.834245 65.19714 -1.564276 65.19714 -0.000628029 Z M 65.19714 -0.000628029 " transform="matrix(0.984277, 0, 0, -0.984277, 26.421731, 6.026726)"/>
<g clip-path="url(#clip-7)">
<path fill="none" stroke-width="0.59776" stroke-linecap="butt" stroke-linejoin="miter" stroke="rgb(0%, 0%, 0%)" stroke-opacity="1" stroke-miterlimit="10" d="M 48.187503 -34.015933 C 48.187503 -35.58355 51.997408 -36.84955 56.692321 -36.84955 C 61.391204 -36.84955 65.19714 -35.58355 65.19714 -34.015933 " transform="matrix(0.984277, 0, 0, -0.984277, 26.421731, 6.026726)"/>
</g>
<g clip-path="url(#clip-8)">
<path fill="none" stroke-width="0.59776" stroke-linecap="butt" stroke-linejoin="miter" stroke="rgb(0%, 0%, 0%)" stroke-opacity="1" stroke-dasharray="1.79327 1.79327" stroke-miterlimit="10" d="M 65.19714 -34.015933 C 65.19714 -32.452285 61.391204 -31.182317 56.692321 -31.182317 C 51.997408 -31.182317 48.187503 -32.452285 48.187503 -34.015933 " transform="matrix(0.984277, 0, 0, -0.984277, 26.421731, 6.026726)"/>
</g>
<g clip-path="url(#clip-9)">
<path fill="none" stroke-width="0.59776" stroke-linecap="butt" stroke-linejoin="miter" stroke="rgb(0%, 0%, 0%)" stroke-opacity="1" stroke-miterlimit="10" d="M 48.187503 -34.015933 C 48.187503 -22.078232 48.187503 -11.938329 48.187503 -0.000628029 " transform="matrix(0.984277, 0, 0, -0.984277, 26.421731, 6.026726)"/>
</g>
<g clip-path="url(#clip-10)">
<path fill="none" stroke-width="0.59776" stroke-linecap="butt" stroke-linejoin="miter" stroke="rgb(0%, 0%, 0%)" stroke-opacity="1" stroke-miterlimit="10" d="M 65.19714 -34.015933 C 65.19714 -22.078232 65.19714 -11.938329 65.19714 -0.000628029 " transform="matrix(0.984277, 0, 0, -0.984277, 26.421731, 6.026726)"/>
</g>
<g clip-path="url(#clip-11)">
<path fill="none" stroke-width="0.59776" stroke-linecap="butt" stroke-linejoin="miter" stroke="rgb(0%, 0%, 0%)" stroke-opacity="1" stroke-miterlimit="10" d="M 93.545212 -14.17268 C 93.545212 -12.609031 89.735307 -11.339063 85.040393 -11.339063 C 80.34548 -11.339063 76.535575 -12.609031 76.535575 -14.17268 C 76.535575 -15.740297 80.34548 -17.006296 85.040393 -17.006296 C 89.735307 -17.006296 93.545212 -15.740297 93.545212 -14.17268 Z M 93.545212 -14.17268 " transform="matrix(0.984277, 0, 0, -0.984277, 26.421731, 6.026726)"/>
</g>
<g clip-path="url(#clip-12)">
<path fill="none" stroke-width="0.59776" stroke-linecap="butt" stroke-linejoin="miter" stroke="rgb(0%, 0%, 0%)" stroke-opacity="1" stroke-miterlimit="10" d="M 76.535575 -14.17268 C 76.535575 -27.76134 93.545212 -27.76134 93.545212 -14.17268 " transform="matrix(0.984277, 0, 0, -0.984277, 26.421731, 6.026726)"/>
</g>
</svg>
