<?xml version="1.0" encoding="UTF-8"?>
<svg xmlns="http://www.w3.org/2000/svg" xmlns:xlink="http://www.w3.org/1999/xlink" width="254.006pt" height="80.2938pt" viewBox="0 0 203.205 64.235">
<defs>
<g>
<g id="glyph-0-0">
<path d="M 1.765625 -1.125 C 1.375 -0.46875 0.984375 -0.328125 0.546875 -0.3125 C 0.4375 -0.296875 0.34375 -0.296875 0.34375 -0.109375 C 0.34375 -0.046875 0.390625 0 0.46875 0 C 0.734375 0 1.046875 -0.03125 1.3125 -0.03125 C 1.640625 -0.03125 1.984375 0 2.296875 0 C 2.359375 0 2.484375 0 2.484375 -0.1875 C 2.484375 -0.296875 2.40625 -0.3125 2.328125 -0.3125 C 2.109375 -0.328125 1.875 -0.40625 1.875 -0.65625 C 1.875 -0.765625 1.921875 -0.875 2.015625 -1.015625 L 2.75 -2.28125 L 5.234375 -2.28125 C 5.25 -2.0625 5.390625 -0.734375 5.390625 -0.625 C 5.390625 -0.328125 4.875 -0.3125 4.671875 -0.3125 C 4.53125 -0.3125 4.4375 -0.3125 4.4375 -0.109375 C 4.4375 0 4.5625 0 4.578125 0 C 4.984375 0 5.40625 -0.03125 5.8125 -0.03125 C 6.046875 -0.03125 6.671875 0 6.921875 0 C 6.984375 0 7.09375 0 7.09375 -0.203125 C 7.09375 -0.3125 7 -0.3125 6.875 -0.3125 C 6.265625 -0.3125 6.265625 -0.375 6.234375 -0.65625 L 5.625 -6.8125 C 5.609375 -7.015625 5.609375 -7.046875 5.4375 -7.046875 C 5.28125 -7.046875 5.25 -6.984375 5.1875 -6.875 Z M 2.9375 -2.578125 L 4.875 -5.828125 L 5.203125 -2.578125 Z M 2.9375 -2.578125 "/>
</g>
<g id="glyph-0-1">
<path d="M 1.578125 -0.765625 C 1.484375 -0.390625 1.453125 -0.3125 0.671875 -0.3125 C 0.515625 -0.3125 0.40625 -0.3125 0.40625 -0.109375 C 0.40625 0 0.5 0 0.671875 0 L 4.1875 0 C 5.75 0 6.90625 -1.15625 6.90625 -2.125 C 6.90625 -2.828125 6.34375 -3.40625 5.390625 -3.515625 C 6.40625 -3.703125 7.4375 -4.4375 7.4375 -5.359375 C 7.4375 -6.09375 6.796875 -6.71875 5.609375 -6.71875 L 2.296875 -6.71875 C 2.109375 -6.71875 2.015625 -6.71875 2.015625 -6.53125 C 2.015625 -6.421875 2.109375 -6.421875 2.296875 -6.421875 C 2.3125 -6.421875 2.5 -6.421875 2.671875 -6.40625 C 2.84375 -6.375 2.9375 -6.375 2.9375 -6.234375 C 2.9375 -6.203125 2.921875 -6.171875 2.890625 -6.046875 Z M 3.0625 -3.609375 L 3.671875 -6.046875 C 3.765625 -6.390625 3.78125 -6.421875 4.203125 -6.421875 L 5.46875 -6.421875 C 6.34375 -6.421875 6.546875 -5.84375 6.546875 -5.40625 C 6.546875 -4.53125 5.703125 -3.609375 4.5 -3.609375 Z M 2.625 -0.3125 C 2.484375 -0.3125 2.46875 -0.3125 2.40625 -0.3125 C 2.296875 -0.328125 2.28125 -0.328125 2.28125 -0.40625 C 2.28125 -0.4375 2.28125 -0.46875 2.328125 -0.640625 L 3 -3.390625 L 4.859375 -3.390625 C 5.8125 -3.390625 6 -2.65625 6 -2.234375 C 6 -1.265625 5.125 -0.3125 3.953125 -0.3125 Z M 2.625 -0.3125 "/>
</g>
<g id="glyph-0-2">
<path d="M 7.484375 -6.84375 C 7.484375 -6.875 7.46875 -6.9375 7.375 -6.9375 C 7.34375 -6.9375 7.328125 -6.9375 7.21875 -6.828125 L 6.53125 -6.0625 C 6.453125 -6.203125 6 -6.9375 4.90625 -6.9375 C 2.703125 -6.9375 0.5 -4.765625 0.5 -2.484375 C 0.5 -0.859375 1.65625 0.21875 3.15625 0.21875 C 4.015625 0.21875 4.765625 -0.171875 5.28125 -0.625 C 6.203125 -1.4375 6.375 -2.328125 6.375 -2.359375 C 6.375 -2.46875 6.265625 -2.46875 6.25 -2.46875 C 6.1875 -2.46875 6.140625 -2.4375 6.125 -2.359375 C 6.03125 -2.078125 5.8125 -1.375 5.125 -0.8125 C 4.453125 -0.25 3.828125 -0.09375 3.3125 -0.09375 C 2.4375 -0.09375 1.390625 -0.59375 1.390625 -2.140625 C 1.390625 -2.703125 1.59375 -4.296875 2.578125 -5.4375 C 3.171875 -6.140625 4.109375 -6.640625 4.984375 -6.640625 C 5.984375 -6.640625 6.5625 -5.875 6.5625 -4.734375 C 6.5625 -4.34375 6.53125 -4.328125 6.53125 -4.234375 C 6.53125 -4.140625 6.640625 -4.140625 6.6875 -4.140625 C 6.8125 -4.140625 6.8125 -4.15625 6.859375 -4.328125 Z M 7.484375 -6.84375 "/>
</g>
<g id="glyph-1-0">
<path d="M 7.109375 -2.46875 C 7.109375 -4.265625 5.625 -5.734375 3.828125 -5.734375 C 2 -5.734375 0.546875 -4.25 0.546875 -2.46875 C 0.546875 -0.65625 2.015625 0.8125 3.8125 0.8125 C 5.65625 0.8125 7.109375 -0.671875 7.109375 -2.46875 Z M 1.875 -4.578125 C 1.84375 -4.59375 1.78125 -4.671875 1.78125 -4.6875 C 1.78125 -4.71875 2.578125 -5.5 3.8125 -5.5 C 4.15625 -5.5 5.0625 -5.4375 5.875 -4.6875 L 3.828125 -2.625 Z M 1.578125 -0.40625 C 0.984375 -1.078125 0.78125 -1.828125 0.78125 -2.46875 C 0.78125 -3.21875 1.078125 -3.9375 1.578125 -4.515625 L 3.640625 -2.46875 Z M 6.046875 -4.515625 C 6.53125 -4.015625 6.859375 -3.265625 6.859375 -2.46875 C 6.859375 -1.703125 6.578125 -0.984375 6.0625 -0.40625 L 4 -2.46875 Z M 5.78125 -0.34375 C 5.796875 -0.328125 5.859375 -0.25 5.859375 -0.234375 C 5.859375 -0.203125 5.0625 0.578125 3.828125 0.578125 C 3.484375 0.578125 2.578125 0.515625 1.765625 -0.234375 L 3.8125 -2.296875 Z M 5.78125 -0.34375 "/>
</g>
<g id="glyph-2-0">
<path d="M 3.015625 -2.640625 C 2.765625 -2.59375 2.671875 -2.40625 2.671875 -2.25 C 2.671875 -2.0625 2.8125 -2 2.9375 -2 C 3.09375 -2 3.328125 -2.109375 3.328125 -2.4375 C 3.328125 -2.90625 2.796875 -3.03125 2.421875 -3.03125 C 1.390625 -3.03125 0.421875 -2.09375 0.421875 -1.125 C 0.421875 -0.53125 0.84375 0.0625 1.703125 0.0625 C 2.859375 0.0625 3.40625 -0.609375 3.40625 -0.703125 C 3.40625 -0.75 3.34375 -0.828125 3.296875 -0.828125 C 3.25 -0.828125 3.234375 -0.8125 3.1875 -0.765625 C 2.640625 -0.125 1.84375 -0.125 1.71875 -0.125 C 1.21875 -0.125 1 -0.46875 1 -0.890625 C 1 -1.09375 1.09375 -1.84375 1.453125 -2.3125 C 1.71875 -2.65625 2.078125 -2.84375 2.421875 -2.84375 C 2.515625 -2.84375 2.84375 -2.828125 3.015625 -2.640625 Z M 3.015625 -2.640625 "/>
</g>
<g id="glyph-3-0">
<path d="M 3.578125 -3.390625 C 3.5625 -3.5 3.53125 -3.53125 3.4375 -3.53125 C 3.3125 -3.53125 3.28125 -3.484375 3.234375 -3.40625 L 1.296875 -0.609375 C 1.09375 -0.3125 0.921875 -0.234375 0.609375 -0.21875 C 0.515625 -0.21875 0.515625 -0.09375 0.515625 -0.078125 C 0.515625 -0.015625 0.578125 0 0.59375 0 C 0.65625 0 0.75 -0.015625 0.8125 -0.015625 C 0.890625 -0.015625 0.984375 -0.015625 1.0625 -0.015625 C 1.15625 -0.015625 1.25 -0.015625 1.328125 -0.015625 C 1.421875 -0.015625 1.53125 0 1.609375 0 C 1.65625 0 1.734375 0 1.734375 -0.140625 C 1.734375 -0.21875 1.65625 -0.21875 1.640625 -0.21875 C 1.59375 -0.21875 1.40625 -0.234375 1.40625 -0.34375 C 1.40625 -0.40625 1.46875 -0.5 1.5 -0.546875 L 1.859375 -1.0625 C 1.890625 -1.09375 1.890625 -1.109375 1.984375 -1.109375 L 3.46875 -1.109375 C 3.484375 -1.046875 3.484375 -1.015625 3.5 -0.953125 C 3.515625 -0.875 3.625 -0.375 3.625 -0.328125 C 3.625 -0.21875 3.3125 -0.21875 3.28125 -0.21875 C 3.203125 -0.21875 3.125 -0.21875 3.125 -0.078125 C 3.125 -0.03125 3.171875 0 3.21875 0 C 3.328125 0 3.4375 -0.015625 3.546875 -0.015625 C 3.671875 -0.015625 3.78125 -0.015625 3.890625 -0.015625 C 4 -0.015625 4.109375 -0.015625 4.21875 -0.015625 C 4.3125 -0.015625 4.421875 0 4.515625 0 C 4.609375 0 4.640625 -0.0625 4.640625 -0.140625 C 4.640625 -0.21875 4.5625 -0.21875 4.5 -0.21875 C 4.171875 -0.21875 4.15625 -0.25 4.140625 -0.359375 Z M 3.140625 -2.921875 L 3.4375 -1.328125 L 2.03125 -1.328125 Z M 3.140625 -2.921875 "/>
</g>
<g id="glyph-3-1">
<path d="M 1.328125 -0.0625 C 1.328125 0.40625 1.078125 0.671875 0.9375 0.78125 C 0.890625 0.828125 0.875 0.828125 0.875 0.859375 C 0.875 0.890625 0.921875 0.953125 0.96875 0.953125 C 1.03125 0.953125 1.5 0.578125 1.5 -0.046875 C 1.5 -0.375 1.34375 -0.59375 1.125 -0.59375 C 0.9375 -0.59375 0.828125 -0.453125 0.828125 -0.296875 C 0.828125 -0.140625 0.9375 0 1.125 0 C 1.203125 0 1.28125 -0.015625 1.328125 -0.0625 Z M 1.328125 -0.0625 "/>
</g>
<g id="glyph-3-2">
<path d="M 1.21875 -0.40625 C 1.1875 -0.265625 1.171875 -0.21875 0.796875 -0.21875 C 0.671875 -0.21875 0.59375 -0.21875 0.59375 -0.078125 C 0.59375 0 0.671875 0 0.765625 0 L 2.90625 0 C 3.78125 0 4.5 -0.546875 4.5 -1.046875 C 4.5 -1.34375 4.21875 -1.671875 3.546875 -1.765625 C 4.03125 -1.828125 4.734375 -2.15625 4.734375 -2.640625 C 4.734375 -3.0625 4.25 -3.359375 3.578125 -3.359375 L 1.5625 -3.359375 C 1.46875 -3.359375 1.390625 -3.359375 1.390625 -3.21875 C 1.390625 -3.140625 1.453125 -3.140625 1.5625 -3.140625 C 1.609375 -3.140625 1.78125 -3.140625 1.875 -3.109375 C 1.875 -3.046875 1.875 -3.046875 1.859375 -2.984375 Z M 2.046875 -1.828125 L 2.34375 -2.984375 C 2.375 -3.125 2.375 -3.140625 2.578125 -3.140625 L 3.484375 -3.140625 C 3.96875 -3.140625 4.203125 -2.890625 4.203125 -2.625 C 4.203125 -2.234375 3.671875 -1.828125 2.984375 -1.828125 Z M 1.8125 -0.21875 C 1.78125 -0.21875 1.703125 -0.21875 1.65625 -0.234375 C 1.65625 -0.265625 1.65625 -0.28125 1.671875 -0.3125 L 2.015625 -1.65625 L 3.203125 -1.65625 C 3.71875 -1.65625 3.96875 -1.375 3.96875 -1.0625 C 3.96875 -0.578125 3.375 -0.21875 2.765625 -0.21875 Z M 1.8125 -0.21875 "/>
</g>
<g id="glyph-3-3">
<path d="M 4.796875 -3.40625 C 4.796875 -3.40625 4.796875 -3.46875 4.71875 -3.46875 C 4.6875 -3.46875 4.6875 -3.46875 4.625 -3.40625 L 4.28125 -3.078125 C 4.28125 -3.0625 4.25 -3.03125 4.234375 -3.03125 C 4.21875 -3.03125 4.21875 -3.046875 4.203125 -3.046875 C 4.109375 -3.15625 3.8125 -3.46875 3.171875 -3.46875 C 1.8125 -3.46875 0.5625 -2.40625 0.5625 -1.328125 C 0.5625 -0.53125 1.25 0.109375 2.3125 0.109375 C 2.8125 0.109375 3.25 -0.0625 3.546875 -0.25 C 4.171875 -0.65625 4.25 -1.1875 4.25 -1.1875 C 4.25 -1.265625 4.171875 -1.265625 4.140625 -1.265625 C 4.09375 -1.265625 4.0625 -1.25 4.046875 -1.203125 C 3.796875 -0.421875 2.984375 -0.109375 2.4375 -0.109375 C 1.859375 -0.109375 1.109375 -0.359375 1.109375 -1.21875 C 1.109375 -1.765625 1.40625 -2.34375 1.71875 -2.640625 C 2.28125 -3.171875 2.9375 -3.25 3.234375 -3.25 C 3.875 -3.25 4.265625 -2.84375 4.265625 -2.28125 C 4.265625 -2.171875 4.25 -2.140625 4.25 -2.109375 C 4.25 -2.03125 4.328125 -2.03125 4.375 -2.03125 C 4.46875 -2.03125 4.46875 -2.046875 4.484375 -2.140625 Z M 4.796875 -3.40625 "/>
</g>
<g id="glyph-4-0">
<path d="M 4.71875 -1.234375 C 4.71875 -2.375 3.78125 -3.28125 2.671875 -3.28125 C 1.53125 -3.28125 0.609375 -2.359375 0.609375 -1.234375 C 0.609375 -0.09375 1.546875 0.828125 2.65625 0.828125 C 3.796875 0.828125 4.71875 -0.09375 4.71875 -1.234375 Z M 1.4375 -2.609375 C 1.8125 -2.9375 2.265625 -3.078125 2.65625 -3.078125 C 3.015625 -3.078125 3.453125 -2.984375 3.890625 -2.609375 L 2.671875 -1.375 Z M 1.296875 0 C 1.046875 -0.265625 0.828125 -0.6875 0.828125 -1.234375 C 0.828125 -1.78125 1.0625 -2.203125 1.296875 -2.46875 L 2.515625 -1.234375 Z M 4.046875 -2.46875 C 4.28125 -2.1875 4.515625 -1.765625 4.515625 -1.234375 C 4.515625 -0.6875 4.265625 -0.25 4.046875 0 L 2.8125 -1.234375 Z M 3.890625 0.140625 C 3.53125 0.484375 3.0625 0.609375 2.671875 0.609375 C 2.296875 0.609375 1.859375 0.515625 1.4375 0.140625 L 2.65625 -1.078125 Z M 3.890625 0.140625 "/>
</g>
</g>
</defs>
<g fill="rgb(0%, 0%, 0%)" fill-opacity="1">
<use xlink:href="#glyph-0-0" x="7.995305" y="14.765156"/>
</g>
<g fill="rgb(0%, 0%, 0%)" fill-opacity="1">
<use xlink:href="#glyph-1-0" x="17.567308" y="14.765156"/>
</g>
<g fill="rgb(0%, 0%, 0%)" fill-opacity="1">
<use xlink:href="#glyph-0-1" x="27.413051" y="14.765156"/>
</g>
<g fill="rgb(0%, 0%, 0%)" fill-opacity="1">
<use xlink:href="#glyph-1-0" x="37.562181" y="14.765156"/>
</g>
<g fill="rgb(0%, 0%, 0%)" fill-opacity="1">
<use xlink:href="#glyph-0-2" x="47.407925" y="14.765156"/>
</g>
<g fill="rgb(0%, 0%, 0%)" fill-opacity="1">
<use xlink:href="#glyph-0-1" x="147.27062" y="14.765156"/>
</g>
<g fill="rgb(0%, 0%, 0%)" fill-opacity="1">
<use xlink:href="#glyph-1-0" x="157.41975" y="14.765156"/>
</g>
<g fill="rgb(0%, 0%, 0%)" fill-opacity="1">
<use xlink:href="#glyph-0-2" x="167.265493" y="14.765156"/>
</g>
<g fill="rgb(0%, 0%, 0%)" fill-opacity="1">
<use xlink:href="#glyph-1-0" x="177.194248" y="14.765156"/>
</g>
<g fill="rgb(0%, 0%, 0%)" fill-opacity="1">
<use xlink:href="#glyph-0-0" x="187.039003" y="14.765156"/>
</g>
<g fill="rgb(0%, 0%, 0%)" fill-opacity="1">
<use xlink:href="#glyph-0-1" x="77.632963" y="56.101861"/>
</g>
<g fill="rgb(0%, 0%, 0%)" fill-opacity="1">
<use xlink:href="#glyph-1-0" x="87.782093" y="56.101861"/>
</g>
<g fill="rgb(0%, 0%, 0%)" fill-opacity="1">
<use xlink:href="#glyph-0-0" x="97.627836" y="56.101861"/>
</g>
<g fill="rgb(0%, 0%, 0%)" fill-opacity="1">
<use xlink:href="#glyph-1-0" x="107.199839" y="56.101861"/>
</g>
<g fill="rgb(0%, 0%, 0%)" fill-opacity="1">
<use xlink:href="#glyph-0-2" x="117.045582" y="56.101861"/>
</g>
<path fill="none" stroke-width="0.39848" stroke-linecap="butt" stroke-linejoin="miter" stroke="rgb(0%, 0%, 0%)" stroke-opacity="1" stroke-miterlimit="10" d="M -42.020135 20.415771 L 41.624454 20.415771 " transform="matrix(0.988231, 0, 0, -0.988231, 101.209184, 32.480181)"/>
<path fill="none" stroke-width="0.39848" stroke-linecap="round" stroke-linejoin="round" stroke="rgb(0%, 0%, 0%)" stroke-opacity="1" stroke-miterlimit="10" d="M -2.07158 2.390468 C -1.692114 0.955612 -0.850174 0.279688 -0.000327799 -0.000958886 C -0.850174 -0.277653 -1.692114 -0.957529 -2.07158 -2.392385 " transform="matrix(0.988231, 0, 0, -0.988231, 142.539386, 12.30374)"/>
<g fill="rgb(0%, 0%, 0%)" fill-opacity="1">
<use xlink:href="#glyph-2-0" x="87.572588" y="8.040246"/>
</g>
<g fill="rgb(0%, 0%, 0%)" fill-opacity="1">
<use xlink:href="#glyph-3-0" x="91.091678" y="9.030453"/>
<use xlink:href="#glyph-3-1" x="96.19206" y="9.030453"/>
<use xlink:href="#glyph-3-2" x="98.448121" y="9.030453"/>
</g>
<g fill="rgb(0%, 0%, 0%)" fill-opacity="1">
<use xlink:href="#glyph-4-0" x="103.782537" y="9.030453"/>
</g>
<g fill="rgb(0%, 0%, 0%)" fill-opacity="1">
<use xlink:href="#glyph-3-3" x="109.116019" y="9.030453"/>
</g>
<path fill="none" stroke-width="0.39848" stroke-linecap="butt" stroke-linejoin="miter" stroke="rgb(0%, 0%, 0%)" stroke-opacity="1" stroke-miterlimit="10" d="M -58.226496 13.150578 L -14.251918 -12.945617 " transform="matrix(0.988231, 0, 0, -0.988231, 101.209184, 32.480181)"/>
<path fill="none" stroke-width="0.39848" stroke-linecap="round" stroke-linejoin="round" stroke="rgb(0%, 0%, 0%)" stroke-opacity="1" stroke-miterlimit="10" d="M -2.070879 2.389445 C -1.694705 0.957885 -0.849869 0.277939 -0.000392858 0.000663668 C -0.850502 -0.27864 -1.693036 -0.957959 -2.07005 -2.390658 " transform="matrix(0.84979, 0.504353, 0.504353, -0.84979, 87.292968, 45.375762)"/>
<g fill="rgb(0%, 0%, 0%)" fill-opacity="1">
<use xlink:href="#glyph-2-0" x="46.547176" y="37.763262"/>
</g>
<g fill="rgb(0%, 0%, 0%)" fill-opacity="1">
<use xlink:href="#glyph-3-0" x="50.066265" y="38.75347"/>
<use xlink:href="#glyph-3-1" x="55.166648" y="38.75347"/>
<use xlink:href="#glyph-3-2" x="57.422709" y="38.75347"/>
</g>
<path fill="none" stroke-width="0.39848" stroke-linecap="butt" stroke-linejoin="miter" stroke="rgb(0%, 0%, 0%)" stroke-opacity="1" stroke-miterlimit="10" d="M 13.919481 -13.151161 L 57.890107 12.948987 " transform="matrix(0.988231, 0, 0, -0.988231, 101.209184, 32.480181)"/>
<path fill="none" stroke-width="0.39848" stroke-linecap="round" stroke-linejoin="round" stroke="rgb(0%, 0%, 0%)" stroke-opacity="1" stroke-miterlimit="10" d="M -2.072901 2.391748 C -1.69252 0.957026 -0.850003 0.277689 0.0000987261 -0.0016334 C -0.849383 -0.27889 -1.692215 -0.955416 -2.070438 -2.390365 " transform="matrix(0.84978, -0.504373, -0.504373, -0.84978, 158.588936, 19.584599)"/>
<g fill="rgb(0%, 0%, 0%)" fill-opacity="1">
<use xlink:href="#glyph-2-0" x="117.939931" y="28.215965"/>
</g>
<g fill="rgb(0%, 0%, 0%)" fill-opacity="1">
<use xlink:href="#glyph-3-0" x="121.458033" y="29.206172"/>
<use xlink:href="#glyph-3-1" x="126.558415" y="29.206172"/>
<use xlink:href="#glyph-3-3" x="128.814477" y="29.206172"/>
</g>
</svg>
