<?xml version="1.0" encoding="UTF-8"?>
<svg xmlns="http://www.w3.org/2000/svg" xmlns:xlink="http://www.w3.org/1999/xlink" width="36.5662pt" height="33.0225pt" viewBox="0 0 29.253 26.418">
<defs>
<clipPath id="clip-0">
<path clip-rule="nonzero" d="M 1 0.046875 L 27 0.046875 L 27 15 L 1 15 Z M 1 0.046875 "/>
</clipPath>
<clipPath id="clip-1">
<path clip-rule="nonzero" d="M 0 12 L 20 12 L 20 25.804688 L 0 25.804688 Z M 0 12 "/>
</clipPath>
<clipPath id="clip-2">
<path clip-rule="nonzero" d="M 8 12 L 28.523438 12 L 28.523438 25.804688 L 8 25.804688 Z M 8 12 "/>
</clipPath>
<clipPath id="clip-3">
<path clip-rule="nonzero" d="M 0 11 L 20 11 L 20 25.804688 L 0 25.804688 Z M 0 11 "/>
</clipPath>
<clipPath id="clip-4">
<path clip-rule="nonzero" d="M 8 11 L 28.523438 11 L 28.523438 25.804688 L 8 25.804688 Z M 8 11 "/>
</clipPath>
<clipPath id="clip-5">
<path clip-rule="nonzero" d="M 0 0.046875 L 19 0.046875 L 19 25.804688 L 0 25.804688 Z M 0 0.046875 "/>
</clipPath>
<clipPath id="clip-6">
<path clip-rule="nonzero" d="M 10 0.046875 L 28.523438 0.046875 L 28.523438 25.804688 L 10 25.804688 Z M 10 0.046875 "/>
</clipPath>
<clipPath id="clip-7">
<path clip-rule="nonzero" d="M 3 8 L 26 8 L 26 25.804688 L 3 25.804688 Z M 3 8 "/>
</clipPath>
</defs>
<g clip-path="url(#clip-0)">
<path fill="none" stroke-width="0.59776" stroke-linecap="butt" stroke-linejoin="miter" stroke="rgb(0%, 0%, 0%)" stroke-opacity="1" stroke-miterlimit="10" d="M 4.250269 0.000187673 C 4.250269 0.781358 2.347419 1.418311 -0.0000962465 1.418311 C -2.347612 1.418311 -4.250462 0.781358 -4.250462 0.000187673 C -4.250462 -0.780982 -2.347612 -1.417936 -0.0000962465 -1.417936 C 2.347419 -1.417936 4.250269 -0.780982 4.250269 0.000187673 Z M 4.250269 0.000187673 " transform="matrix(0.9751, 0, 0, -0.9751, 14.261813, 4.632995)"/>
</g>
<g clip-path="url(#clip-1)">
<path fill="none" stroke-width="0.59776" stroke-linecap="butt" stroke-linejoin="miter" stroke="rgb(0%, 0%, 0%)" stroke-opacity="1" stroke-miterlimit="10" d="M -11.337075 -17.009286 C -11.337075 -17.790456 -9.434225 -18.427409 -7.086709 -18.427409 C -4.739194 -18.427409 -2.836344 -17.790456 -2.836344 -17.009286 " transform="matrix(0.9751, 0, 0, -0.9751, 14.261813, 4.632995)"/>
</g>
<g clip-path="url(#clip-2)">
<path fill="none" stroke-width="0.59776" stroke-linecap="butt" stroke-linejoin="miter" stroke="rgb(0%, 0%, 0%)" stroke-opacity="1" stroke-miterlimit="10" d="M 2.836151 -17.009286 C 2.836151 -17.790456 4.739001 -18.427409 7.086517 -18.427409 C 9.434032 -18.427409 11.336882 -17.790456 11.336882 -17.009286 " transform="matrix(0.9751, 0, 0, -0.9751, 14.261813, 4.632995)"/>
</g>
<g clip-path="url(#clip-3)">
<path fill="none" stroke-width="0.59776" stroke-linecap="butt" stroke-linejoin="miter" stroke="rgb(0%, 0%, 0%)" stroke-opacity="1" stroke-dasharray="1.79327 1.79327" stroke-miterlimit="10" d="M -2.836344 -17.009286 C -2.836344 -16.22411 -4.739194 -15.591162 -7.086709 -15.591162 C -9.434225 -15.591162 -11.337075 -16.22411 -11.337075 -17.009286 " transform="matrix(0.9751, 0, 0, -0.9751, 14.261813, 4.632995)"/>
</g>
<g clip-path="url(#clip-4)">
<path fill="none" stroke-width="0.59776" stroke-linecap="butt" stroke-linejoin="miter" stroke="rgb(0%, 0%, 0%)" stroke-opacity="1" stroke-dasharray="1.79327 1.79327" stroke-miterlimit="10" d="M 11.336882 -17.009286 C 11.336882 -16.22411 9.434032 -15.591162 7.086517 -15.591162 C 4.739001 -15.591162 2.836151 -16.22411 2.836151 -17.009286 " transform="matrix(0.9751, 0, 0, -0.9751, 14.261813, 4.632995)"/>
</g>
<g clip-path="url(#clip-5)">
<path fill="none" stroke-width="0.59776" stroke-linecap="butt" stroke-linejoin="miter" stroke="rgb(0%, 0%, 0%)" stroke-opacity="1" stroke-miterlimit="10" d="M -11.337075 -17.009286 C -11.337075 -9.814511 -4.250462 -7.190581 -4.250462 0.000187673 " transform="matrix(0.9751, 0, 0, -0.9751, 14.261813, 4.632995)"/>
</g>
<g clip-path="url(#clip-6)">
<path fill="none" stroke-width="0.59776" stroke-linecap="butt" stroke-linejoin="miter" stroke="rgb(0%, 0%, 0%)" stroke-opacity="1" stroke-miterlimit="10" d="M 11.336882 -17.009286 C 11.336882 -9.814511 4.250269 -7.190581 4.250269 0.000187673 " transform="matrix(0.9751, 0, 0, -0.9751, 14.261813, 4.632995)"/>
</g>
<g clip-path="url(#clip-7)">
<path fill="none" stroke-width="0.59776" stroke-linecap="butt" stroke-linejoin="miter" stroke="rgb(0%, 0%, 0%)" stroke-opacity="1" stroke-miterlimit="10" d="M -2.836344 -17.009286 C -2.836344 -10.215111 2.836151 -10.215111 2.836151 -17.009286 " transform="matrix(0.9751, 0, 0, -0.9751, 14.261813, 4.632995)"/>
</g>
</svg>
