<?xml version="1.0" encoding="UTF-8"?>
<svg xmlns="http://www.w3.org/2000/svg" xmlns:xlink="http://www.w3.org/1999/xlink" width="98.5737pt" height="54.2825pt" viewBox="0 0 78.859 43.426">
<defs>
<g>
<g id="glyph-0-0">
<path d="M 1.625 -2.65625 C 2.15625 -3.0625 2.421875 -3.46875 2.5 -3.59375 C 2.953125 -4.28125 3.03125 -4.890625 3.03125 -4.90625 C 3.03125 -5.015625 2.90625 -5.015625 2.828125 -5.015625 C 2.65625 -5.015625 2.65625 -5 2.609375 -4.828125 C 2.390625 -3.859375 1.8125 -3.046875 0.703125 -2.578125 C 0.59375 -2.546875 0.546875 -2.53125 0.546875 -2.453125 C 0.546875 -2.390625 0.59375 -2.375 0.703125 -2.328125 C 1.71875 -1.90625 2.375 -1.140625 2.625 -0.046875 C 2.65625 0.078125 2.65625 0.109375 2.828125 0.109375 C 2.90625 0.109375 3.03125 0.109375 3.03125 -0.015625 C 3.03125 -0.03125 2.9375 -0.65625 2.53125 -1.3125 C 2.328125 -1.609375 2.046875 -1.953125 1.625 -2.265625 L 8.203125 -2.265625 C 7.65625 -1.84375 7.390625 -1.4375 7.3125 -1.3125 C 6.875 -0.640625 6.796875 -0.015625 6.796875 -0.015625 C 6.796875 0.109375 6.90625 0.109375 6.984375 0.109375 C 7.15625 0.109375 7.171875 0.09375 7.203125 -0.09375 C 7.4375 -1.046875 8.015625 -1.875 9.125 -2.328125 C 9.234375 -2.375 9.265625 -2.390625 9.265625 -2.453125 C 9.265625 -2.53125 9.203125 -2.5625 9.1875 -2.5625 C 8.75 -2.734375 7.5625 -3.21875 7.1875 -4.875 C 7.171875 -5 7.15625 -5.015625 6.984375 -5.015625 C 6.90625 -5.015625 6.796875 -5.015625 6.796875 -4.90625 C 6.796875 -4.890625 6.875 -4.265625 7.296875 -3.609375 C 7.484375 -3.3125 7.78125 -2.96875 8.203125 -2.65625 Z M 1.625 -2.65625 "/>
</g>
</g>
<clipPath id="clip-0">
<path clip-rule="nonzero" d="M 0.445312 0 L 21 0 L 21 15 L 0.445312 15 Z M 0.445312 0 "/>
</clipPath>
<clipPath id="clip-1">
<path clip-rule="nonzero" d="M 0.445312 13 L 21 13 L 21 32 L 0.445312 32 Z M 0.445312 13 "/>
</clipPath>
<clipPath id="clip-2">
<path clip-rule="nonzero" d="M 0.445312 11 L 21 11 L 21 30 L 0.445312 30 Z M 0.445312 11 "/>
</clipPath>
<clipPath id="clip-3">
<path clip-rule="nonzero" d="M 0.445312 0 L 13 0 L 13 30 L 0.445312 30 Z M 0.445312 0 "/>
</clipPath>
<clipPath id="clip-4">
<path clip-rule="nonzero" d="M 2 29 L 28 29 L 28 42.859375 L 2 42.859375 Z M 2 29 "/>
</clipPath>
<clipPath id="clip-5">
<path clip-rule="nonzero" d="M 2 28 L 28 28 L 28 42.859375 L 2 42.859375 Z M 2 28 "/>
</clipPath>
<clipPath id="clip-6">
<path clip-rule="nonzero" d="M 0.445312 13 L 20 13 L 20 42.859375 L 0.445312 42.859375 Z M 0.445312 13 "/>
</clipPath>
<clipPath id="clip-7">
<path clip-rule="nonzero" d="M 10 13 L 35 13 L 35 42.859375 L 10 42.859375 Z M 10 13 "/>
</clipPath>
<clipPath id="clip-8">
<path clip-rule="nonzero" d="M 23 29 L 49 29 L 49 42.859375 L 23 42.859375 Z M 23 29 "/>
</clipPath>
<clipPath id="clip-9">
<path clip-rule="nonzero" d="M 23 28 L 49 28 L 49 42.859375 L 23 42.859375 Z M 23 28 "/>
</clipPath>
<clipPath id="clip-10">
<path clip-rule="nonzero" d="M 23 13 L 41 13 L 41 42.859375 L 23 42.859375 Z M 23 13 "/>
</clipPath>
<clipPath id="clip-11">
<path clip-rule="nonzero" d="M 31 13 L 49 13 L 49 42.859375 L 31 42.859375 Z M 31 13 "/>
</clipPath>
<clipPath id="clip-12">
<path clip-rule="nonzero" d="M 58 0 L 78.273438 0 L 78.273438 15 L 58 15 Z M 58 0 "/>
</clipPath>
<clipPath id="clip-13">
<path clip-rule="nonzero" d="M 59 0 L 78.273438 0 L 78.273438 30 L 59 30 Z M 59 0 "/>
</clipPath>
<clipPath id="clip-14">
<path clip-rule="nonzero" d="M 44 29 L 70 29 L 70 42.859375 L 44 42.859375 Z M 44 29 "/>
</clipPath>
<clipPath id="clip-15">
<path clip-rule="nonzero" d="M 58 29 L 78.273438 29 L 78.273438 42.859375 L 58 42.859375 Z M 58 29 "/>
</clipPath>
<clipPath id="clip-16">
<path clip-rule="nonzero" d="M 44 28 L 70 28 L 70 42.859375 L 44 42.859375 Z M 44 28 "/>
</clipPath>
<clipPath id="clip-17">
<path clip-rule="nonzero" d="M 58 28 L 78.273438 28 L 78.273438 42.859375 L 58 42.859375 Z M 58 28 "/>
</clipPath>
<clipPath id="clip-18">
<path clip-rule="nonzero" d="M 44 13 L 68 13 L 68 42.859375 L 44 42.859375 Z M 44 13 "/>
</clipPath>
<clipPath id="clip-19">
<path clip-rule="nonzero" d="M 59 13 L 78.273438 13 L 78.273438 42.859375 L 59 42.859375 Z M 59 13 "/>
</clipPath>
<clipPath id="clip-20">
<path clip-rule="nonzero" d="M 52 24 L 75 24 L 75 42.859375 L 52 42.859375 Z M 52 24 "/>
</clipPath>
</defs>
<g clip-path="url(#clip-0)">
<path fill="none" stroke-width="0.59776" stroke-linecap="butt" stroke-linejoin="miter" stroke="rgb(0%, 0%, 0%)" stroke-opacity="1" stroke-miterlimit="10" d="M 4.251055 -0.000922143 C 4.251055 0.782739 2.347314 1.416 0.000289803 1.416 C -2.346734 1.416 -4.250476 0.782739 -4.250476 -0.000922143 C -4.250476 -0.784583 -2.346734 -1.417844 0.000289803 -1.417844 C 2.347314 -1.417844 4.251055 -0.784583 4.251055 -0.000922143 Z M 4.251055 -0.000922143 " transform="matrix(0.986955, 0, 0, -0.986955, 7.886433, 4.643621)"/>
</g>
<g clip-path="url(#clip-1)">
<path fill="none" stroke-width="0.59776" stroke-linecap="butt" stroke-linejoin="miter" stroke="rgb(0%, 0%, 0%)" stroke-opacity="1" stroke-miterlimit="10" d="M -4.250476 -17.007943 C -4.250476 -17.791603 -2.346734 -18.424865 0.000289803 -18.424865 C 2.347314 -18.424865 4.251055 -17.791603 4.251055 -17.007943 " transform="matrix(0.986955, 0, 0, -0.986955, 7.886433, 4.643621)"/>
</g>
<g clip-path="url(#clip-2)">
<path fill="none" stroke-width="0.59776" stroke-linecap="butt" stroke-linejoin="miter" stroke="rgb(0%, 0%, 0%)" stroke-opacity="1" stroke-dasharray="1.79327 1.79327" stroke-miterlimit="10" d="M 4.251055 -17.007943 C 4.251055 -16.224282 2.347314 -15.591021 0.000289803 -15.591021 C -2.346734 -15.591021 -4.250476 -16.224282 -4.250476 -17.007943 " transform="matrix(0.986955, 0, 0, -0.986955, 7.886433, 4.643621)"/>
</g>
<g clip-path="url(#clip-3)">
<path fill="none" stroke-width="0.59776" stroke-linecap="butt" stroke-linejoin="miter" stroke="rgb(0%, 0%, 0%)" stroke-opacity="1" stroke-miterlimit="10" d="M -4.250476 -17.007943 C -4.250476 -11.039456 -4.250476 -5.969409 -4.250476 -0.000922143 " transform="matrix(0.986955, 0, 0, -0.986955, 7.886433, 4.643621)"/>
</g>
<path fill="none" stroke-width="0.59776" stroke-linecap="butt" stroke-linejoin="miter" stroke="rgb(0%, 0%, 0%)" stroke-opacity="1" stroke-miterlimit="10" d="M 4.251055 -17.007943 C 4.251055 -11.039456 4.251055 -5.969409 4.251055 -0.000922143 " transform="matrix(0.986955, 0, 0, -0.986955, 7.886433, 4.643621)"/>
<path fill="none" stroke-width="0.59776" stroke-linecap="butt" stroke-linejoin="miter" stroke="rgb(0%, 0%, 0%)" stroke-opacity="1" stroke-miterlimit="10" d="M 25.5128 -0.000922143 C 25.5128 0.782739 23.609058 1.416 21.262034 1.416 C 18.911052 1.416 17.00731 0.782739 17.00731 -0.000922143 C 17.00731 -0.784583 18.911052 -1.417844 21.262034 -1.417844 C 23.609058 -1.417844 25.5128 -0.784583 25.5128 -0.000922143 Z M 25.5128 -0.000922143 " transform="matrix(0.986955, 0, 0, -0.986955, 7.886433, 4.643621)"/>
<path fill="none" stroke-width="0.59776" stroke-linecap="butt" stroke-linejoin="miter" stroke="rgb(0%, 0%, 0%)" stroke-opacity="1" stroke-miterlimit="10" d="M 9.922701 -17.007943 C 9.922701 -17.791603 11.826442 -18.424865 14.173467 -18.424865 C 16.520491 -18.424865 18.424232 -17.791603 18.424232 -17.007943 " transform="matrix(0.986955, 0, 0, -0.986955, 7.886433, 4.643621)"/>
<path fill="none" stroke-width="0.59776" stroke-linecap="butt" stroke-linejoin="miter" stroke="rgb(0%, 0%, 0%)" stroke-opacity="1" stroke-miterlimit="10" d="M 24.095878 -17.007943 C 24.095878 -17.791603 25.999619 -18.424865 28.346643 -18.424865 C 30.693668 -18.424865 32.597409 -17.791603 32.597409 -17.007943 " transform="matrix(0.986955, 0, 0, -0.986955, 7.886433, 4.643621)"/>
<path fill="none" stroke-width="0.59776" stroke-linecap="butt" stroke-linejoin="miter" stroke="rgb(0%, 0%, 0%)" stroke-opacity="1" stroke-dasharray="1.79327 1.79327" stroke-miterlimit="10" d="M 18.424232 -17.007943 C 18.424232 -16.224282 16.520491 -15.591021 14.173467 -15.591021 C 11.826442 -15.591021 9.922701 -16.224282 9.922701 -17.007943 " transform="matrix(0.986955, 0, 0, -0.986955, 7.886433, 4.643621)"/>
<path fill="none" stroke-width="0.59776" stroke-linecap="butt" stroke-linejoin="miter" stroke="rgb(0%, 0%, 0%)" stroke-opacity="1" stroke-dasharray="1.79327 1.79327" stroke-miterlimit="10" d="M 32.597409 -17.007943 C 32.597409 -16.224282 30.693668 -15.591021 28.346643 -15.591021 C 25.999619 -15.591021 24.095878 -16.224282 24.095878 -17.007943 " transform="matrix(0.986955, 0, 0, -0.986955, 7.886433, 4.643621)"/>
<path fill="none" stroke-width="0.59776" stroke-linecap="butt" stroke-linejoin="miter" stroke="rgb(0%, 0%, 0%)" stroke-opacity="1" stroke-miterlimit="10" d="M 9.922701 -17.007943 C 9.922701 -9.81647 17.00731 -7.192394 17.00731 -0.000922143 " transform="matrix(0.986955, 0, 0, -0.986955, 7.886433, 4.643621)"/>
<path fill="none" stroke-width="0.59776" stroke-linecap="butt" stroke-linejoin="miter" stroke="rgb(0%, 0%, 0%)" stroke-opacity="1" stroke-miterlimit="10" d="M 32.597409 -17.007943 C 32.597409 -9.81647 25.5128 -7.192394 25.5128 -0.000922143 " transform="matrix(0.986955, 0, 0, -0.986955, 7.886433, 4.643621)"/>
<path fill="none" stroke-width="0.59776" stroke-linecap="butt" stroke-linejoin="miter" stroke="rgb(0%, 0%, 0%)" stroke-opacity="1" stroke-miterlimit="10" d="M 18.424232 -17.007943 C 18.424232 -10.216217 24.095878 -10.216217 24.095878 -17.007943 " transform="matrix(0.986955, 0, 0, -0.986955, 7.886433, 4.643621)"/>
<g clip-path="url(#clip-4)">
<path fill="none" stroke-width="0.59776" stroke-linecap="butt" stroke-linejoin="miter" stroke="rgb(0%, 0%, 0%)" stroke-opacity="1" stroke-miterlimit="10" d="M 2.834134 -34.014963 C 2.834134 -34.798624 4.737875 -35.431885 7.084899 -35.431885 C 9.435881 -35.431885 11.339623 -34.798624 11.339623 -34.014963 " transform="matrix(0.986955, 0, 0, -0.986955, 7.886433, 4.643621)"/>
</g>
<g clip-path="url(#clip-5)">
<path fill="none" stroke-width="0.59776" stroke-linecap="butt" stroke-linejoin="miter" stroke="rgb(0%, 0%, 0%)" stroke-opacity="1" stroke-dasharray="1.79327 1.79327" stroke-miterlimit="10" d="M 11.339623 -34.014963 C 11.339623 -33.231303 9.435881 -32.598041 7.084899 -32.598041 C 4.737875 -32.598041 2.834134 -33.231303 2.834134 -34.014963 " transform="matrix(0.986955, 0, 0, -0.986955, 7.886433, 4.643621)"/>
</g>
<g clip-path="url(#clip-6)">
<path fill="none" stroke-width="0.59776" stroke-linecap="butt" stroke-linejoin="miter" stroke="rgb(0%, 0%, 0%)" stroke-opacity="1" stroke-miterlimit="10" d="M 2.834134 -34.014963 C 2.834134 -26.823491 -4.250476 -24.199415 -4.250476 -17.007943 " transform="matrix(0.986955, 0, 0, -0.986955, 7.886433, 4.643621)"/>
</g>
<g clip-path="url(#clip-7)">
<path fill="none" stroke-width="0.59776" stroke-linecap="butt" stroke-linejoin="miter" stroke="rgb(0%, 0%, 0%)" stroke-opacity="1" stroke-miterlimit="10" d="M 11.339623 -34.014963 C 11.339623 -26.823491 18.424232 -24.199415 18.424232 -17.007943 " transform="matrix(0.986955, 0, 0, -0.986955, 7.886433, 4.643621)"/>
</g>
<path fill="none" stroke-width="0.59776" stroke-linecap="butt" stroke-linejoin="miter" stroke="rgb(0%, 0%, 0%)" stroke-opacity="1" stroke-miterlimit="10" d="M 4.251055 -17.007943 C 4.251055 -23.799669 9.922701 -23.799669 9.922701 -17.007943 " transform="matrix(0.986955, 0, 0, -0.986955, 7.886433, 4.643621)"/>
<g clip-path="url(#clip-8)">
<path fill="none" stroke-width="0.59776" stroke-linecap="butt" stroke-linejoin="miter" stroke="rgb(0%, 0%, 0%)" stroke-opacity="1" stroke-miterlimit="10" d="M 24.095878 -34.014963 C 24.095878 -34.798624 25.999619 -35.431885 28.346643 -35.431885 C 30.693668 -35.431885 32.597409 -34.798624 32.597409 -34.014963 " transform="matrix(0.986955, 0, 0, -0.986955, 7.886433, 4.643621)"/>
</g>
<g clip-path="url(#clip-9)">
<path fill="none" stroke-width="0.59776" stroke-linecap="butt" stroke-linejoin="miter" stroke="rgb(0%, 0%, 0%)" stroke-opacity="1" stroke-dasharray="1.79327 1.79327" stroke-miterlimit="10" d="M 32.597409 -34.014963 C 32.597409 -33.231303 30.693668 -32.598041 28.346643 -32.598041 C 25.999619 -32.598041 24.095878 -33.231303 24.095878 -34.014963 " transform="matrix(0.986955, 0, 0, -0.986955, 7.886433, 4.643621)"/>
</g>
<g clip-path="url(#clip-10)">
<path fill="none" stroke-width="0.59776" stroke-linecap="butt" stroke-linejoin="miter" stroke="rgb(0%, 0%, 0%)" stroke-opacity="1" stroke-miterlimit="10" d="M 24.095878 -34.014963 C 24.095878 -28.046477 24.095878 -22.976429 24.095878 -17.007943 " transform="matrix(0.986955, 0, 0, -0.986955, 7.886433, 4.643621)"/>
</g>
<g clip-path="url(#clip-11)">
<path fill="none" stroke-width="0.59776" stroke-linecap="butt" stroke-linejoin="miter" stroke="rgb(0%, 0%, 0%)" stroke-opacity="1" stroke-miterlimit="10" d="M 32.597409 -34.014963 C 32.597409 -28.046477 32.597409 -22.976429 32.597409 -17.007943 " transform="matrix(0.986955, 0, 0, -0.986955, 7.886433, 4.643621)"/>
</g>
<g fill="rgb(0%, 0%, 0%)" fill-opacity="1">
<use xlink:href="#glyph-0-0" x="44.934732" y="23.233897"/>
</g>
<path fill="none" stroke-width="0.59776" stroke-linecap="butt" stroke-linejoin="miter" stroke="rgb(0%, 0%, 0%)" stroke-opacity="1" stroke-miterlimit="10" d="M 53.859153 -0.000922143 C 53.859153 0.782739 51.955412 1.416 49.608387 1.416 C 47.257405 1.416 45.353664 0.782739 45.353664 -0.000922143 C 45.353664 -0.784583 47.257405 -1.417844 49.608387 -1.417844 C 51.955412 -1.417844 53.859153 -0.784583 53.859153 -0.000922143 Z M 53.859153 -0.000922143 " transform="matrix(0.986955, 0, 0, -0.986955, 7.886433, 4.643621)"/>
<g clip-path="url(#clip-12)">
<path fill="none" stroke-width="0.59776" stroke-linecap="butt" stroke-linejoin="miter" stroke="rgb(0%, 0%, 0%)" stroke-opacity="1" stroke-miterlimit="10" d="M 68.03233 -0.000922143 C 68.03233 0.782739 66.128589 1.416 63.781564 1.416 C 61.430582 1.416 59.526841 0.782739 59.526841 -0.000922143 C 59.526841 -0.784583 61.430582 -1.417844 63.781564 -1.417844 C 66.128589 -1.417844 68.03233 -0.784583 68.03233 -0.000922143 Z M 68.03233 -0.000922143 " transform="matrix(0.986955, 0, 0, -0.986955, 7.886433, 4.643621)"/>
</g>
<path fill="none" stroke-width="0.59776" stroke-linecap="butt" stroke-linejoin="miter" stroke="rgb(0%, 0%, 0%)" stroke-opacity="1" stroke-miterlimit="10" d="M 52.442231 -17.007943 C 52.442231 -17.791603 54.345973 -18.424865 56.692997 -18.424865 C 59.040021 -18.424865 60.943763 -17.791603 60.943763 -17.007943 " transform="matrix(0.986955, 0, 0, -0.986955, 7.886433, 4.643621)"/>
<path fill="none" stroke-width="0.59776" stroke-linecap="butt" stroke-linejoin="miter" stroke="rgb(0%, 0%, 0%)" stroke-opacity="1" stroke-dasharray="1.79327 1.79327" stroke-miterlimit="10" d="M 60.943763 -17.007943 C 60.943763 -16.224282 59.040021 -15.591021 56.692997 -15.591021 C 54.345973 -15.591021 52.442231 -16.224282 52.442231 -17.007943 " transform="matrix(0.986955, 0, 0, -0.986955, 7.886433, 4.643621)"/>
<path fill="none" stroke-width="0.59776" stroke-linecap="butt" stroke-linejoin="miter" stroke="rgb(0%, 0%, 0%)" stroke-opacity="1" stroke-miterlimit="10" d="M 52.442231 -17.007943 C 52.442231 -9.81647 45.353664 -7.192394 45.353664 -0.000922143 " transform="matrix(0.986955, 0, 0, -0.986955, 7.886433, 4.643621)"/>
<g clip-path="url(#clip-13)">
<path fill="none" stroke-width="0.59776" stroke-linecap="butt" stroke-linejoin="miter" stroke="rgb(0%, 0%, 0%)" stroke-opacity="1" stroke-miterlimit="10" d="M 60.943763 -17.007943 C 60.943763 -9.81647 68.03233 -7.192394 68.03233 -0.000922143 " transform="matrix(0.986955, 0, 0, -0.986955, 7.886433, 4.643621)"/>
</g>
<path fill="none" stroke-width="0.59776" stroke-linecap="butt" stroke-linejoin="miter" stroke="rgb(0%, 0%, 0%)" stroke-opacity="1" stroke-miterlimit="10" d="M 53.859153 -0.000922143 C 53.859153 -6.792648 59.526841 -6.792648 59.526841 -0.000922143 " transform="matrix(0.986955, 0, 0, -0.986955, 7.886433, 4.643621)"/>
<g clip-path="url(#clip-14)">
<path fill="none" stroke-width="0.59776" stroke-linecap="butt" stroke-linejoin="miter" stroke="rgb(0%, 0%, 0%)" stroke-opacity="1" stroke-miterlimit="10" d="M 45.353664 -34.014963 C 45.353664 -34.798624 47.257405 -35.431885 49.608387 -35.431885 C 51.955412 -35.431885 53.859153 -34.798624 53.859153 -34.014963 " transform="matrix(0.986955, 0, 0, -0.986955, 7.886433, 4.643621)"/>
</g>
<g clip-path="url(#clip-15)">
<path fill="none" stroke-width="0.59776" stroke-linecap="butt" stroke-linejoin="miter" stroke="rgb(0%, 0%, 0%)" stroke-opacity="1" stroke-miterlimit="10" d="M 59.526841 -34.014963 C 59.526841 -34.798624 61.430582 -35.431885 63.781564 -35.431885 C 66.128589 -35.431885 68.03233 -34.798624 68.03233 -34.014963 " transform="matrix(0.986955, 0, 0, -0.986955, 7.886433, 4.643621)"/>
</g>
<g clip-path="url(#clip-16)">
<path fill="none" stroke-width="0.59776" stroke-linecap="butt" stroke-linejoin="miter" stroke="rgb(0%, 0%, 0%)" stroke-opacity="1" stroke-dasharray="1.79327 1.79327" stroke-miterlimit="10" d="M 53.859153 -34.014963 C 53.859153 -33.231303 51.955412 -32.598041 49.608387 -32.598041 C 47.257405 -32.598041 45.353664 -33.231303 45.353664 -34.014963 " transform="matrix(0.986955, 0, 0, -0.986955, 7.886433, 4.643621)"/>
</g>
<g clip-path="url(#clip-17)">
<path fill="none" stroke-width="0.59776" stroke-linecap="butt" stroke-linejoin="miter" stroke="rgb(0%, 0%, 0%)" stroke-opacity="1" stroke-dasharray="1.79327 1.79327" stroke-miterlimit="10" d="M 68.03233 -34.014963 C 68.03233 -33.231303 66.128589 -32.598041 63.781564 -32.598041 C 61.430582 -32.598041 59.526841 -33.231303 59.526841 -34.014963 " transform="matrix(0.986955, 0, 0, -0.986955, 7.886433, 4.643621)"/>
</g>
<g clip-path="url(#clip-18)">
<path fill="none" stroke-width="0.59776" stroke-linecap="butt" stroke-linejoin="miter" stroke="rgb(0%, 0%, 0%)" stroke-opacity="1" stroke-miterlimit="10" d="M 45.353664 -34.014963 C 45.353664 -26.823491 52.442231 -24.199415 52.442231 -17.007943 " transform="matrix(0.986955, 0, 0, -0.986955, 7.886433, 4.643621)"/>
</g>
<g clip-path="url(#clip-19)">
<path fill="none" stroke-width="0.59776" stroke-linecap="butt" stroke-linejoin="miter" stroke="rgb(0%, 0%, 0%)" stroke-opacity="1" stroke-miterlimit="10" d="M 68.03233 -34.014963 C 68.03233 -26.823491 60.943763 -24.199415 60.943763 -17.007943 " transform="matrix(0.986955, 0, 0, -0.986955, 7.886433, 4.643621)"/>
</g>
<g clip-path="url(#clip-20)">
<path fill="none" stroke-width="0.59776" stroke-linecap="butt" stroke-linejoin="miter" stroke="rgb(0%, 0%, 0%)" stroke-opacity="1" stroke-miterlimit="10" d="M 53.859153 -34.014963 C 53.859153 -27.223237 59.526841 -27.223237 59.526841 -34.014963 " transform="matrix(0.986955, 0, 0, -0.986955, 7.886433, 4.643621)"/>
</g>
</svg>
