<?xml version="1.0" encoding="UTF-8"?>
<svg xmlns="http://www.w3.org/2000/svg" xmlns:xlink="http://www.w3.org/1999/xlink" width="25.2275pt" height="35.8575pt" viewBox="0 0 20.182 28.686">
<defs>
<clipPath id="clip-0">
<path clip-rule="nonzero" d="M 0 0.40625 L 19.394531 0.40625 L 19.394531 14 L 0 14 Z M 0 0.40625 "/>
</clipPath>
<clipPath id="clip-1">
<path clip-rule="nonzero" d="M 0 0.40625 L 16 0.40625 L 16 23 L 0 23 Z M 0 0.40625 "/>
</clipPath>
<clipPath id="clip-2">
<path clip-rule="nonzero" d="M 4 0.40625 L 19.394531 0.40625 L 19.394531 23 L 4 23 Z M 4 0.40625 "/>
</clipPath>
<clipPath id="clip-3">
<path clip-rule="nonzero" d="M 0 3 L 19.394531 3 L 19.394531 23 L 0 23 Z M 0 3 "/>
</clipPath>
<clipPath id="clip-4">
<path clip-rule="nonzero" d="M 0 15 L 19.394531 15 L 19.394531 27.976562 L 0 27.976562 Z M 0 15 "/>
</clipPath>
<clipPath id="clip-5">
<path clip-rule="nonzero" d="M 0 6 L 16 6 L 16 27.976562 L 0 27.976562 Z M 0 6 "/>
</clipPath>
<clipPath id="clip-6">
<path clip-rule="nonzero" d="M 4 6 L 19.394531 6 L 19.394531 27.976562 L 4 27.976562 Z M 4 6 "/>
</clipPath>
<clipPath id="clip-7">
<path clip-rule="nonzero" d="M 0 6 L 19.394531 6 L 19.394531 26 L 0 26 Z M 0 6 "/>
</clipPath>
</defs>
<g clip-path="url(#clip-0)">
<path fill="none" stroke-width="0.59776" stroke-linecap="butt" stroke-linejoin="miter" stroke="rgb(0%, 0%, 0%)" stroke-opacity="1" stroke-miterlimit="10" d="M 2.549828 0.00188552 C 2.549828 0.469312 1.407682 0.851382 0.0013394 0.851382 C -1.409068 0.851382 -2.551214 0.469312 -2.551214 0.00188552 C -2.551214 -0.469605 -1.409068 -0.851675 0.0013394 -0.851675 C 1.407682 -0.851675 2.549828 -0.469605 2.549828 0.00188552 Z M 2.549828 0.00188552 " transform="matrix(0.961048, 0, 0, -0.961048, 9.697932, 4.384625)"/>
</g>
<g clip-path="url(#clip-1)">
<path fill="none" stroke-width="0.59776" stroke-linecap="butt" stroke-linejoin="miter" stroke="rgb(0%, 0%, 0%)" stroke-opacity="1" stroke-miterlimit="10" d="M -6.802759 -10.204262 C -6.802759 -5.887683 -2.551214 -4.314693 -2.551214 0.00188552 " transform="matrix(0.961048, 0, 0, -0.961048, 9.697932, 4.384625)"/>
</g>
<g clip-path="url(#clip-2)">
<path fill="none" stroke-width="0.59776" stroke-linecap="butt" stroke-linejoin="miter" stroke="rgb(0%, 0%, 0%)" stroke-opacity="1" stroke-miterlimit="10" d="M 6.801373 -10.204262 C 6.801373 -5.887683 2.549828 -4.314693 2.549828 0.00188552 " transform="matrix(0.961048, 0, 0, -0.961048, 9.697932, 4.384625)"/>
</g>
<g clip-path="url(#clip-3)">
<path fill="none" stroke-width="0.59776" stroke-linecap="butt" stroke-linejoin="miter" stroke="rgb(0%, 0%, 0%)" stroke-opacity="1" stroke-miterlimit="10" d="M -1.701717 -10.204262 C -1.701717 -6.127493 1.700332 -6.127493 1.700332 -10.204262 " transform="matrix(0.961048, 0, 0, -0.961048, 9.697932, 4.384625)"/>
</g>
<g clip-path="url(#clip-4)">
<path fill="none" stroke-width="0.59776" stroke-linecap="butt" stroke-linejoin="miter" stroke="rgb(0%, 0%, 0%)" stroke-opacity="1" stroke-miterlimit="10" d="M -2.551214 -20.410409 C -2.551214 -20.877836 -1.409068 -21.259906 0.0013394 -21.259906 C 1.407682 -21.259906 2.549828 -20.877836 2.549828 -20.410409 " transform="matrix(0.961048, 0, 0, -0.961048, 9.697932, 4.384625)"/>
<path fill="none" stroke-width="0.59776" stroke-linecap="butt" stroke-linejoin="miter" stroke="rgb(0%, 0%, 0%)" stroke-opacity="1" stroke-dasharray="1.79327 1.79327" stroke-miterlimit="10" d="M 2.549828 -20.410409 C 2.549828 -19.938919 1.407682 -19.560913 0.0013394 -19.560913 C -1.409068 -19.560913 -2.551214 -19.938919 -2.551214 -20.410409 " transform="matrix(0.961048, 0, 0, -0.961048, 9.697932, 4.384625)"/>
</g>
<g clip-path="url(#clip-5)">
<path fill="none" stroke-width="0.59776" stroke-linecap="butt" stroke-linejoin="miter" stroke="rgb(0%, 0%, 0%)" stroke-opacity="1" stroke-miterlimit="10" d="M -2.551214 -20.410409 C -2.551214 -16.093831 -6.802759 -14.52084 -6.802759 -10.204262 " transform="matrix(0.961048, 0, 0, -0.961048, 9.697932, 4.384625)"/>
</g>
<g clip-path="url(#clip-6)">
<path fill="none" stroke-width="0.59776" stroke-linecap="butt" stroke-linejoin="miter" stroke="rgb(0%, 0%, 0%)" stroke-opacity="1" stroke-miterlimit="10" d="M 2.549828 -20.410409 C 2.549828 -16.093831 6.801373 -14.52084 6.801373 -10.204262 " transform="matrix(0.961048, 0, 0, -0.961048, 9.697932, 4.384625)"/>
</g>
<g clip-path="url(#clip-7)">
<path fill="none" stroke-width="0.59776" stroke-linecap="butt" stroke-linejoin="miter" stroke="rgb(0%, 0%, 0%)" stroke-opacity="1" stroke-miterlimit="10" d="M -1.701717 -10.204262 C -1.701717 -14.281031 1.700332 -14.281031 1.700332 -10.204262 " transform="matrix(0.961048, 0, 0, -0.961048, 9.697932, 4.384625)"/>
</g>
</svg>
