<?xml version="1.0" encoding="UTF-8"?>
<svg xmlns="http://www.w3.org/2000/svg" xmlns:xlink="http://www.w3.org/1999/xlink" width="45.4125pt" height="21.5963pt" viewBox="0 0 36.33 17.277">
<defs>
<g>
<g id="glyph-0-0">
<path d="M 6.890625 -6.296875 C 6.890625 -6.34375 6.90625 -6.390625 6.90625 -6.4375 C 6.90625 -6.53125 6.859375 -6.53125 6.671875 -6.53125 L 2.640625 -6.53125 C 2.40625 -6.53125 2.40625 -6.515625 2.34375 -6.34375 L 1.8125 -4.625 C 1.796875 -4.578125 1.78125 -4.5 1.78125 -4.484375 C 1.78125 -4.46875 1.78125 -4.375 1.90625 -4.375 C 1.984375 -4.375 2.015625 -4.453125 2.03125 -4.46875 C 2.390625 -5.609375 2.890625 -6.234375 4.375 -6.234375 L 5.9375 -6.234375 L 0.59375 -0.265625 C 0.59375 -0.25 0.546875 -0.109375 0.546875 -0.09375 C 0.546875 0 0.625 0 0.796875 0 L 4.953125 0 C 5.1875 0 5.1875 -0.015625 5.25 -0.1875 L 5.921875 -2.296875 C 5.9375 -2.34375 5.96875 -2.40625 5.96875 -2.453125 C 5.96875 -2.5 5.921875 -2.546875 5.84375 -2.546875 C 5.75 -2.546875 5.75 -2.515625 5.6875 -2.3125 C 5.265625 -1.015625 4.796875 -0.328125 3.171875 -0.328125 L 1.546875 -0.328125 Z M 6.890625 -6.296875 "/>
</g>
<g id="glyph-1-0">
<path d="M 5.640625 -4.609375 C 5.640625 -4.640625 5.625 -4.703125 5.546875 -4.703125 C 5.5 -4.703125 5.484375 -4.6875 5.4375 -4.625 L 4.9375 -4.109375 C 4.875 -4.1875 4.5 -4.703125 3.6875 -4.703125 C 2.0625 -4.703125 0.46875 -3.265625 0.46875 -1.75 C 0.46875 -0.71875 1.25 0.140625 2.546875 0.140625 C 3.125 0.140625 3.75 -0.015625 4.09375 -0.390625 C 4.171875 -0.25 4.34375 0 4.421875 0 C 4.484375 0 4.5 -0.03125 4.53125 -0.171875 L 4.65625 -0.6875 C 4.6875 -0.8125 4.78125 -1.203125 4.8125 -1.296875 C 4.890625 -1.59375 4.890625 -1.59375 5.296875 -1.609375 C 5.34375 -1.609375 5.4375 -1.609375 5.4375 -1.75 C 5.4375 -1.8125 5.390625 -1.84375 5.34375 -1.84375 C 5.109375 -1.84375 4.828125 -1.8125 4.59375 -1.8125 C 4.4375 -1.8125 4.21875 -1.8125 4.046875 -1.828125 C 3.875 -1.828125 3.6875 -1.84375 3.515625 -1.84375 C 3.46875 -1.84375 3.375 -1.84375 3.375 -1.703125 C 3.375 -1.609375 3.4375 -1.609375 3.609375 -1.609375 C 3.734375 -1.609375 3.875 -1.609375 4 -1.59375 C 4.21875 -1.578125 4.21875 -1.546875 4.21875 -1.46875 C 4.21875 -1.4375 4.21875 -1.421875 4.171875 -1.25 C 4.125 -1.0625 4.046875 -0.765625 4.03125 -0.703125 C 3.828125 -0.28125 3.203125 -0.109375 2.6875 -0.109375 C 2.015625 -0.109375 1.140625 -0.421875 1.140625 -1.5625 C 1.140625 -2.28125 1.484375 -3.171875 1.96875 -3.671875 C 2.65625 -4.359375 3.375 -4.453125 3.75 -4.453125 C 4.53125 -4.453125 4.984375 -3.90625 4.984375 -3.15625 C 4.984375 -2.96875 4.96875 -2.921875 4.96875 -2.875 C 4.96875 -2.78125 5.046875 -2.78125 5.078125 -2.78125 C 5.1875 -2.78125 5.1875 -2.8125 5.21875 -2.9375 Z M 5.640625 -4.609375 "/>
</g>
<g id="glyph-2-0">
<path d="M 3.171875 2.296875 C 3.171875 2.265625 3.171875 2.25 3 2.078125 C 1.8125 0.875 1.5 -0.921875 1.5 -2.390625 C 1.5 -4.046875 1.859375 -5.71875 3.046875 -6.90625 C 3.171875 -7.03125 3.171875 -7.046875 3.171875 -7.078125 C 3.171875 -7.140625 3.125 -7.171875 3.0625 -7.171875 C 2.96875 -7.171875 2.109375 -6.515625 1.546875 -5.3125 C 1.0625 -4.25 0.953125 -3.1875 0.953125 -2.390625 C 0.953125 -1.640625 1.046875 -0.484375 1.578125 0.59375 C 2.15625 1.765625 2.96875 2.390625 3.0625 2.390625 C 3.125 2.390625 3.171875 2.359375 3.171875 2.296875 Z M 3.171875 2.296875 "/>
</g>
<g id="glyph-2-1">
<path d="M 2.765625 -2.390625 C 2.765625 -3.140625 2.65625 -4.296875 2.125 -5.375 C 1.5625 -6.546875 0.734375 -7.171875 0.640625 -7.171875 C 0.578125 -7.171875 0.546875 -7.140625 0.546875 -7.078125 C 0.546875 -7.046875 0.546875 -7.03125 0.734375 -6.859375 C 1.65625 -5.90625 2.203125 -4.390625 2.203125 -2.390625 C 2.203125 -0.75 1.859375 0.921875 0.671875 2.125 C 0.546875 2.25 0.546875 2.265625 0.546875 2.296875 C 0.546875 2.359375 0.578125 2.390625 0.640625 2.390625 C 0.734375 2.390625 1.59375 1.734375 2.15625 0.53125 C 2.65625 -0.53125 2.765625 -1.59375 2.765625 -2.390625 Z M 2.765625 -2.390625 "/>
</g>
</g>
<clipPath id="clip-0">
<path clip-rule="nonzero" d="M 12 1 L 35.277344 1 L 35.277344 16.582031 L 12 16.582031 Z M 12 1 "/>
</clipPath>
<clipPath id="clip-1">
<path clip-rule="nonzero" d="M 12 0 L 35.277344 0 L 35.277344 16.582031 L 12 16.582031 Z M 12 0 "/>
</clipPath>
</defs>
<g fill="rgb(0%, 0%, 0%)" fill-opacity="1">
<use xlink:href="#glyph-0-0" x="3.277025" y="11.324114"/>
</g>
<g fill="rgb(0%, 0%, 0%)" fill-opacity="1">
<use xlink:href="#glyph-1-0" x="9.804852" y="12.758105"/>
</g>
<g fill="rgb(0%, 0%, 0%)" fill-opacity="1">
<use xlink:href="#glyph-2-0" x="16.236695" y="11.324114"/>
</g>
<g clip-path="url(#clip-0)">
<path fill="none" stroke-width="0.59776" stroke-linecap="butt" stroke-linejoin="miter" stroke="rgb(0%, 0%, 0%)" stroke-opacity="1" stroke-miterlimit="10" d="M -4.251887 0.000311078 C -4.251887 -0.781075 -2.34726 -1.41595 0.000966921 -1.41595 C 2.349194 -1.41595 4.253821 -0.781075 4.253821 0.000311078 " transform="matrix(0.959833, 0, 0, -0.959833, 24.323291, 9.67608)"/>
</g>
<g clip-path="url(#clip-1)">
<path fill="none" stroke-width="0.59776" stroke-linecap="butt" stroke-linejoin="miter" stroke="rgb(0%, 0%, 0%)" stroke-opacity="1" stroke-dasharray="1.79327 1.79327" stroke-miterlimit="10" d="M 4.253821 0.000311078 C 4.253821 0.781697 2.349194 1.416573 0.000966921 1.416573 C -2.34726 1.416573 -4.251887 0.781697 -4.251887 0.000311078 " transform="matrix(0.959833, 0, 0, -0.959833, 24.323291, 9.67608)"/>
<path fill="none" stroke-width="0.59776" stroke-linecap="butt" stroke-linejoin="miter" stroke="rgb(0%, 0%, 0%)" stroke-opacity="1" stroke-miterlimit="10" d="M -4.251887 0.000311078 C -4.251887 6.792669 4.253821 6.792669 4.253821 0.000311078 " transform="matrix(0.959833, 0, 0, -0.959833, 24.323291, 9.67608)"/>
</g>
<g fill="rgb(0%, 0%, 0%)" fill-opacity="1">
<use xlink:href="#glyph-2-1" x="28.691492" y="11.324114"/>
</g>
</svg>
