<?xml version="1.0" encoding="UTF-8"?>
<svg xmlns="http://www.w3.org/2000/svg" xmlns:xlink="http://www.w3.org/1999/xlink" width="93.5088pt" height="79.3337pt" viewBox="0 0 74.807 63.467">
<defs>
<g>
<g id="glyph-0-0">
<path d="M 6.375 -6.859375 C 6.375 -6.890625 6.34375 -6.96875 6.265625 -6.96875 C 6.21875 -6.96875 6.203125 -6.953125 6.078125 -6.8125 L 5.609375 -6.25 C 5.359375 -6.71875 4.84375 -6.96875 4.203125 -6.96875 C 2.9375 -6.96875 1.75 -5.828125 1.75 -4.625 C 1.75 -3.828125 2.28125 -3.375 2.78125 -3.234375 L 3.84375 -2.953125 C 4.203125 -2.859375 4.75 -2.71875 4.75 -1.90625 C 4.75 -1.015625 3.9375 -0.09375 2.96875 -0.09375 C 2.34375 -0.09375 1.25 -0.3125 1.25 -1.53125 C 1.25 -1.765625 1.296875 -2 1.296875 -2.0625 C 1.3125 -2.109375 1.328125 -2.109375 1.328125 -2.140625 C 1.328125 -2.234375 1.25 -2.234375 1.203125 -2.234375 C 1.15625 -2.234375 1.140625 -2.234375 1.109375 -2.203125 C 1.0625 -2.15625 0.515625 0.09375 0.515625 0.125 C 0.515625 0.171875 0.5625 0.21875 0.625 0.21875 C 0.671875 0.21875 0.6875 0.203125 0.796875 0.0625 L 1.28125 -0.5 C 1.703125 0.078125 2.375 0.21875 2.953125 0.21875 C 4.296875 0.21875 5.453125 -1.09375 5.453125 -2.328125 C 5.453125 -3 5.125 -3.34375 4.984375 -3.46875 C 4.75 -3.703125 4.609375 -3.75 3.71875 -3.96875 C 3.5 -4.03125 3.15625 -4.125 3.0625 -4.140625 C 2.796875 -4.234375 2.453125 -4.515625 2.453125 -5.046875 C 2.453125 -5.84375 3.25 -6.6875 4.1875 -6.6875 C 5 -6.6875 5.609375 -6.265625 5.609375 -5.15625 C 5.609375 -4.84375 5.5625 -4.65625 5.5625 -4.609375 C 5.5625 -4.59375 5.5625 -4.5 5.6875 -4.5 C 5.78125 -4.5 5.796875 -4.53125 5.84375 -4.703125 Z M 6.375 -6.859375 "/>
</g>
</g>
<clipPath id="clip-0">
<path clip-rule="nonzero" d="M 0.214844 0 L 38 0 L 38 62.9375 L 0.214844 62.9375 Z M 0.214844 0 "/>
</clipPath>
<clipPath id="clip-1">
<path clip-rule="nonzero" d="M 0.214844 0 L 74.398438 0 L 74.398438 62.9375 L 0.214844 62.9375 Z M 0.214844 0 "/>
</clipPath>
</defs>
<g clip-path="url(#clip-0)">
<path fill="none" stroke-width="0.79701" stroke-linecap="butt" stroke-linejoin="miter" stroke="rgb(0%, 0%, 0%)" stroke-opacity="1" stroke-miterlimit="10" d="M 0.00185736 170.081352 C 9.392564 170.081352 17.006758 167.540661 17.006758 164.413052 C 17.006758 161.281503 9.392564 158.740813 0.00185736 158.740813 L 0.00185736 113.386534 " transform="matrix(0.991672, 0, 0, -0.991672, 9.197377, 172.020362)"/>
</g>
<g clip-path="url(#clip-1)">
<path fill="none" stroke-width="0.79701" stroke-linecap="butt" stroke-linejoin="miter" stroke="rgb(0%, 0%, 0%)" stroke-opacity="1" stroke-miterlimit="10" d="M 56.692736 170.081352 C 47.302029 170.081352 39.683897 167.540661 39.683897 164.413052 C 39.683897 161.281503 47.302029 158.740813 56.692736 158.740813 L 62.364975 158.740813 L 62.364975 113.386534 L 0.00185736 113.386534 " transform="matrix(0.991672, 0, 0, -0.991672, 9.197377, 172.020362)"/>
</g>
<path fill="none" stroke-width="0.79701" stroke-linecap="butt" stroke-linejoin="miter" stroke="rgb(0%, 0%, 0%)" stroke-opacity="1" stroke-miterlimit="10" d="M 56.692736 170.081352 L 56.692736 158.740813 " transform="matrix(0.991672, 0, 0, -0.991672, 9.197377, 172.020362)"/>
<path fill="none" stroke-width="0.79701" stroke-linecap="butt" stroke-linejoin="miter" stroke="rgb(0%, 0%, 0%)" stroke-opacity="1" stroke-dasharray="2.98883 1.99255" stroke-miterlimit="10" d="M 56.692736 158.740813 L 56.692736 124.727073 L 0.00185736 124.727073 " transform="matrix(0.991672, 0, 0, -0.991672, 9.197377, 172.020362)"/>
<path fill="none" stroke-width="0.79701" stroke-linecap="butt" stroke-linejoin="miter" stroke="rgb(0%, 0%, 0%)" stroke-opacity="1" stroke-miterlimit="10" d="M 17.006758 164.413052 C 17.006758 155.018406 22.084199 147.404213 28.347297 147.404213 C 34.610394 147.404213 39.683897 155.018406 39.683897 164.413052 " transform="matrix(0.991672, 0, 0, -0.991672, 9.197377, 172.020362)"/>
<path fill="none" stroke-width="0.79701" stroke-linecap="butt" stroke-linejoin="miter" stroke="rgb(0%, 0%, 0%)" stroke-opacity="1" stroke-miterlimit="10" d="M 0.00185736 170.081352 L -5.670382 170.081352 L -5.670382 124.727073 L 0.00185736 124.727073 " transform="matrix(0.991672, 0, 0, -0.991672, 9.197377, 172.020362)"/>
<g fill="rgb(0%, 0%, 0%)" fill-opacity="1">
<use xlink:href="#glyph-0-0" x="33.994132" y="43.277552"/>
</g>
</svg>
