<?xml version="1.0" encoding="UTF-8"?>
<svg xmlns="http://www.w3.org/2000/svg" xmlns:xlink="http://www.w3.org/1999/xlink" width="270.424pt" height="59.2125pt" viewBox="0 0 216.339 47.37">
<defs>
<clipPath id="clip-0">
<path clip-rule="nonzero" d="M 1.09375 0 L 52 0 L 52 46.75 L 1.09375 46.75 Z M 1.09375 0 "/>
</clipPath>
<clipPath id="clip-1">
<path clip-rule="nonzero" d="M 79 0 L 136 0 L 136 46.75 L 79 46.75 Z M 79 0 "/>
</clipPath>
<clipPath id="clip-2">
<path clip-rule="nonzero" d="M 163 0 L 214.59375 0 L 214.59375 46.75 L 163 46.75 Z M 163 0 "/>
</clipPath>
</defs>
<path fill-rule="nonzero" fill="rgb(100%, 98.214722%, 65.000916%)" fill-opacity="1" d="M 43.503906 23.921875 C 43.503906 13.105469 34.734375 4.339844 23.921875 4.339844 C 13.105469 4.339844 4.335938 13.105469 4.335938 23.921875 C 4.335938 34.738281 13.105469 43.503906 23.921875 43.503906 C 34.734375 43.503906 43.503906 34.738281 43.503906 23.921875 Z M 43.503906 23.921875 "/>
<g clip-path="url(#clip-0)">
<path fill="none" stroke-width="0.59776" stroke-linecap="butt" stroke-linejoin="miter" stroke="rgb(0%, 0%, 0%)" stroke-opacity="1" stroke-miterlimit="10" d="M 19.844383 -0.0000253325 C 19.844383 10.960234 10.95822 19.842438 0.00191894 19.842438 C -10.958341 19.842438 -19.844503 10.960234 -19.844503 -0.0000253325 C -19.844503 -10.960285 -10.958341 -19.842489 0.00191894 -19.842489 C 10.95822 -19.842489 19.844383 -10.960285 19.844383 -0.0000253325 Z M 19.844383 -0.0000253325 " transform="matrix(0.986875, 0, 0, -0.986875, 23.919981, 23.92185)"/>
</g>
<path fill-rule="nonzero" fill="rgb(0%, 0%, 0%)" fill-opacity="1" d="M 25.308594 4.339844 C 25.308594 3.570312 24.6875 2.949219 23.921875 2.949219 C 23.152344 2.949219 22.53125 3.570312 22.53125 4.339844 C 22.53125 5.109375 23.152344 5.730469 23.921875 5.730469 C 24.6875 5.730469 25.308594 5.109375 25.308594 4.339844 Z M 25.308594 4.339844 "/>
<path fill-rule="nonzero" fill="rgb(100%, 98.214722%, 65.000916%)" fill-opacity="1" d="M 127.425781 23.921875 C 127.425781 13.105469 118.660156 4.339844 107.84375 4.339844 C 97.027344 4.339844 88.261719 13.105469 88.261719 23.921875 C 88.261719 34.738281 97.027344 43.503906 107.84375 43.503906 C 118.660156 43.503906 127.425781 34.738281 127.425781 23.921875 Z M 127.425781 23.921875 "/>
<g clip-path="url(#clip-1)">
<path fill="none" stroke-width="0.59776" stroke-linecap="butt" stroke-linejoin="miter" stroke="rgb(0%, 0%, 0%)" stroke-opacity="1" stroke-miterlimit="10" d="M 104.882381 -0.0000253325 C 104.882381 10.960234 96.000177 19.842438 85.039918 19.842438 C 74.079658 19.842438 65.197454 10.960234 65.197454 -0.0000253325 C 65.197454 -10.960285 74.079658 -19.842489 85.039918 -19.842489 C 96.000177 -19.842489 104.882381 -10.960285 104.882381 -0.0000253325 Z M 104.882381 -0.0000253325 " transform="matrix(0.986875, 0, 0, -0.986875, 23.919981, 23.92185)"/>
</g>
<path fill-rule="nonzero" fill="rgb(0%, 0%, 0%)" fill-opacity="1" d="M 109.234375 23.921875 C 109.234375 23.152344 108.613281 22.53125 107.84375 22.53125 C 107.078125 22.53125 106.453125 23.152344 106.453125 23.921875 C 106.453125 24.691406 107.078125 25.3125 107.84375 25.3125 C 108.613281 25.3125 109.234375 24.691406 109.234375 23.921875 Z M 109.234375 23.921875 "/>
<path fill-rule="nonzero" fill="rgb(0%, 0%, 0%)" fill-opacity="1" d="M 109.234375 4.339844 C 109.234375 3.570312 108.613281 2.949219 107.84375 2.949219 C 107.078125 2.949219 106.453125 3.570312 106.453125 4.339844 C 106.453125 5.109375 107.078125 5.730469 107.84375 5.730469 C 108.613281 5.730469 109.234375 5.109375 109.234375 4.339844 Z M 109.234375 4.339844 "/>
<path fill="none" stroke-width="0.59776" stroke-linecap="butt" stroke-linejoin="miter" stroke="rgb(0%, 0%, 0%)" stroke-opacity="1" stroke-miterlimit="10" d="M 85.039918 1.705959 L 85.039918 18.136453 " transform="matrix(0.986875, 0, 0, -0.986875, 23.919981, 23.92185)"/>
<path fill-rule="evenodd" fill="rgb(100%, 98.214722%, 65.000916%)" fill-opacity="1" d="M 200.160156 23.921875 C 200.160156 19.285156 196.402344 15.53125 191.769531 15.53125 C 187.132812 15.53125 183.375 19.285156 183.375 23.921875 C 183.375 28.558594 187.132812 32.3125 191.769531 32.3125 C 196.402344 32.3125 200.160156 28.558594 200.160156 23.921875 Z M 211.351562 23.921875 C 211.351562 13.105469 202.582031 4.339844 191.769531 4.339844 C 180.953125 4.339844 172.1875 13.105469 172.1875 23.921875 C 172.1875 34.738281 180.953125 43.503906 191.769531 43.503906 C 202.582031 43.503906 211.351562 34.738281 211.351562 23.921875 Z M 211.351562 23.921875 "/>
<g clip-path="url(#clip-2)">
<path fill="none" stroke-width="0.59776" stroke-linecap="butt" stroke-linejoin="miter" stroke="rgb(0%, 0%, 0%)" stroke-opacity="1" stroke-miterlimit="10" d="M 178.584091 -0.0000253325 C 178.584091 4.69836 174.776301 8.502191 170.081875 8.502191 C 165.38349 8.502191 161.5757 4.69836 161.5757 -0.0000253325 C 161.5757 -4.69841 165.38349 -8.502242 170.081875 -8.502242 C 174.776301 -8.502242 178.584091 -4.69841 178.584091 -0.0000253325 Z M 189.924338 -0.0000253325 C 189.924338 10.960234 181.038176 19.842438 170.081875 19.842438 C 159.121615 19.842438 150.239411 10.960234 150.239411 -0.0000253325 C 150.239411 -10.960285 159.121615 -19.842489 170.081875 -19.842489 C 181.038176 -19.842489 189.924338 -10.960285 189.924338 -0.0000253325 Z M 189.924338 -0.0000253325 " transform="matrix(0.986875, 0, 0, -0.986875, 23.919981, 23.92185)"/>
</g>
<path fill-rule="nonzero" fill="rgb(0%, 0%, 0%)" fill-opacity="1" d="M 193.160156 15.53125 C 193.160156 14.761719 192.535156 14.140625 191.769531 14.140625 C 191 14.140625 190.378906 14.761719 190.378906 15.53125 C 190.378906 16.296875 191 16.917969 191.769531 16.917969 C 192.535156 16.917969 193.160156 16.296875 193.160156 15.53125 Z M 193.160156 15.53125 "/>
<path fill-rule="nonzero" fill="rgb(0%, 0%, 0%)" fill-opacity="1" d="M 193.160156 4.339844 C 193.160156 3.570312 192.535156 2.949219 191.769531 2.949219 C 191 2.949219 190.378906 3.570312 190.378906 4.339844 C 190.378906 5.109375 191 5.730469 191.769531 5.730469 C 192.535156 5.730469 193.160156 5.109375 193.160156 4.339844 Z M 193.160156 4.339844 "/>
<path fill="none" stroke-width="0.59776" stroke-linecap="butt" stroke-linejoin="miter" stroke="rgb(0%, 0%, 0%)" stroke-opacity="1" stroke-miterlimit="10" d="M 170.081875 8.502191 L 170.081875 19.842438 " transform="matrix(0.986875, 0, 0, -0.986875, 23.919981, 23.92185)"/>
</svg>
