<?xml version="1.0" encoding="UTF-8"?>
<svg xmlns="http://www.w3.org/2000/svg" xmlns:xlink="http://www.w3.org/1999/xlink" width="120.672pt" height="22.2462pt" viewBox="0 0 96.538 17.797">
<defs>
<g>
<g id="glyph-0-0">
<path d="M 7.09375 -6.484375 C 7.09375 -6.53125 7.109375 -6.578125 7.109375 -6.640625 C 7.109375 -6.71875 7.0625 -6.71875 6.875 -6.71875 L 2.71875 -6.71875 C 2.484375 -6.71875 2.46875 -6.71875 2.40625 -6.53125 L 1.875 -4.75 C 1.84375 -4.703125 1.84375 -4.640625 1.84375 -4.609375 C 1.84375 -4.609375 1.84375 -4.515625 1.953125 -4.515625 C 2.046875 -4.515625 2.0625 -4.578125 2.09375 -4.609375 C 2.46875 -5.765625 2.96875 -6.421875 4.515625 -6.421875 L 6.109375 -6.421875 L 0.609375 -0.265625 C 0.609375 -0.25 0.578125 -0.125 0.578125 -0.09375 C 0.578125 0 0.640625 0 0.8125 0 L 5.09375 0 C 5.328125 0 5.34375 -0.015625 5.40625 -0.203125 L 6.109375 -2.375 C 6.109375 -2.40625 6.140625 -2.484375 6.140625 -2.515625 C 6.140625 -2.5625 6.109375 -2.625 6.015625 -2.625 C 5.921875 -2.625 5.921875 -2.59375 5.84375 -2.375 C 5.421875 -1.046875 4.9375 -0.328125 3.265625 -0.328125 L 1.578125 -0.328125 Z M 7.09375 -6.484375 "/>
</g>
<g id="glyph-0-1">
<path d="M 6.1875 -5.59375 C 6.671875 -6.375 7.078125 -6.40625 7.4375 -6.421875 C 7.5625 -6.421875 7.5625 -6.59375 7.5625 -6.609375 C 7.5625 -6.6875 7.515625 -6.71875 7.4375 -6.71875 C 7.1875 -6.71875 6.90625 -6.6875 6.640625 -6.6875 C 6.3125 -6.6875 5.96875 -6.71875 5.65625 -6.71875 C 5.59375 -6.71875 5.46875 -6.71875 5.46875 -6.53125 C 5.46875 -6.421875 5.5625 -6.421875 5.625 -6.421875 C 5.890625 -6.40625 6.078125 -6.296875 6.078125 -6.09375 C 6.078125 -5.953125 5.9375 -5.734375 5.9375 -5.71875 L 2.90625 -0.921875 L 2.25 -6.125 C 2.25 -6.296875 2.46875 -6.421875 2.921875 -6.421875 C 3.0625 -6.421875 3.171875 -6.421875 3.171875 -6.609375 C 3.171875 -6.703125 3.09375 -6.71875 3.03125 -6.71875 C 2.640625 -6.71875 2.21875 -6.6875 1.8125 -6.6875 C 1.640625 -6.6875 1.453125 -6.703125 1.265625 -6.703125 C 1.09375 -6.703125 0.90625 -6.71875 0.734375 -6.71875 C 0.671875 -6.71875 0.546875 -6.71875 0.546875 -6.53125 C 0.546875 -6.421875 0.640625 -6.421875 0.796875 -6.421875 C 1.34375 -6.421875 1.359375 -6.328125 1.390625 -6.078125 L 2.171875 -0.015625 C 2.1875 0.1875 2.234375 0.21875 2.359375 0.21875 C 2.515625 0.21875 2.5625 0.171875 2.640625 0.046875 Z M 6.1875 -5.59375 "/>
</g>
<g id="glyph-1-0">
<path d="M 1.421875 -0.828125 C 1.171875 -0.453125 0.953125 -0.28125 0.546875 -0.25 C 0.484375 -0.234375 0.390625 -0.234375 0.390625 -0.109375 C 0.390625 -0.03125 0.453125 0 0.484375 0 C 0.671875 0 0.890625 -0.03125 1.078125 -0.03125 C 1.296875 -0.03125 1.578125 0 1.796875 0 C 1.828125 0 1.921875 0 1.921875 -0.15625 C 1.921875 -0.234375 1.84375 -0.25 1.8125 -0.25 C 1.75 -0.25 1.515625 -0.265625 1.515625 -0.453125 C 1.515625 -0.53125 1.578125 -0.65625 1.609375 -0.71875 L 2.15625 -1.578125 L 4.140625 -1.578125 L 4.296875 -0.421875 C 4.265625 -0.359375 4.234375 -0.25 3.828125 -0.25 C 3.734375 -0.25 3.640625 -0.25 3.640625 -0.09375 C 3.640625 -0.0625 3.671875 0 3.75 0 C 3.953125 0 4.4375 -0.03125 4.640625 -0.03125 C 4.765625 -0.03125 4.921875 -0.015625 5.046875 -0.015625 C 5.171875 -0.015625 5.3125 0 5.4375 0 C 5.53125 0 5.578125 -0.0625 5.578125 -0.140625 C 5.578125 -0.25 5.5 -0.25 5.390625 -0.25 C 4.984375 -0.25 4.96875 -0.296875 4.953125 -0.46875 L 4.34375 -4.71875 C 4.328125 -4.859375 4.3125 -4.90625 4.1875 -4.90625 C 4.046875 -4.90625 4.015625 -4.84375 3.953125 -4.75 Z M 2.328125 -1.8125 L 3.78125 -4.078125 L 4.09375 -1.8125 Z M 2.328125 -1.8125 "/>
</g>
<g id="glyph-2-0">
<path d="M 3.265625 2.359375 C 3.265625 2.328125 3.265625 2.3125 3.09375 2.140625 C 1.859375 0.90625 1.546875 -0.953125 1.546875 -2.46875 C 1.546875 -4.171875 1.921875 -5.890625 3.125 -7.109375 C 3.265625 -7.234375 3.265625 -7.25 3.265625 -7.28125 C 3.265625 -7.359375 3.21875 -7.390625 3.15625 -7.390625 C 3.0625 -7.390625 2.171875 -6.71875 1.59375 -5.46875 C 1.09375 -4.375 0.96875 -3.28125 0.96875 -2.46875 C 0.96875 -1.6875 1.078125 -0.5 1.625 0.609375 C 2.21875 1.828125 3.0625 2.46875 3.15625 2.46875 C 3.21875 2.46875 3.265625 2.4375 3.265625 2.359375 Z M 3.265625 2.359375 "/>
</g>
<g id="glyph-2-1">
<path d="M 2.84375 -2.46875 C 2.84375 -3.234375 2.734375 -4.421875 2.1875 -5.53125 C 1.609375 -6.75 0.765625 -7.390625 0.65625 -7.390625 C 0.59375 -7.390625 0.5625 -7.34375 0.5625 -7.28125 C 0.5625 -7.25 0.5625 -7.234375 0.75 -7.0625 C 1.71875 -6.078125 2.28125 -4.515625 2.28125 -2.46875 C 2.28125 -0.78125 1.90625 0.953125 0.6875 2.1875 C 0.5625 2.3125 0.5625 2.328125 0.5625 2.359375 C 0.5625 2.421875 0.59375 2.46875 0.65625 2.46875 C 0.765625 2.46875 1.640625 1.796875 2.21875 0.546875 C 2.734375 -0.546875 2.84375 -1.640625 2.84375 -2.46875 Z M 2.84375 -2.46875 "/>
</g>
<g id="glyph-2-2">
<path d="M 1.890625 -3.71875 C 1.890625 -4 1.65625 -4.25 1.375 -4.25 C 1.078125 -4.25 0.84375 -4 0.84375 -3.71875 C 0.84375 -3.4375 1.078125 -3.203125 1.375 -3.203125 C 1.65625 -3.203125 1.890625 -3.4375 1.890625 -3.71875 Z M 1.890625 -0.515625 C 1.890625 -0.8125 1.65625 -1.046875 1.375 -1.046875 C 1.078125 -1.046875 0.84375 -0.8125 0.84375 -0.515625 C 0.84375 -0.234375 1.078125 0 1.375 0 C 1.65625 0 1.890625 -0.234375 1.890625 -0.515625 Z M 1.890625 -0.515625 "/>
</g>
<g id="glyph-3-0">
<path d="M 7.109375 -2.46875 C 7.109375 -4.265625 5.625 -5.734375 3.828125 -5.734375 C 2 -5.734375 0.546875 -4.25 0.546875 -2.46875 C 0.546875 -0.65625 2.015625 0.8125 3.8125 0.8125 C 5.65625 0.8125 7.109375 -0.671875 7.109375 -2.46875 Z M 1.875 -4.578125 C 1.84375 -4.59375 1.78125 -4.671875 1.78125 -4.6875 C 1.78125 -4.71875 2.578125 -5.5 3.8125 -5.5 C 4.15625 -5.5 5.0625 -5.4375 5.875 -4.6875 L 3.828125 -2.625 Z M 1.578125 -0.40625 C 0.984375 -1.078125 0.78125 -1.828125 0.78125 -2.46875 C 0.78125 -3.21875 1.078125 -3.9375 1.578125 -4.515625 L 3.640625 -2.46875 Z M 6.046875 -4.515625 C 6.53125 -4.015625 6.859375 -3.265625 6.859375 -2.46875 C 6.859375 -1.703125 6.578125 -0.984375 6.0625 -0.40625 L 4 -2.46875 Z M 5.78125 -0.34375 C 5.796875 -0.328125 5.859375 -0.25 5.859375 -0.234375 C 5.859375 -0.203125 5.0625 0.578125 3.828125 0.578125 C 3.484375 0.578125 2.578125 0.515625 1.765625 -0.234375 L 3.8125 -2.296875 Z M 5.78125 -0.34375 "/>
</g>
<g id="glyph-3-1">
<path d="M 8.203125 -2.265625 C 7.671875 -1.84375 7.40625 -1.453125 7.328125 -1.3125 C 6.875 -0.640625 6.796875 -0.015625 6.796875 -0.015625 C 6.796875 0.109375 6.921875 0.109375 7 0.109375 C 7.171875 0.109375 7.171875 0.09375 7.21875 -0.09375 C 7.4375 -1.046875 8.015625 -1.875 9.140625 -2.328125 C 9.25 -2.375 9.28125 -2.390625 9.28125 -2.46875 C 9.28125 -2.53125 9.21875 -2.5625 9.203125 -2.5625 C 8.765625 -2.734375 7.578125 -3.234375 7.203125 -4.875 C 7.171875 -5 7.171875 -5.03125 7 -5.03125 C 6.921875 -5.03125 6.796875 -5.03125 6.796875 -4.90625 C 6.796875 -4.890625 6.890625 -4.265625 7.296875 -3.609375 C 7.5 -3.3125 7.78125 -2.96875 8.203125 -2.65625 L 0.890625 -2.65625 C 0.71875 -2.65625 0.546875 -2.65625 0.546875 -2.46875 C 0.546875 -2.265625 0.71875 -2.265625 0.890625 -2.265625 Z M 8.203125 -2.265625 "/>
</g>
</g>
<clipPath id="clip-0">
<path clip-rule="nonzero" d="M 15 2 L 36 2 L 36 17.597656 L 15 17.597656 Z M 15 2 "/>
</clipPath>
<clipPath id="clip-1">
<path clip-rule="nonzero" d="M 12 0 L 32 0 L 32 17.597656 L 12 17.597656 Z M 12 0 "/>
</clipPath>
<clipPath id="clip-2">
<path clip-rule="nonzero" d="M 18 0 L 39 0 L 39 17.597656 L 18 17.597656 Z M 18 0 "/>
</clipPath>
</defs>
<g fill="rgb(0%, 0%, 0%)" fill-opacity="1">
<use xlink:href="#glyph-0-0" x="3.271263" y="12.17908"/>
</g>
<g fill="rgb(0%, 0%, 0%)" fill-opacity="1">
<use xlink:href="#glyph-1-0" x="9.995563" y="13.656231"/>
</g>
<g fill="rgb(0%, 0%, 0%)" fill-opacity="1">
<use xlink:href="#glyph-2-0" x="16.411381" y="12.17908"/>
</g>
<path fill="none" stroke-width="0.59776" stroke-linecap="butt" stroke-linejoin="miter" stroke="rgb(0%, 0%, 0%)" stroke-opacity="1" stroke-miterlimit="10" d="M 1.872177 -0.000298253 C 1.872177 0.343422 1.034606 0.623929 -0.000505338 0.623929 C -1.031666 0.623929 -1.869237 0.343422 -1.869237 -0.000298253 C -1.869237 -0.344018 -1.031666 -0.624526 -0.000505338 -0.624526 C 1.034606 -0.624526 1.872177 -0.344018 1.872177 -0.000298253 Z M 1.872177 -0.000298253 " transform="matrix(0.988722, 0, 0, -0.988722, 22.387218, 3.866893)"/>
<path fill="none" stroke-width="0.59776" stroke-linecap="butt" stroke-linejoin="miter" stroke="rgb(0%, 0%, 0%)" stroke-opacity="1" stroke-miterlimit="10" d="M 8.106549 -0.000298253 C 8.106549 0.343422 7.268978 0.623929 6.237818 0.623929 C 5.202707 0.623929 4.365136 0.343422 4.365136 -0.000298253 C 4.365136 -0.344018 5.202707 -0.624526 6.237818 -0.624526 C 7.268978 -0.624526 8.106549 -0.344018 8.106549 -0.000298253 Z M 8.106549 -0.000298253 " transform="matrix(0.988722, 0, 0, -0.988722, 22.387218, 3.866893)"/>
<g clip-path="url(#clip-0)">
<path fill="none" stroke-width="0.59776" stroke-linecap="butt" stroke-linejoin="miter" stroke="rgb(0%, 0%, 0%)" stroke-opacity="1" stroke-miterlimit="10" d="M 1.247949 -7.483125 C 1.247949 -7.826846 2.08552 -8.107353 3.116681 -8.107353 C 4.151792 -8.107353 4.989363 -7.826846 4.989363 -7.483125 " transform="matrix(0.988722, 0, 0, -0.988722, 22.387218, 3.866893)"/>
<path fill="none" stroke-width="0.59776" stroke-linecap="butt" stroke-linejoin="miter" stroke="rgb(0%, 0%, 0%)" stroke-opacity="1" stroke-dasharray="1.79327 1.79327" stroke-miterlimit="10" d="M 4.989363 -7.483125 C 4.989363 -7.139405 4.151792 -6.858898 3.116681 -6.858898 C 2.08552 -6.858898 1.247949 -7.139405 1.247949 -7.483125 " transform="matrix(0.988722, 0, 0, -0.988722, 22.387218, 3.866893)"/>
</g>
<g clip-path="url(#clip-1)">
<path fill="none" stroke-width="0.59776" stroke-linecap="butt" stroke-linejoin="miter" stroke="rgb(0%, 0%, 0%)" stroke-opacity="1" stroke-miterlimit="10" d="M 1.247949 -7.483125 C 1.247949 -4.31853 -1.869237 -3.164894 -1.869237 -0.000298253 " transform="matrix(0.988722, 0, 0, -0.988722, 22.387218, 3.866893)"/>
</g>
<g clip-path="url(#clip-2)">
<path fill="none" stroke-width="0.59776" stroke-linecap="butt" stroke-linejoin="miter" stroke="rgb(0%, 0%, 0%)" stroke-opacity="1" stroke-miterlimit="10" d="M 4.989363 -7.483125 C 4.989363 -4.31853 8.106549 -3.164894 8.106549 -0.000298253 " transform="matrix(0.988722, 0, 0, -0.988722, 22.387218, 3.866893)"/>
</g>
<path fill="none" stroke-width="0.59776" stroke-linecap="butt" stroke-linejoin="miter" stroke="rgb(0%, 0%, 0%)" stroke-opacity="1" stroke-miterlimit="10" d="M 1.872177 -0.000298253 C 1.872177 -2.987108 4.365136 -2.987108 4.365136 -0.000298253 " transform="matrix(0.988722, 0, 0, -0.988722, 22.387218, 3.866893)"/>
<g fill="rgb(0%, 0%, 0%)" fill-opacity="1">
<use xlink:href="#glyph-2-1" x="30.699406" y="12.17908"/>
</g>
<g fill="rgb(0%, 0%, 0%)" fill-opacity="1">
<use xlink:href="#glyph-2-2" x="35.623543" y="12.17908"/>
</g>
<g fill="rgb(0%, 0%, 0%)" fill-opacity="1">
<use xlink:href="#glyph-0-1" x="41.643572" y="12.17908"/>
</g>
<g fill="rgb(0%, 0%, 0%)" fill-opacity="1">
<use xlink:href="#glyph-3-0" x="51.767099" y="12.17908"/>
</g>
<g fill="rgb(0%, 0%, 0%)" fill-opacity="1">
<use xlink:href="#glyph-0-1" x="61.617739" y="12.17908"/>
</g>
<g fill="rgb(0%, 0%, 0%)" fill-opacity="1">
<use xlink:href="#glyph-3-1" x="72.289018" y="12.17908"/>
</g>
<g fill="rgb(0%, 0%, 0%)" fill-opacity="1">
<use xlink:href="#glyph-0-1" x="84.875452" y="12.17908"/>
</g>
</svg>
