<?xml version="1.0" encoding="UTF-8"?>
<svg xmlns="http://www.w3.org/2000/svg" xmlns:xlink="http://www.w3.org/1999/xlink" width="81.8613pt" height="43.7475pt" viewBox="0 0 65.489 34.998">
<defs>
<clipPath id="clip-0">
<path clip-rule="nonzero" d="M 0 0.132812 L 64.980469 0.132812 L 64.980469 34.863281 L 0 34.863281 Z M 0 0.132812 "/>
</clipPath>
</defs>
<path fill-rule="nonzero" fill="rgb(100%, 98.214722%, 65.000916%)" fill-opacity="1" d="M 4.363281 17.496094 C 21.167969 3.398438 43.8125 3.398438 60.617188 17.496094 C 43.8125 31.597656 21.167969 31.597656 4.363281 17.496094 "/>
<g clip-path="url(#clip-0)">
<path fill="none" stroke-width="0.59776" stroke-linecap="butt" stroke-linejoin="miter" stroke="rgb(0%, 0%, 0%)" stroke-opacity="1" stroke-miterlimit="10" d="M -0.000672777 0.00192893 C 16.935139 14.209587 39.756362 14.209587 56.692174 0.00192893 C 39.756362 -14.209666 16.935139 -14.209666 -0.000672777 0.00192893 " transform="matrix(0.992258, 0, 0, -0.992258, 4.363949, 17.498008)"/>
</g>
<path fill-rule="nonzero" fill="rgb(0%, 0%, 0%)" fill-opacity="1" d="M 5.761719 17.496094 C 5.761719 16.726562 5.136719 16.101562 4.363281 16.101562 C 3.589844 16.101562 2.964844 16.726562 2.964844 17.496094 C 2.964844 18.269531 3.589844 18.894531 4.363281 18.894531 C 5.136719 18.894531 5.761719 18.269531 5.761719 17.496094 Z M 5.761719 17.496094 "/>
<path fill-rule="nonzero" fill="rgb(0%, 0%, 0%)" fill-opacity="1" d="M 62.015625 17.496094 C 62.015625 16.726562 61.390625 16.101562 60.617188 16.101562 C 59.847656 16.101562 59.21875 16.726562 59.21875 17.496094 C 59.21875 18.269531 59.847656 18.894531 60.617188 18.894531 C 61.390625 18.894531 62.015625 18.269531 62.015625 17.496094 Z M 62.015625 17.496094 "/>
</svg>
