<?xml version="1.0" encoding="UTF-8"?>
<svg xmlns="http://www.w3.org/2000/svg" xmlns:xlink="http://www.w3.org/1999/xlink" width="147.007pt" height="165.602pt" viewBox="0 0 117.606 132.482">
<defs>
<g>
<g id="glyph-0-0">
<path d="M 6.8125 -3.25 C 6.96875 -3.25 7.15625 -3.25 7.15625 -3.4375 C 7.15625 -3.640625 6.96875 -3.640625 6.828125 -3.640625 L 0.890625 -3.640625 C 0.75 -3.640625 0.5625 -3.640625 0.5625 -3.4375 C 0.5625 -3.25 0.75 -3.25 0.890625 -3.25 Z M 6.828125 -1.3125 C 6.96875 -1.3125 7.15625 -1.3125 7.15625 -1.515625 C 7.15625 -1.71875 6.96875 -1.71875 6.8125 -1.71875 L 0.890625 -1.71875 C 0.75 -1.71875 0.5625 -1.71875 0.5625 -1.515625 C 0.5625 -1.3125 0.75 -1.3125 0.890625 -1.3125 Z M 6.828125 -1.3125 "/>
</g>
<g id="glyph-0-1">
<path d="M 3.765625 -0.546875 L 3.765625 0.109375 L 5.234375 0 L 5.234375 -0.3125 C 4.53125 -0.3125 4.453125 -0.375 4.453125 -0.859375 L 4.453125 -6.890625 L 3.03125 -6.78125 L 3.03125 -6.46875 C 3.71875 -6.46875 3.796875 -6.40625 3.796875 -5.90625 L 3.796875 -3.765625 C 3.515625 -4.125 3.078125 -4.390625 2.546875 -4.390625 C 1.375 -4.390625 0.34375 -3.40625 0.34375 -2.140625 C 0.34375 -0.875 1.3125 0.109375 2.4375 0.109375 C 3.078125 0.109375 3.515625 -0.234375 3.765625 -0.546875 Z M 3.765625 -3.203125 L 3.765625 -1.171875 C 3.765625 -0.984375 3.765625 -0.96875 3.65625 -0.796875 C 3.359375 -0.328125 2.921875 -0.109375 2.484375 -0.109375 C 2.046875 -0.109375 1.6875 -0.359375 1.453125 -0.75 C 1.1875 -1.15625 1.15625 -1.71875 1.15625 -2.125 C 1.15625 -2.484375 1.1875 -3.078125 1.46875 -3.53125 C 1.671875 -3.84375 2.046875 -4.171875 2.59375 -4.171875 C 2.9375 -4.171875 3.359375 -4.015625 3.65625 -3.578125 C 3.765625 -3.40625 3.765625 -3.390625 3.765625 -3.203125 Z M 3.765625 -3.203125 "/>
</g>
<g id="glyph-0-2">
<path d="M 1.75 -4.390625 L 0.359375 -4.28125 L 0.359375 -3.96875 C 1.015625 -3.96875 1.09375 -3.90625 1.09375 -3.421875 L 1.09375 -0.75 C 1.09375 -0.3125 0.984375 -0.3125 0.328125 -0.3125 L 0.328125 0 C 0.640625 -0.015625 1.1875 -0.03125 1.421875 -0.03125 C 1.765625 -0.03125 2.109375 -0.015625 2.453125 0 L 2.453125 -0.3125 C 1.796875 -0.3125 1.75 -0.359375 1.75 -0.75 Z M 1.796875 -6.109375 C 1.796875 -6.421875 1.546875 -6.640625 1.265625 -6.640625 C 0.96875 -6.640625 0.75 -6.375 0.75 -6.109375 C 0.75 -5.84375 0.96875 -5.59375 1.265625 -5.59375 C 1.546875 -5.59375 1.796875 -5.796875 1.796875 -6.109375 Z M 1.796875 -6.109375 "/>
</g>
<g id="glyph-0-3">
<path d="M 1.09375 -3.40625 L 1.09375 -0.75 C 1.09375 -0.3125 0.984375 -0.3125 0.3125 -0.3125 L 0.3125 0 C 0.671875 -0.015625 1.171875 -0.03125 1.4375 -0.03125 C 1.703125 -0.03125 2.21875 -0.015625 2.546875 0 L 2.546875 -0.3125 C 1.890625 -0.3125 1.78125 -0.3125 1.78125 -0.75 L 1.78125 -2.578125 C 1.78125 -3.609375 2.484375 -4.171875 3.109375 -4.171875 C 3.734375 -4.171875 3.84375 -3.625 3.84375 -3.0625 L 3.84375 -0.75 C 3.84375 -0.3125 3.734375 -0.3125 3.078125 -0.3125 L 3.078125 0 C 3.421875 -0.015625 3.921875 -0.03125 4.203125 -0.03125 C 4.453125 -0.03125 4.96875 -0.015625 5.3125 0 L 5.3125 -0.3125 C 4.640625 -0.3125 4.53125 -0.3125 4.53125 -0.75 L 4.53125 -2.578125 C 4.53125 -3.609375 5.234375 -4.171875 5.875 -4.171875 C 6.5 -4.171875 6.609375 -3.625 6.609375 -3.0625 L 6.609375 -0.75 C 6.609375 -0.3125 6.5 -0.3125 5.828125 -0.3125 L 5.828125 0 C 6.1875 -0.015625 6.6875 -0.03125 6.953125 -0.03125 C 7.21875 -0.03125 7.734375 -0.015625 8.0625 0 L 8.0625 -0.3125 C 7.546875 -0.3125 7.296875 -0.3125 7.296875 -0.609375 L 7.296875 -2.5 C 7.296875 -3.359375 7.296875 -3.65625 6.984375 -4.015625 C 6.84375 -4.1875 6.515625 -4.390625 5.9375 -4.390625 C 5.109375 -4.390625 4.671875 -3.796875 4.5 -3.40625 C 4.359375 -4.28125 3.625 -4.390625 3.1875 -4.390625 C 2.453125 -4.390625 2 -3.953125 1.71875 -3.34375 L 1.71875 -4.390625 L 0.3125 -4.28125 L 0.3125 -3.96875 C 1.015625 -3.96875 1.09375 -3.90625 1.09375 -3.40625 Z M 1.09375 -3.40625 "/>
</g>
<g id="glyph-1-0">
<path d="M 4.921875 -1.5625 C 4.921875 -1.625 4.875 -1.625 4.828125 -1.625 C 4.65625 -1.625 4.421875 -1.484375 4.40625 -1.484375 C 4.203125 -1.34375 4.171875 -1.28125 4.046875 -1.109375 C 3.734375 -0.640625 3.296875 -0.3125 2.65625 -0.3125 C 1.765625 -0.3125 0.96875 -0.953125 0.96875 -2.4375 C 0.96875 -3.328125 1.3125 -4.515625 1.84375 -5.296875 C 2.28125 -5.9375 2.8125 -6.453125 3.84375 -6.453125 C 4.21875 -6.453125 4.453125 -6.3125 4.453125 -5.9375 C 4.453125 -5.59375 4.09375 -4.890625 3.96875 -4.6875 C 3.90625 -4.578125 3.90625 -4.5625 3.90625 -4.546875 C 3.90625 -4.46875 3.953125 -4.46875 4.015625 -4.46875 C 4.21875 -4.46875 4.578125 -4.6875 4.703125 -4.859375 C 4.71875 -4.890625 5.296875 -5.859375 5.296875 -6.375 C 5.296875 -6.921875 4.859375 -7 4.5 -7 C 3.0625 -7 1.875 -6.046875 1.421875 -5.5 C 0.234375 -4.0625 0.125 -2.53125 0.125 -2.015625 C 0.125 -0.5625 0.859375 0.234375 2 0.234375 C 3.609375 0.234375 4.921875 -1.3125 4.921875 -1.5625 Z M 4.921875 -1.5625 "/>
</g>
<g id="glyph-2-0">
<path d="M 3.78125 -1.875 C 3.78125 -3.125 3.046875 -3.515625 2.453125 -3.515625 C 1.375 -3.515625 0.328125 -2.375 0.328125 -1.25 C 0.328125 -0.515625 0.796875 0.09375 1.609375 0.09375 C 2.109375 0.09375 2.6875 -0.09375 3.28125 -0.578125 C 3.390625 -0.15625 3.65625 0.09375 4.015625 0.09375 C 4.421875 0.09375 4.671875 -0.34375 4.671875 -0.46875 C 4.671875 -0.53125 4.625 -0.5625 4.578125 -0.5625 C 4.53125 -0.5625 4.5 -0.53125 4.484375 -0.46875 C 4.328125 -0.09375 4.046875 -0.09375 4.03125 -0.09375 C 3.78125 -0.09375 3.78125 -0.703125 3.78125 -0.890625 C 3.78125 -1.0625 3.78125 -1.078125 3.859375 -1.171875 C 4.609375 -2.109375 4.78125 -3.03125 4.78125 -3.046875 C 4.78125 -3.0625 4.765625 -3.125 4.6875 -3.125 C 4.609375 -3.125 4.609375 -3.09375 4.5625 -2.953125 C 4.421875 -2.453125 4.15625 -1.84375 3.78125 -1.375 Z M 3.25 -0.78125 C 2.5625 -0.171875 1.9375 -0.09375 1.625 -0.09375 C 1.15625 -0.09375 0.90625 -0.4375 0.90625 -0.953125 C 0.90625 -1.34375 1.125 -2.203125 1.375 -2.609375 C 1.75 -3.1875 2.171875 -3.328125 2.453125 -3.328125 C 3.234375 -3.328125 3.234375 -2.296875 3.234375 -1.671875 C 3.234375 -1.375 3.234375 -0.921875 3.25 -0.78125 Z M 3.25 -0.78125 "/>
</g>
<g id="glyph-2-1">
<path d="M 1.421875 -0.90625 C 1.109375 -0.375 0.796875 -0.265625 0.4375 -0.25 C 0.34375 -0.234375 0.28125 -0.234375 0.28125 -0.09375 C 0.28125 -0.046875 0.3125 0 0.375 0 C 0.59375 0 0.84375 -0.03125 1.0625 -0.03125 C 1.328125 -0.03125 1.609375 0 1.859375 0 C 1.90625 0 2.015625 0 2.015625 -0.15625 C 2.015625 -0.234375 1.9375 -0.25 1.875 -0.25 C 1.703125 -0.265625 1.515625 -0.328125 1.515625 -0.53125 C 1.515625 -0.625 1.5625 -0.703125 1.625 -0.8125 L 2.21875 -1.828125 L 4.21875 -1.828125 C 4.234375 -1.671875 4.34375 -0.59375 4.34375 -0.515625 C 4.34375 -0.265625 3.921875 -0.25 3.765625 -0.25 C 3.65625 -0.25 3.578125 -0.25 3.578125 -0.09375 C 3.578125 0 3.671875 0 3.6875 0 C 4.015625 0 4.359375 -0.03125 4.6875 -0.03125 C 4.875 -0.03125 5.375 0 5.578125 0 C 5.625 0 5.71875 0 5.71875 -0.15625 C 5.71875 -0.25 5.640625 -0.25 5.546875 -0.25 C 5.046875 -0.25 5.046875 -0.296875 5.03125 -0.53125 L 4.546875 -5.5 C 4.53125 -5.65625 4.53125 -5.6875 4.390625 -5.6875 C 4.265625 -5.6875 4.234375 -5.625 4.1875 -5.546875 Z M 2.375 -2.078125 L 3.9375 -4.703125 L 4.1875 -2.078125 Z M 2.375 -2.078125 "/>
</g>
<g id="glyph-3-0">
<path d="M 1.796875 -1.390625 C 2.25 -1.578125 2.453125 -1.65625 2.59375 -1.734375 C 2.703125 -1.78125 2.75 -1.796875 2.75 -1.90625 C 2.75 -2 2.6875 -2.078125 2.578125 -2.078125 C 2.546875 -2.078125 2.53125 -2.078125 2.46875 -2.03125 L 1.703125 -1.53125 L 1.796875 -2.34375 C 1.796875 -2.453125 1.796875 -2.59375 1.625 -2.59375 C 1.5625 -2.59375 1.453125 -2.546875 1.453125 -2.421875 C 1.453125 -2.375 1.46875 -2.203125 1.484375 -2.140625 C 1.484375 -2.046875 1.53125 -1.65625 1.546875 -1.53125 L 0.796875 -2.03125 C 0.734375 -2.0625 0.71875 -2.078125 0.671875 -2.078125 C 0.5625 -2.078125 0.5 -2 0.5 -1.90625 C 0.5 -1.796875 0.5625 -1.765625 0.609375 -1.734375 L 1.453125 -1.390625 C 1 -1.1875 0.796875 -1.109375 0.65625 -1.046875 C 0.546875 -1 0.5 -0.984375 0.5 -0.875 C 0.5 -0.78125 0.5625 -0.703125 0.671875 -0.703125 C 0.703125 -0.703125 0.71875 -0.703125 0.78125 -0.75 L 1.546875 -1.25 L 1.453125 -0.359375 C 1.453125 -0.234375 1.5625 -0.1875 1.625 -0.1875 C 1.6875 -0.1875 1.796875 -0.234375 1.796875 -0.359375 C 1.796875 -0.40625 1.78125 -0.578125 1.765625 -0.625 C 1.75 -0.71875 1.71875 -1.125 1.703125 -1.25 L 2.375 -0.8125 C 2.515625 -0.703125 2.53125 -0.703125 2.578125 -0.703125 C 2.6875 -0.703125 2.75 -0.78125 2.75 -0.875 C 2.75 -0.984375 2.6875 -1.015625 2.640625 -1.03125 Z M 1.796875 -1.390625 "/>
</g>
<g id="glyph-4-0">
<path d="M 1.90625 -0.53125 C 1.90625 -0.8125 1.671875 -1.046875 1.375 -1.046875 C 1.09375 -1.046875 0.859375 -0.8125 0.859375 -0.53125 C 0.859375 -0.234375 1.09375 0 1.375 0 C 1.671875 0 1.90625 -0.234375 1.90625 -0.53125 Z M 1.90625 -0.53125 "/>
</g>
<g id="glyph-5-0">
<path d="M 1.859375 -3.53125 C 1.859375 -3.6875 1.859375 -3.6875 1.703125 -3.6875 C 1.34375 -3.34375 0.828125 -3.34375 0.609375 -3.34375 L 0.609375 -3.140625 C 0.734375 -3.140625 1.109375 -3.140625 1.40625 -3.296875 L 1.40625 -0.453125 C 1.40625 -0.265625 1.40625 -0.203125 0.859375 -0.203125 L 0.640625 -0.203125 L 0.640625 0 C 0.75 0 1.421875 -0.015625 1.640625 -0.015625 C 1.8125 -0.015625 2.515625 0 2.625 0 L 2.625 -0.203125 L 2.421875 -0.203125 C 1.859375 -0.203125 1.859375 -0.265625 1.859375 -0.453125 Z M 1.859375 -3.53125 "/>
</g>
<g id="glyph-6-0">
<path d="M 0.671875 -0.34375 C 0.65625 -0.28125 0.625 -0.140625 0.625 -0.125 C 0.625 0 0.71875 0.0625 0.8125 0.0625 C 0.90625 0.0625 1 -0.015625 1.03125 -0.0625 C 1.0625 -0.109375 1.09375 -0.296875 1.125 -0.40625 C 1.15625 -0.515625 1.21875 -0.765625 1.25 -0.90625 C 1.28125 -1.03125 1.3125 -1.15625 1.34375 -1.28125 C 1.40625 -1.515625 1.421875 -1.5625 1.578125 -1.78125 C 1.734375 -2.015625 2 -2.296875 2.421875 -2.296875 C 2.734375 -2.296875 2.75 -2.015625 2.75 -1.90625 C 2.75 -1.578125 2.5 -0.953125 2.421875 -0.71875 C 2.359375 -0.5625 2.328125 -0.515625 2.328125 -0.421875 C 2.328125 -0.125 2.578125 0.0625 2.859375 0.0625 C 3.421875 0.0625 3.65625 -0.71875 3.65625 -0.796875 C 3.65625 -0.875 3.59375 -0.875 3.578125 -0.875 C 3.5 -0.875 3.484375 -0.828125 3.46875 -0.765625 C 3.34375 -0.328125 3.09375 -0.09375 2.875 -0.09375 C 2.765625 -0.09375 2.734375 -0.171875 2.734375 -0.296875 C 2.734375 -0.421875 2.765625 -0.5 2.859375 -0.75 C 2.9375 -0.921875 3.15625 -1.5 3.15625 -1.8125 C 3.15625 -2.359375 2.734375 -2.453125 2.4375 -2.453125 C 1.96875 -2.453125 1.65625 -2.171875 1.5 -1.953125 C 1.453125 -2.328125 1.125 -2.453125 0.90625 -2.453125 C 0.65625 -2.453125 0.53125 -2.28125 0.46875 -2.15625 C 0.34375 -1.953125 0.265625 -1.625 0.265625 -1.609375 C 0.265625 -1.53125 0.34375 -1.53125 0.359375 -1.53125 C 0.4375 -1.53125 0.4375 -1.546875 0.484375 -1.703125 C 0.5625 -2.03125 0.671875 -2.296875 0.890625 -2.296875 C 1.03125 -2.296875 1.0625 -2.171875 1.0625 -2.03125 C 1.0625 -1.921875 1.015625 -1.71875 0.984375 -1.5625 C 0.9375 -1.40625 0.890625 -1.1875 0.859375 -1.0625 Z M 0.671875 -0.34375 "/>
</g>
</g>
<clipPath id="clip-0">
<path clip-rule="nonzero" d="M 0.03125 0 L 40 0 L 40 40 L 0.03125 40 Z M 0.03125 0 "/>
</clipPath>
</defs>
<g clip-path="url(#clip-0)">
<path fill="none" stroke-width="0.59776" stroke-linecap="butt" stroke-linejoin="miter" stroke="rgb(0%, 0%, 0%)" stroke-opacity="1" stroke-dasharray="2.98883 1.99255" stroke-miterlimit="10" d="M 14.172383 -0.00154326 C 14.172383 7.829739 7.827358 14.174763 -0.00000223238 14.174763 C -7.827363 14.174763 -14.172387 7.829739 -14.172387 -0.00154326 C -14.172387 -7.828904 -7.827363 -14.173928 -0.00000223238 -14.173928 C 7.827358 -14.173928 14.172383 -7.828904 14.172383 -0.00154326 Z M 14.172383 -0.00154326 " transform="matrix(0.996105, 0, 0, -0.996105, 17.425783, 17.392994)"/>
</g>
<g fill="rgb(0%, 0%, 0%)" fill-opacity="1">
<use xlink:href="#glyph-0-0" x="44.521839" y="17.392994"/>
</g>
<g fill="rgb(0%, 0%, 0%)" fill-opacity="1">
<use xlink:href="#glyph-0-1" x="54.999385" y="17.392994"/>
<use xlink:href="#glyph-0-2" x="60.513047" y="17.392994"/>
<use xlink:href="#glyph-0-3" x="63.269879" y="17.392994"/>
</g>
<g fill="rgb(0%, 0%, 0%)" fill-opacity="1">
<use xlink:href="#glyph-1-0" x="73.190744" y="17.392994"/>
</g>
<path fill="none" stroke-width="0.59776" stroke-linecap="butt" stroke-linejoin="miter" stroke="rgb(0%, 0%, 0%)" stroke-opacity="1" stroke-miterlimit="10" d="M 7.173756 -14.175233 C 7.173756 -10.210573 3.962029 -6.998846 0.00129014 -6.998846 C -3.96337 -6.998846 -7.175097 -10.210573 -7.175097 -14.175233 C -7.175097 -18.135972 -3.96337 -21.347699 0.00129014 -21.347699 C 3.962029 -21.347699 7.173756 -18.135972 7.173756 -14.175233 Z M 7.173756 -14.175233 " transform="matrix(0.996105, 0, 0, -0.996105, 27.713559, 82.383882)"/>
<g fill="rgb(0%, 0%, 0%)" fill-opacity="1">
<use xlink:href="#glyph-2-0" x="25.159545" y="98.210998"/>
</g>
<path fill="none" stroke-width="0.59776" stroke-linecap="butt" stroke-linejoin="miter" stroke="rgb(0%, 0%, 0%)" stroke-opacity="1" stroke-miterlimit="10" d="M 7.173756 14.173459 C 7.173756 18.134197 3.962029 21.345925 0.00129014 21.345925 C -3.96337 21.345925 -7.175097 18.134197 -7.175097 14.173459 C -7.175097 10.21272 -3.96337 7.000993 0.00129014 7.000993 C 3.962029 7.000993 7.173756 10.21272 7.173756 14.173459 Z M 7.173756 14.173459 " transform="matrix(0.996105, 0, 0, -0.996105, 27.713559, 82.383882)"/>
<g fill="rgb(0%, 0%, 0%)" fill-opacity="1">
<use xlink:href="#glyph-2-0" x="23.33468" y="70.998399"/>
</g>
<g fill="rgb(0%, 0%, 0%)" fill-opacity="1">
<use xlink:href="#glyph-3-0" x="28.442708" y="68.117662"/>
</g>
<g fill="rgb(0%, 0%, 0%)" fill-opacity="1">
<use xlink:href="#glyph-4-0" x="21.097427" y="46.200358"/>
</g>
<g fill="rgb(0%, 0%, 0%)" fill-opacity="1">
<use xlink:href="#glyph-4-0" x="25.511533" y="46.200358"/>
</g>
<g fill="rgb(0%, 0%, 0%)" fill-opacity="1">
<use xlink:href="#glyph-4-0" x="29.915715" y="46.200358"/>
</g>
<g fill="rgb(0%, 0%, 0%)" fill-opacity="1">
<use xlink:href="#glyph-4-0" x="21.097427" y="119.614312"/>
</g>
<g fill="rgb(0%, 0%, 0%)" fill-opacity="1">
<use xlink:href="#glyph-4-0" x="25.511533" y="119.614312"/>
</g>
<g fill="rgb(0%, 0%, 0%)" fill-opacity="1">
<use xlink:href="#glyph-4-0" x="29.915715" y="119.614312"/>
</g>
<path fill="none" stroke-width="0.59776" stroke-linecap="butt" stroke-linejoin="miter" stroke="rgb(0%, 0%, 0%)" stroke-opacity="1" stroke-miterlimit="10" d="M -2.535935 -21.139859 L -8.912332 -38.657303 " transform="matrix(0.996105, 0, 0, -0.996105, 27.713559, 82.383882)"/>
<path fill-rule="nonzero" fill="rgb(0%, 0%, 0%)" fill-opacity="1" d="M 18.054688 123.035156 L 21.019531 120.230469 L 18.835938 120.890625 L 17.589844 118.980469 "/>
<g fill="rgb(0%, 0%, 0%)" fill-opacity="1">
<use xlink:href="#glyph-2-1" x="5.655804" y="125.151661"/>
</g>
<g fill="rgb(0%, 0%, 0%)" fill-opacity="1">
<use xlink:href="#glyph-5-0" x="11.610123" y="126.343003"/>
</g>
<path fill="none" stroke-width="0.59776" stroke-linecap="butt" stroke-linejoin="miter" stroke="rgb(0%, 0%, 0%)" stroke-opacity="1" stroke-miterlimit="10" d="M 2.534594 -21.139859 L 8.910991 -38.657303 " transform="matrix(0.996105, 0, 0, -0.996105, 27.713559, 82.383882)"/>
<path fill-rule="nonzero" fill="rgb(0%, 0%, 0%)" fill-opacity="1" d="M 37.371094 123.035156 L 37.839844 118.980469 L 36.589844 120.890625 L 34.40625 120.230469 "/>
<g fill="rgb(0%, 0%, 0%)" fill-opacity="1">
<use xlink:href="#glyph-2-1" x="40.25552" y="125.151661"/>
</g>
<g fill="rgb(0%, 0%, 0%)" fill-opacity="1">
<use xlink:href="#glyph-6-0" x="46.209839" y="126.343003"/>
</g>
<path fill="none" stroke-width="0.59776" stroke-linecap="butt" stroke-linejoin="miter" stroke="rgb(0%, 0%, 0%)" stroke-opacity="1" stroke-miterlimit="10" d="M -3.32024 23.291 L -9.696637 40.812367 " transform="matrix(0.996105, 0, 0, -0.996105, 27.713559, 82.383882)"/>
<path fill-rule="nonzero" fill="rgb(0%, 0%, 0%)" fill-opacity="1" d="M 25.1875 61.328125 L 25.65625 57.269531 L 24.40625 59.183594 L 22.222656 58.519531 "/>
<g fill="rgb(0%, 0%, 0%)" fill-opacity="1">
<use xlink:href="#glyph-2-1" x="5.655804" y="43.84955"/>
</g>
<g fill="rgb(0%, 0%, 0%)" fill-opacity="1">
<use xlink:href="#glyph-5-0" x="11.610123" y="45.040095"/>
</g>
<path fill="none" stroke-width="0.59776" stroke-linecap="butt" stroke-linejoin="miter" stroke="rgb(0%, 0%, 0%)" stroke-opacity="1" stroke-miterlimit="10" d="M 3.318899 23.291 L 9.695296 40.812367 " transform="matrix(0.996105, 0, 0, -0.996105, 27.713559, 82.383882)"/>
<path fill-rule="nonzero" fill="rgb(0%, 0%, 0%)" fill-opacity="1" d="M 30.238281 61.328125 L 33.203125 58.519531 L 31.019531 59.183594 L 29.773438 57.273438 "/>
<g fill="rgb(0%, 0%, 0%)" fill-opacity="1">
<use xlink:href="#glyph-2-1" x="40.25552" y="43.84955"/>
</g>
<g fill="rgb(0%, 0%, 0%)" fill-opacity="1">
<use xlink:href="#glyph-6-0" x="46.209839" y="45.040095"/>
</g>
<path fill="none" stroke-width="0.59776" stroke-linecap="butt" stroke-linejoin="miter" stroke="rgb(0%, 0%, 0%)" stroke-opacity="1" stroke-dasharray="2.98883 1.99255" stroke-miterlimit="10" d="M 0.00129014 -6.759633 L 0.00129014 6.76178 " transform="matrix(0.996105, 0, 0, -0.996105, 27.713559, 82.383882)"/>
<g fill="rgb(0%, 0%, 0%)" fill-opacity="1">
<use xlink:href="#glyph-0-0" x="55.934217" y="82.383882"/>
</g>
<g fill="rgb(0%, 0%, 0%)" fill-opacity="1">
<use xlink:href="#glyph-4-0" x="83.310178" y="82.906837"/>
</g>
<g fill="rgb(0%, 0%, 0%)" fill-opacity="1">
<use xlink:href="#glyph-4-0" x="87.724283" y="82.906837"/>
</g>
<g fill="rgb(0%, 0%, 0%)" fill-opacity="1">
<use xlink:href="#glyph-4-0" x="92.128465" y="82.906837"/>
</g>
<path fill="none" stroke-width="0.59776" stroke-linecap="butt" stroke-linejoin="miter" stroke="rgb(0%, 0%, 0%)" stroke-opacity="1" stroke-miterlimit="10" d="M -8.502392 -26.053527 L -8.502392 28.345844 " transform="matrix(0.996105, 0, 0, -0.996105, 89.926309, 82.383882)"/>
<path fill-rule="nonzero" fill="rgb(0%, 0%, 0%)" fill-opacity="1" d="M 81.457031 110.621094 L 83.28125 106.96875 L 81.457031 108.335938 L 79.628906 106.96875 "/>
<g fill="rgb(0%, 0%, 0%)" fill-opacity="1">
<use xlink:href="#glyph-2-1" x="69.054915" y="84.500606"/>
</g>
<g fill="rgb(0%, 0%, 0%)" fill-opacity="1">
<use xlink:href="#glyph-5-0" x="75.009234" y="85.691151"/>
</g>
<path fill="none" stroke-width="0.59776" stroke-linecap="butt" stroke-linejoin="miter" stroke="rgb(0%, 0%, 0%)" stroke-opacity="1" stroke-miterlimit="10" d="M 8.505254 -26.053527 L 8.505254 28.345844 " transform="matrix(0.996105, 0, 0, -0.996105, 89.926309, 82.383882)"/>
<path fill-rule="nonzero" fill="rgb(0%, 0%, 0%)" fill-opacity="1" d="M 98.398438 110.621094 L 100.222656 106.96875 L 98.398438 108.335938 L 96.570312 106.96875 "/>
<g fill="rgb(0%, 0%, 0%)" fill-opacity="1">
<use xlink:href="#glyph-2-1" x="101.280913" y="84.500606"/>
</g>
<g fill="rgb(0%, 0%, 0%)" fill-opacity="1">
<use xlink:href="#glyph-6-0" x="107.235232" y="85.691151"/>
</g>
</svg>
