<?xml version="1.0" encoding="UTF-8"?>
<svg xmlns="http://www.w3.org/2000/svg" xmlns:xlink="http://www.w3.org/1999/xlink" width="95.295pt" height="25.9638pt" viewBox="0 0 76.236 20.771">
<defs>
<g>
<g id="glyph-0-0">
<path d="M 0.921875 -1.71875 C 0.921875 -3 1.5625 -3.34375 1.984375 -3.34375 C 2.0625 -3.34375 2.5625 -3.328125 2.828125 -3.046875 C 2.515625 -3.015625 2.46875 -2.78125 2.46875 -2.6875 C 2.46875 -2.484375 2.609375 -2.3125 2.828125 -2.3125 C 3.03125 -2.3125 3.1875 -2.453125 3.1875 -2.6875 C 3.1875 -3.234375 2.59375 -3.53125 1.984375 -3.53125 C 1 -3.53125 0.265625 -2.6875 0.265625 -1.703125 C 0.265625 -0.6875 1.046875 0.09375 1.96875 0.09375 C 3.015625 0.09375 3.28125 -0.859375 3.28125 -0.9375 C 3.28125 -1.015625 3.203125 -1.015625 3.171875 -1.015625 C 3.09375 -1.015625 3.078125 -0.984375 3.0625 -0.9375 C 2.84375 -0.203125 2.328125 -0.109375 2.03125 -0.109375 C 1.625 -0.109375 0.921875 -0.453125 0.921875 -1.71875 Z M 0.921875 -1.71875 "/>
</g>
<g id="glyph-0-1">
<path d="M 3.71875 -1.6875 C 3.71875 -2.703125 2.921875 -3.53125 1.96875 -3.53125 C 0.984375 -3.53125 0.21875 -2.671875 0.21875 -1.6875 C 0.21875 -0.671875 1.046875 0.09375 1.96875 0.09375 C 2.921875 0.09375 3.71875 -0.6875 3.71875 -1.6875 Z M 1.96875 -0.109375 C 1.640625 -0.109375 1.28125 -0.28125 1.078125 -0.640625 C 0.875 -0.984375 0.875 -1.46875 0.875 -1.75 C 0.875 -2.0625 0.875 -2.484375 1.0625 -2.828125 C 1.28125 -3.203125 1.65625 -3.359375 1.96875 -3.359375 C 2.3125 -3.359375 2.65625 -3.1875 2.859375 -2.84375 C 3.0625 -2.515625 3.0625 -2.046875 3.0625 -1.75 C 3.0625 -1.46875 3.0625 -1.046875 2.890625 -0.6875 C 2.71875 -0.34375 2.375 -0.109375 1.96875 -0.109375 Z M 1.96875 -0.109375 "/>
</g>
<g id="glyph-0-2">
<path d="M 0.890625 -1.984375 C 0.9375 -3.171875 1.59375 -3.359375 1.859375 -3.359375 C 2.671875 -3.359375 2.75 -2.296875 2.75 -1.984375 Z M 0.875 -1.828125 L 3.078125 -1.828125 C 3.25 -1.828125 3.28125 -1.828125 3.28125 -1.984375 C 3.28125 -2.765625 2.84375 -3.53125 1.859375 -3.53125 C 0.953125 -3.53125 0.21875 -2.71875 0.21875 -1.734375 C 0.21875 -0.671875 1.046875 0.09375 1.953125 0.09375 C 2.921875 0.09375 3.28125 -0.796875 3.28125 -0.9375 C 3.28125 -1.015625 3.21875 -1.03125 3.171875 -1.03125 C 3.09375 -1.03125 3.078125 -0.984375 3.0625 -0.921875 C 2.796875 -0.109375 2.078125 -0.109375 2 -0.109375 C 1.609375 -0.109375 1.296875 -0.34375 1.109375 -0.640625 C 0.875 -1.015625 0.875 -1.53125 0.875 -1.828125 Z M 0.875 -1.828125 "/>
</g>
<g id="glyph-0-3">
<path d="M 3.28125 -2.625 C 3.359375 -2.8125 3.484375 -3.140625 4.015625 -3.15625 L 4.015625 -3.40625 C 3.828125 -3.390625 3.59375 -3.375 3.421875 -3.375 C 3.234375 -3.375 2.859375 -3.390625 2.734375 -3.40625 L 2.734375 -3.15625 C 3.015625 -3.140625 3.109375 -2.96875 3.109375 -2.8125 C 3.109375 -2.75 3.09375 -2.71875 3.0625 -2.625 L 2.25 -0.609375 L 1.375 -2.8125 C 1.328125 -2.921875 1.328125 -2.9375 1.328125 -2.953125 C 1.328125 -3.15625 1.640625 -3.15625 1.78125 -3.15625 L 1.78125 -3.40625 C 1.53125 -3.390625 1.09375 -3.375 0.921875 -3.375 C 0.703125 -3.375 0.390625 -3.390625 0.15625 -3.40625 L 0.15625 -3.15625 C 0.640625 -3.15625 0.671875 -3.109375 0.78125 -2.859375 L 1.921875 -0.0625 C 1.96875 0.046875 1.984375 0.09375 2.078125 0.09375 C 2.1875 0.09375 2.21875 0.015625 2.25 -0.0625 Z M 3.28125 -2.625 "/>
</g>
<g id="glyph-1-0">
<path d="M 4.953125 -4.484375 C 5.34375 -5.109375 5.671875 -5.125 5.96875 -5.140625 C 6.0625 -5.15625 6.0625 -5.28125 6.0625 -5.296875 C 6.0625 -5.359375 6.03125 -5.390625 5.96875 -5.390625 C 5.765625 -5.390625 5.53125 -5.359375 5.3125 -5.359375 C 5.0625 -5.359375 4.796875 -5.390625 4.53125 -5.390625 C 4.484375 -5.390625 4.390625 -5.390625 4.390625 -5.234375 C 4.390625 -5.15625 4.453125 -5.140625 4.515625 -5.140625 C 4.71875 -5.125 4.875 -5.046875 4.875 -4.890625 C 4.875 -4.765625 4.765625 -4.59375 4.765625 -4.578125 L 2.328125 -0.734375 L 1.796875 -4.90625 C 1.796875 -5.046875 1.984375 -5.140625 2.34375 -5.140625 C 2.453125 -5.140625 2.546875 -5.140625 2.546875 -5.296875 C 2.546875 -5.375 2.484375 -5.390625 2.4375 -5.390625 C 2.109375 -5.390625 1.78125 -5.359375 1.453125 -5.359375 C 1.3125 -5.359375 1.15625 -5.375 1.015625 -5.375 C 0.875 -5.375 0.71875 -5.390625 0.59375 -5.390625 C 0.53125 -5.390625 0.4375 -5.390625 0.4375 -5.234375 C 0.4375 -5.140625 0.515625 -5.140625 0.640625 -5.140625 C 1.078125 -5.140625 1.09375 -5.078125 1.109375 -4.875 L 1.734375 -0.015625 C 1.765625 0.15625 1.796875 0.171875 1.890625 0.171875 C 2.015625 0.171875 2.046875 0.140625 2.109375 0.03125 Z M 4.953125 -4.484375 "/>
</g>
<g id="glyph-2-0">
<path d="M 1.78125 -1.375 C 2.234375 -1.578125 2.4375 -1.65625 2.578125 -1.71875 C 2.6875 -1.765625 2.734375 -1.78125 2.734375 -1.890625 C 2.734375 -1.984375 2.65625 -2.0625 2.5625 -2.0625 C 2.515625 -2.0625 2.515625 -2.0625 2.4375 -2.015625 L 1.6875 -1.515625 L 1.78125 -2.328125 C 1.78125 -2.421875 1.78125 -2.5625 1.609375 -2.5625 C 1.546875 -2.5625 1.4375 -2.515625 1.4375 -2.40625 C 1.4375 -2.34375 1.46875 -2.1875 1.46875 -2.125 C 1.484375 -2.03125 1.515625 -1.640625 1.53125 -1.515625 L 0.78125 -2.015625 C 0.734375 -2.046875 0.71875 -2.0625 0.65625 -2.0625 C 0.5625 -2.0625 0.484375 -1.984375 0.484375 -1.890625 C 0.484375 -1.78125 0.5625 -1.75 0.609375 -1.71875 L 1.4375 -1.375 C 0.984375 -1.1875 0.78125 -1.109375 0.640625 -1.03125 C 0.546875 -1 0.484375 -0.96875 0.484375 -0.859375 C 0.484375 -0.765625 0.5625 -0.6875 0.65625 -0.6875 C 0.703125 -0.6875 0.71875 -0.6875 0.78125 -0.734375 L 1.53125 -1.234375 L 1.4375 -0.359375 C 1.4375 -0.234375 1.546875 -0.1875 1.609375 -0.1875 C 1.671875 -0.1875 1.78125 -0.234375 1.78125 -0.359375 C 1.78125 -0.40625 1.765625 -0.5625 1.75 -0.625 C 1.75 -0.71875 1.703125 -1.109375 1.6875 -1.234375 L 2.359375 -0.796875 C 2.5 -0.6875 2.515625 -0.6875 2.5625 -0.6875 C 2.65625 -0.6875 2.734375 -0.765625 2.734375 -0.859375 C 2.734375 -0.96875 2.65625 -1 2.609375 -1.03125 Z M 1.78125 -1.375 "/>
</g>
</g>
<clipPath id="clip-0">
<path clip-rule="nonzero" d="M 19 4 L 55 4 L 55 20.542969 L 19 20.542969 Z M 19 4 "/>
</clipPath>
</defs>
<g clip-path="url(#clip-0)">
<path fill="none" stroke-width="0.3985" stroke-linecap="butt" stroke-linejoin="miter" stroke="rgb(0%, 0%, 0%)" stroke-opacity="1" stroke-miterlimit="10" d="M 12.165697 0.00102831 C 12.165697 1.963839 6.71959 3.555413 0.00180278 3.555413 C -6.719934 3.555413 -12.162092 1.963839 -12.162092 0.00102831 C -12.162092 -1.961782 -6.719934 -3.553356 0.00180278 -3.553356 C 6.71959 -3.553356 12.165697 -1.961782 12.165697 0.00102831 Z M 12.165697 0.00102831 " transform="matrix(0.989095, 0, 0, -0.989095, 36.834154, 13.876017)"/>
</g>
<g fill="rgb(0%, 0%, 0%)" fill-opacity="1">
<use xlink:href="#glyph-0-0" x="29.115255" y="15.573305"/>
<use xlink:href="#glyph-0-1" x="32.618535" y="15.573305"/>
</g>
<g fill="rgb(0%, 0%, 0%)" fill-opacity="1">
<use xlink:href="#glyph-0-2" x="36.780848" y="15.573305"/>
<use xlink:href="#glyph-0-3" x="40.284128" y="15.573305"/>
</g>
<path fill="none" stroke-width="0.59776" stroke-linecap="butt" stroke-linejoin="miter" stroke="rgb(0%, 0%, 0%)" stroke-opacity="1" stroke-miterlimit="10" d="M -12.324014 0.00102831 L -26.055787 0.00102831 " transform="matrix(0.989095, 0, 0, -0.989095, 36.834154, 13.876017)"/>
<path fill-rule="nonzero" fill="rgb(0%, 0%, 0%)" fill-opacity="1" d="M 8.796875 13.875 L 12.421875 15.6875 L 11.0625 13.875 L 12.421875 12.0625 "/>
<g fill="rgb(0%, 0%, 0%)" fill-opacity="1">
<use xlink:href="#glyph-1-0" x="5.621276" y="11.012586"/>
</g>
<path fill="none" stroke-width="0.59776" stroke-linecap="butt" stroke-linejoin="miter" stroke="rgb(0%, 0%, 0%)" stroke-opacity="1" stroke-miterlimit="10" d="M 12.32367 0.00102831 L 26.055443 0.00102831 " transform="matrix(0.989095, 0, 0, -0.989095, 36.834154, 13.876017)"/>
<path fill-rule="nonzero" fill="rgb(0%, 0%, 0%)" fill-opacity="1" d="M 64.871094 13.875 L 61.246094 12.0625 L 62.605469 13.875 L 61.246094 15.6875 "/>
<g fill="rgb(0%, 0%, 0%)" fill-opacity="1">
<use xlink:href="#glyph-1-0" x="59.88403" y="11.012586"/>
</g>
<g fill="rgb(0%, 0%, 0%)" fill-opacity="1">
<use xlink:href="#glyph-2-0" x="66.234813" y="8.151332"/>
</g>
</svg>
