<?xml version="1.0" encoding="UTF-8"?>
<svg xmlns="http://www.w3.org/2000/svg" xmlns:xlink="http://www.w3.org/1999/xlink" width="305.712pt" height="93.5212pt" viewBox="0 0 244.57 74.817">
<defs>
<clipPath id="clip-0">
<path clip-rule="nonzero" d="M 215 50 L 244.058594 50 L 244.058594 70 L 215 70 Z M 215 50 "/>
</clipPath>
<clipPath id="clip-1">
<path clip-rule="nonzero" d="M 215 47 L 244.058594 47 L 244.058594 67 L 215 67 Z M 215 47 "/>
</clipPath>
<clipPath id="clip-2">
<path clip-rule="nonzero" d="M 204 7 L 244.058594 7 L 244.058594 67 L 204 67 Z M 204 7 "/>
</clipPath>
</defs>
<path fill-rule="nonzero" fill="rgb(89.99939%, 89.99939%, 89.99939%)" fill-opacity="1" stroke-width="0.59776" stroke-linecap="butt" stroke-linejoin="miter" stroke="rgb(0%, 0%, 100%)" stroke-opacity="1" stroke-miterlimit="10" d="M -34.014561 0.000319008 C -34.014561 9.417829 -29.260775 14.171616 -19.843265 14.171616 C -10.574555 14.171616 -9.270592 5.670404 -0.0018829 5.670404 C 9.490027 5.670404 11.772941 11.622427 21.260936 11.622427 C 30.74893 11.622427 33.031844 5.670404 42.519839 5.670404 C 51.788548 5.670404 53.092511 14.171616 62.361221 14.171616 C 71.778731 14.171616 76.536433 9.417829 76.536433 0.000319008 C 76.536433 -9.417191 71.778731 -14.174894 62.361221 -14.174894 C 53.092511 -14.174894 51.788548 -5.669766 42.519839 -5.669766 C 33.031844 -5.669766 30.74893 -11.621789 21.260936 -11.621789 C 11.772941 -11.621789 9.490027 -5.669766 -0.0018829 -5.669766 C -9.270592 -5.669766 -10.574555 -14.174894 -19.843265 -14.174894 C -29.260775 -14.174894 -34.014561 -9.417191 -34.014561 0.000319008 " transform="matrix(0.99756, 0, 0, -0.99756, 43.92766, 37.316724)"/>
<path fill-rule="nonzero" fill="rgb(100%, 100%, 100%)" fill-opacity="1" stroke-width="0.59776" stroke-linecap="butt" stroke-linejoin="miter" stroke="rgb(100%, 0%, 0%)" stroke-opacity="1" stroke-miterlimit="10" d="M -28.348392 0.000319008 C -28.348392 4.327283 -24.170229 7.087925 -19.843265 7.087925 C -15.500637 7.087925 -5.668052 4.342946 -5.668052 0.000319008 C -5.668052 -4.342308 -15.500637 -7.087287 -19.843265 -7.087287 C -24.170229 -7.087287 -28.348392 -4.326645 -28.348392 0.000319008 " transform="matrix(0.99756, 0, 0, -0.99756, 43.92766, 37.316724)"/>
<path fill-rule="nonzero" fill="rgb(100%, 100%, 100%)" fill-opacity="1" stroke-width="0.59776" stroke-linecap="butt" stroke-linejoin="miter" stroke="rgb(100%, 0%, 0%)" stroke-opacity="1" stroke-miterlimit="10" d="M 38.267275 0.000319008 C 38.267275 3.289595 30.654951 5.952342 21.260936 5.952342 C 11.866921 5.952342 4.250681 3.289595 4.250681 0.000319008 C 4.250681 -3.288957 11.866921 -5.951704 21.260936 -5.951704 C 30.654951 -5.951704 38.267275 -3.288957 38.267275 0.000319008 Z M 38.267275 0.000319008 " transform="matrix(0.99756, 0, 0, -0.99756, 43.92766, 37.316724)"/>
<path fill-rule="nonzero" fill="rgb(100%, 100%, 100%)" fill-opacity="1" stroke-width="0.59776" stroke-linecap="butt" stroke-linejoin="miter" stroke="rgb(100%, 0%, 0%)" stroke-opacity="1" stroke-miterlimit="10" d="M 70.866348 0.000319008 C 70.866348 4.327283 66.688185 7.087925 62.361221 7.087925 C 58.022509 7.087925 48.189924 4.342946 48.189924 0.000319008 C 48.189924 -4.342308 58.022509 -7.087287 62.361221 -7.087287 C 66.688185 -7.087287 70.866348 -4.326645 70.866348 0.000319008 " transform="matrix(0.99756, 0, 0, -0.99756, 43.92766, 37.316724)"/>
<path fill-rule="nonzero" fill="rgb(0%, 0%, 0%)" fill-opacity="1" d="M 45.332031 37.316406 C 45.332031 36.539062 44.703125 35.910156 43.925781 35.910156 C 43.152344 35.910156 42.523438 36.539062 42.523438 37.316406 C 42.523438 38.09375 43.152344 38.722656 43.925781 38.722656 C 44.703125 38.722656 45.332031 38.09375 45.332031 37.316406 Z M 45.332031 37.316406 "/>
<path fill-rule="nonzero" fill="rgb(0%, 0%, 0%)" fill-opacity="1" d="M 87.75 37.316406 C 87.75 36.539062 87.121094 35.910156 86.34375 35.910156 C 85.566406 35.910156 84.9375 36.539062 84.9375 37.316406 C 84.9375 38.09375 85.566406 38.722656 86.34375 38.722656 C 87.121094 38.722656 87.75 38.09375 87.75 37.316406 Z M 87.75 37.316406 "/>
<path fill="none" stroke-width="0.59776" stroke-linecap="butt" stroke-linejoin="miter" stroke="rgb(0%, 0%, 0%)" stroke-opacity="1" stroke-miterlimit="10" d="M 1.309912 1.096744 C 13.229621 11.101625 29.292251 11.101625 41.21196 1.096744 " transform="matrix(0.99756, 0, 0, -0.99756, 43.92766, 37.316724)"/>
<path fill-rule="nonzero" fill="rgb(0%, 0%, 0%)" fill-opacity="1" d="M 65.136719 28.738281 L 61.480469 26.910156 L 62.851562 28.738281 L 61.480469 30.566406 "/>
<path fill="none" stroke-width="0.59776" stroke-linecap="butt" stroke-linejoin="miter" stroke="rgb(0%, 0%, 0%)" stroke-opacity="1" stroke-miterlimit="10" d="M 41.21196 -1.096106 C 29.292251 -11.100987 13.229621 -11.100987 1.309912 -1.096106 " transform="matrix(0.99756, 0, 0, -0.99756, 43.92766, 37.316724)"/>
<path fill-rule="nonzero" fill="rgb(0%, 0%, 0%)" fill-opacity="1" d="M 65.136719 45.894531 L 68.792969 47.722656 L 67.421875 45.894531 L 68.792969 44.066406 "/>
<path fill="none" stroke-width="0.59776" stroke-linecap="butt" stroke-linejoin="miter" stroke="rgb(0%, 0%, 0%)" stroke-opacity="1" stroke-miterlimit="10" d="M -1.309762 1.096744 C -40.663597 34.12264 -40.663597 -34.122002 -1.309762 -1.096106 " transform="matrix(0.99756, 0, 0, -0.99756, 43.92766, 37.316724)"/>
<path fill-rule="nonzero" fill="rgb(0%, 0%, 0%)" fill-opacity="1" d="M 13.179688 37.339844 L 15 33.679688 L 13.171875 35.054688 L 11.34375 33.6875 "/>
<path fill="none" stroke-width="0.59776" stroke-linecap="butt" stroke-linejoin="miter" stroke="rgb(0%, 0%, 0%)" stroke-opacity="1" stroke-miterlimit="10" d="M 43.827718 1.096744 C 83.185469 34.12264 83.185469 -34.122002 43.827718 -1.096106 " transform="matrix(0.99756, 0, 0, -0.99756, 43.92766, 37.316724)"/>
<path fill-rule="nonzero" fill="rgb(0%, 0%, 0%)" fill-opacity="1" d="M 117.09375 37.339844 L 118.929688 33.6875 L 117.097656 35.054688 L 115.273438 33.679688 "/>
<path fill="none" stroke-width="0.59776" stroke-linecap="butt" stroke-linejoin="miter" stroke="rgb(0%, 0%, 0%)" stroke-opacity="1" stroke-miterlimit="10" d="M 8.503663 0.000221982 C 8.503663 1.566544 4.697501 2.835264 -0.00146449 2.835264 C -4.696514 2.835264 -8.502676 1.566544 -8.502676 0.000221982 C -8.502676 -1.5661 -4.696514 -2.834821 -0.00146449 -2.834821 C 4.697501 -2.834821 8.503663 -1.5661 8.503663 0.000221982 Z M 8.503663 0.000221982 " transform="matrix(0.99756, 0, 0, -0.99756, 204.017086, 16.109596)"/>
<path fill="none" stroke-width="0.59776" stroke-linecap="butt" stroke-linejoin="miter" stroke="rgb(0%, 0%, 0%)" stroke-opacity="1" stroke-miterlimit="10" d="M -36.849185 -42.5215 C -36.849185 -44.083906 -33.043023 -45.356542 -28.347974 -45.356542 C -23.649008 -45.356542 -19.842846 -44.083906 -19.842846 -42.5215 " transform="matrix(0.99756, 0, 0, -0.99756, 204.017086, 16.109596)"/>
<path fill="none" stroke-width="0.59776" stroke-linecap="butt" stroke-linejoin="miter" stroke="rgb(0%, 0%, 0%)" stroke-opacity="1" stroke-miterlimit="10" d="M -8.502676 -42.5215 C -8.502676 -44.083906 -4.696514 -45.356542 -0.00146449 -45.356542 C 4.697501 -45.356542 8.503663 -44.083906 8.503663 -42.5215 " transform="matrix(0.99756, 0, 0, -0.99756, 204.017086, 16.109596)"/>
<g clip-path="url(#clip-0)">
<path fill="none" stroke-width="0.59776" stroke-linecap="butt" stroke-linejoin="miter" stroke="rgb(0%, 0%, 0%)" stroke-opacity="1" stroke-miterlimit="10" d="M 19.843833 -42.5215 C 19.843833 -44.083906 23.649995 -45.356542 28.345045 -45.356542 C 33.04401 -45.356542 36.850172 -44.083906 36.850172 -42.5215 " transform="matrix(0.99756, 0, 0, -0.99756, 204.017086, 16.109596)"/>
</g>
<path fill="none" stroke-width="0.59776" stroke-linecap="butt" stroke-linejoin="miter" stroke="rgb(0%, 0%, 0%)" stroke-opacity="1" stroke-dasharray="1.79327 1.79327" stroke-miterlimit="10" d="M -19.842846 -42.5215 C -19.842846 -40.955178 -23.649008 -39.686457 -28.347974 -39.686457 C -33.043023 -39.686457 -36.849185 -40.955178 -36.849185 -42.5215 " transform="matrix(0.99756, 0, 0, -0.99756, 204.017086, 16.109596)"/>
<path fill="none" stroke-width="0.59776" stroke-linecap="butt" stroke-linejoin="miter" stroke="rgb(0%, 0%, 0%)" stroke-opacity="1" stroke-dasharray="1.79327 1.79327" stroke-miterlimit="10" d="M 8.503663 -42.5215 C 8.503663 -40.955178 4.697501 -39.686457 -0.00146449 -39.686457 C -4.696514 -39.686457 -8.502676 -40.955178 -8.502676 -42.5215 " transform="matrix(0.99756, 0, 0, -0.99756, 204.017086, 16.109596)"/>
<g clip-path="url(#clip-1)">
<path fill="none" stroke-width="0.59776" stroke-linecap="butt" stroke-linejoin="miter" stroke="rgb(0%, 0%, 0%)" stroke-opacity="1" stroke-dasharray="1.79327 1.79327" stroke-miterlimit="10" d="M 36.850172 -42.5215 C 36.850172 -40.955178 33.04401 -39.686457 28.345045 -39.686457 C 23.649995 -39.686457 19.843833 -40.955178 19.843833 -42.5215 " transform="matrix(0.99756, 0, 0, -0.99756, 204.017086, 16.109596)"/>
</g>
<path fill="none" stroke-width="0.59776" stroke-linecap="butt" stroke-linejoin="miter" stroke="rgb(0%, 0%, 0%)" stroke-opacity="1" stroke-miterlimit="10" d="M -36.849185 -42.5215 C -36.849185 -22.511738 -8.502676 -20.005624 -8.502676 0.000221982 " transform="matrix(0.99756, 0, 0, -0.99756, 204.017086, 16.109596)"/>
<g clip-path="url(#clip-2)">
<path fill="none" stroke-width="0.59776" stroke-linecap="butt" stroke-linejoin="miter" stroke="rgb(0%, 0%, 0%)" stroke-opacity="1" stroke-miterlimit="10" d="M 36.850172 -42.5215 C 36.850172 -22.511738 8.503663 -20.005624 8.503663 0.000221982 " transform="matrix(0.99756, 0, 0, -0.99756, 204.017086, 16.109596)"/>
</g>
<path fill="none" stroke-width="0.59776" stroke-linecap="butt" stroke-linejoin="miter" stroke="rgb(0%, 0%, 0%)" stroke-opacity="1" stroke-miterlimit="10" d="M -19.842846 -42.5215 C -19.842846 -25.538655 -8.502676 -25.538655 -8.502676 -42.5215 " transform="matrix(0.99756, 0, 0, -0.99756, 204.017086, 16.109596)"/>
<path fill="none" stroke-width="0.59776" stroke-linecap="butt" stroke-linejoin="miter" stroke="rgb(0%, 0%, 0%)" stroke-opacity="1" stroke-miterlimit="10" d="M 19.843833 -42.5215 C 19.843833 -25.538655 8.503663 -25.538655 8.503663 -42.5215 " transform="matrix(0.99756, 0, 0, -0.99756, 204.017086, 16.109596)"/>
</svg>
