<?xml version="1.0" encoding="UTF-8"?>
<svg xmlns="http://www.w3.org/2000/svg" xmlns:xlink="http://www.w3.org/1999/xlink" width="29.4787pt" height="28.7462pt" viewBox="0 0 23.583 22.997">
<defs>
<clipPath id="clip-0">
<path clip-rule="nonzero" d="M 0 8 L 23.171875 8 L 23.171875 22.796875 L 0 22.796875 Z M 0 8 "/>
</clipPath>
<clipPath id="clip-1">
<path clip-rule="nonzero" d="M 0 5 L 23.171875 5 L 23.171875 22.796875 L 0 22.796875 Z M 0 5 "/>
</clipPath>
<clipPath id="clip-2">
<path clip-rule="nonzero" d="M 0 0.199219 L 23.171875 0.199219 L 23.171875 22.796875 L 0 22.796875 Z M 0 0.199219 "/>
</clipPath>
</defs>
<g clip-path="url(#clip-0)">
<path fill="none" stroke-width="0.59776" stroke-linecap="butt" stroke-linejoin="miter" stroke="rgb(0%, 0%, 0%)" stroke-opacity="1" stroke-miterlimit="10" d="M -8.504409 0.00181453 C -8.504409 -1.564462 -4.696052 -2.836565 -0.0011973 -2.836565 C 4.697632 -2.836565 8.50599 -1.564462 8.50599 0.00181453 " transform="matrix(0.982625, 0, 0, -0.982625, 11.587114, 16.779127)"/>
</g>
<g clip-path="url(#clip-1)">
<path fill="none" stroke-width="0.59776" stroke-linecap="butt" stroke-linejoin="miter" stroke="rgb(0%, 0%, 0%)" stroke-opacity="1" stroke-dasharray="1.79327 1.79327" stroke-miterlimit="10" d="M 8.50599 0.00181453 C 8.50599 1.564116 4.697632 2.836219 -0.0011973 2.836219 C -4.696052 2.836219 -8.504409 1.564116 -8.504409 0.00181453 " transform="matrix(0.982625, 0, 0, -0.982625, 11.587114, 16.779127)"/>
</g>
<g clip-path="url(#clip-2)">
<path fill="none" stroke-width="0.59776" stroke-linecap="butt" stroke-linejoin="miter" stroke="rgb(0%, 0%, 0%)" stroke-opacity="1" stroke-miterlimit="10" d="M -8.504409 0.00181453 C -8.504409 13.585487 8.50599 13.585487 8.50599 0.00181453 " transform="matrix(0.982625, 0, 0, -0.982625, 11.587114, 16.779127)"/>
</g>
</svg>
