<?xml version="1.0" encoding="UTF-8"?>
<svg xmlns="http://www.w3.org/2000/svg" xmlns:xlink="http://www.w3.org/1999/xlink" width="188.928pt" height="57.8263pt" viewBox="0 0 151.142 46.261">
<defs>
<clipPath id="clip-0">
<path clip-rule="nonzero" d="M 0.765625 31 L 30 31 L 30 45.535156 L 0.765625 45.535156 Z M 0.765625 31 "/>
</clipPath>
<clipPath id="clip-1">
<path clip-rule="nonzero" d="M 23 31 L 57 31 L 57 45.535156 L 23 45.535156 Z M 23 31 "/>
</clipPath>
<clipPath id="clip-2">
<path clip-rule="nonzero" d="M 0.765625 28 L 30 28 L 30 45.535156 L 0.765625 45.535156 Z M 0.765625 28 "/>
</clipPath>
<clipPath id="clip-3">
<path clip-rule="nonzero" d="M 23 28 L 57 28 L 57 45.535156 L 23 45.535156 Z M 23 28 "/>
</clipPath>
<clipPath id="clip-4">
<path clip-rule="nonzero" d="M 0.765625 0 L 27 0 L 27 45.535156 L 0.765625 45.535156 Z M 0.765625 0 "/>
</clipPath>
<clipPath id="clip-5">
<path clip-rule="nonzero" d="M 26 0 L 57 0 L 57 45.535156 L 26 45.535156 Z M 26 0 "/>
</clipPath>
<clipPath id="clip-6">
<path clip-rule="nonzero" d="M 12 21 L 41 21 L 41 45.535156 L 12 45.535156 Z M 12 21 "/>
</clipPath>
<clipPath id="clip-7">
<path clip-rule="nonzero" d="M 72 31 L 106 31 L 106 45.535156 L 72 45.535156 Z M 72 31 "/>
</clipPath>
<clipPath id="clip-8">
<path clip-rule="nonzero" d="M 72 28 L 106 28 L 106 45.535156 L 72 45.535156 Z M 72 28 "/>
</clipPath>
<clipPath id="clip-9">
<path clip-rule="nonzero" d="M 58 0 L 90 0 L 90 45.535156 L 58 45.535156 Z M 58 0 "/>
</clipPath>
<clipPath id="clip-10">
<path clip-rule="nonzero" d="M 89 0 L 120 0 L 120 45.535156 L 89 45.535156 Z M 89 0 "/>
</clipPath>
<clipPath id="clip-11">
<path clip-rule="nonzero" d="M 121 0 L 149.53125 0 L 149.53125 18 L 121 18 Z M 121 0 "/>
</clipPath>
<clipPath id="clip-12">
<path clip-rule="nonzero" d="M 121 0 L 149.53125 0 L 149.53125 25 L 121 25 Z M 121 0 "/>
</clipPath>
<clipPath id="clip-13">
<path clip-rule="nonzero" d="M 121 31 L 149.53125 31 L 149.53125 45.535156 L 121 45.535156 Z M 121 31 "/>
</clipPath>
<clipPath id="clip-14">
<path clip-rule="nonzero" d="M 121 28 L 149.53125 28 L 149.53125 45.535156 L 121 45.535156 Z M 121 28 "/>
</clipPath>
<clipPath id="clip-15">
<path clip-rule="nonzero" d="M 121 21 L 149.53125 21 L 149.53125 45.535156 L 121 45.535156 Z M 121 21 "/>
</clipPath>
</defs>
<path fill="none" stroke-width="0.59776" stroke-linecap="butt" stroke-linejoin="miter" stroke="rgb(0%, 0%, 0%)" stroke-opacity="1" stroke-miterlimit="10" d="M 8.502372 -0.000628029 C 8.502372 1.566989 4.696436 2.832989 0.00152215 2.832989 C -4.69736 2.832989 -8.503296 1.566989 -8.503296 -0.000628029 C -8.503296 -1.564276 -4.69736 -2.834245 0.00152215 -2.834245 C 4.696436 -2.834245 8.502372 -1.564276 8.502372 -0.000628029 Z M 8.502372 -0.000628029 " transform="matrix(0.984277, 0, 0, -0.984277, 26.322721, 6.026726)"/>
<g clip-path="url(#clip-0)">
<path fill="none" stroke-width="0.59776" stroke-linecap="butt" stroke-linejoin="miter" stroke="rgb(0%, 0%, 0%)" stroke-opacity="1" stroke-miterlimit="10" d="M -22.679317 -34.015933 C -22.679317 -35.58355 -18.869412 -36.84955 -14.174498 -36.84955 C -9.475616 -36.84955 -5.66968 -35.58355 -5.66968 -34.015933 " transform="matrix(0.984277, 0, 0, -0.984277, 26.322721, 6.026726)"/>
</g>
<g clip-path="url(#clip-1)">
<path fill="none" stroke-width="0.59776" stroke-linecap="butt" stroke-linejoin="miter" stroke="rgb(0%, 0%, 0%)" stroke-opacity="1" stroke-miterlimit="10" d="M 5.668755 -34.015933 C 5.668755 -35.58355 9.474691 -36.84955 14.173574 -36.84955 C 18.868488 -36.84955 22.678392 -35.58355 22.678392 -34.015933 " transform="matrix(0.984277, 0, 0, -0.984277, 26.322721, 6.026726)"/>
</g>
<g clip-path="url(#clip-2)">
<path fill="none" stroke-width="0.59776" stroke-linecap="butt" stroke-linejoin="miter" stroke="rgb(0%, 0%, 0%)" stroke-opacity="1" stroke-dasharray="1.79327 1.79327" stroke-miterlimit="10" d="M -5.66968 -34.015933 C -5.66968 -32.452285 -9.475616 -31.182317 -14.174498 -31.182317 C -18.869412 -31.182317 -22.679317 -32.452285 -22.679317 -34.015933 " transform="matrix(0.984277, 0, 0, -0.984277, 26.322721, 6.026726)"/>
</g>
<g clip-path="url(#clip-3)">
<path fill="none" stroke-width="0.59776" stroke-linecap="butt" stroke-linejoin="miter" stroke="rgb(0%, 0%, 0%)" stroke-opacity="1" stroke-dasharray="1.79327 1.79327" stroke-miterlimit="10" d="M 22.678392 -34.015933 C 22.678392 -32.452285 18.868488 -31.182317 14.173574 -31.182317 C 9.474691 -31.182317 5.668755 -32.452285 5.668755 -34.015933 " transform="matrix(0.984277, 0, 0, -0.984277, 26.322721, 6.026726)"/>
</g>
<g clip-path="url(#clip-4)">
<path fill="none" stroke-width="0.59776" stroke-linecap="butt" stroke-linejoin="miter" stroke="rgb(0%, 0%, 0%)" stroke-opacity="1" stroke-miterlimit="10" d="M -22.679317 -34.015933 C -22.679317 -19.629574 -8.503296 -14.383018 -8.503296 -0.000628029 " transform="matrix(0.984277, 0, 0, -0.984277, 26.322721, 6.026726)"/>
</g>
<g clip-path="url(#clip-5)">
<path fill="none" stroke-width="0.59776" stroke-linecap="butt" stroke-linejoin="miter" stroke="rgb(0%, 0%, 0%)" stroke-opacity="1" stroke-miterlimit="10" d="M 22.678392 -34.015933 C 22.678392 -19.629574 8.502372 -14.383018 8.502372 -0.000628029 " transform="matrix(0.984277, 0, 0, -0.984277, 26.322721, 6.026726)"/>
</g>
<g clip-path="url(#clip-6)">
<path fill="none" stroke-width="0.59776" stroke-linecap="butt" stroke-linejoin="miter" stroke="rgb(0%, 0%, 0%)" stroke-opacity="1" stroke-miterlimit="10" d="M -5.66968 -34.015933 C -5.66968 -20.431242 5.668755 -20.431242 5.668755 -34.015933 " transform="matrix(0.984277, 0, 0, -0.984277, 26.322721, 6.026726)"/>
</g>
<path fill="none" stroke-width="0.59776" stroke-linecap="butt" stroke-linejoin="miter" stroke="rgb(0%, 0%, 0%)" stroke-opacity="1" stroke-miterlimit="10" d="M 58.110506 -0.000628029 C 58.110506 1.566989 54.30457 2.832989 49.605687 2.832989 C 44.910773 2.832989 41.100869 1.566989 41.100869 -0.000628029 C 41.100869 -1.564276 44.910773 -2.834245 49.605687 -2.834245 C 54.30457 -2.834245 58.110506 -1.564276 58.110506 -0.000628029 Z M 58.110506 -0.000628029 " transform="matrix(0.984277, 0, 0, -0.984277, 26.322721, 6.026726)"/>
<path fill="none" stroke-width="0.59776" stroke-linecap="butt" stroke-linejoin="miter" stroke="rgb(0%, 0%, 0%)" stroke-opacity="1" stroke-miterlimit="10" d="M 86.458578 -0.000628029 C 86.458578 1.566989 82.648673 2.832989 77.953759 2.832989 C 73.258845 2.832989 69.448941 1.566989 69.448941 -0.000628029 C 69.448941 -1.564276 73.258845 -2.834245 77.953759 -2.834245 C 82.648673 -2.834245 86.458578 -1.564276 86.458578 -0.000628029 Z M 86.458578 -0.000628029 " transform="matrix(0.984277, 0, 0, -0.984277, 26.322721, 6.026726)"/>
<g clip-path="url(#clip-7)">
<path fill="none" stroke-width="0.59776" stroke-linecap="butt" stroke-linejoin="miter" stroke="rgb(0%, 0%, 0%)" stroke-opacity="1" stroke-miterlimit="10" d="M 55.276889 -34.015933 C 55.276889 -35.58355 59.082825 -36.84955 63.781708 -36.84955 C 68.476621 -36.84955 72.282557 -35.58355 72.282557 -34.015933 " transform="matrix(0.984277, 0, 0, -0.984277, 26.322721, 6.026726)"/>
</g>
<g clip-path="url(#clip-8)">
<path fill="none" stroke-width="0.59776" stroke-linecap="butt" stroke-linejoin="miter" stroke="rgb(0%, 0%, 0%)" stroke-opacity="1" stroke-dasharray="1.79327 1.79327" stroke-miterlimit="10" d="M 72.282557 -34.015933 C 72.282557 -32.452285 68.476621 -31.182317 63.781708 -31.182317 C 59.082825 -31.182317 55.276889 -32.452285 55.276889 -34.015933 " transform="matrix(0.984277, 0, 0, -0.984277, 26.322721, 6.026726)"/>
</g>
<g clip-path="url(#clip-9)">
<path fill="none" stroke-width="0.59776" stroke-linecap="butt" stroke-linejoin="miter" stroke="rgb(0%, 0%, 0%)" stroke-opacity="1" stroke-miterlimit="10" d="M 55.276889 -34.015933 C 55.276889 -19.629574 41.100869 -14.383018 41.100869 -0.000628029 " transform="matrix(0.984277, 0, 0, -0.984277, 26.322721, 6.026726)"/>
</g>
<g clip-path="url(#clip-10)">
<path fill="none" stroke-width="0.59776" stroke-linecap="butt" stroke-linejoin="miter" stroke="rgb(0%, 0%, 0%)" stroke-opacity="1" stroke-miterlimit="10" d="M 72.282557 -34.015933 C 72.282557 -19.629574 86.458578 -14.383018 86.458578 -0.000628029 " transform="matrix(0.984277, 0, 0, -0.984277, 26.322721, 6.026726)"/>
</g>
<path fill="none" stroke-width="0.59776" stroke-linecap="butt" stroke-linejoin="miter" stroke="rgb(0%, 0%, 0%)" stroke-opacity="1" stroke-miterlimit="10" d="M 58.110506 -0.000628029 C 58.110506 -13.585319 69.448941 -13.585319 69.448941 -0.000628029 " transform="matrix(0.984277, 0, 0, -0.984277, 26.322721, 6.026726)"/>
<g clip-path="url(#clip-11)">
<path fill="none" stroke-width="0.59776" stroke-linecap="butt" stroke-linejoin="miter" stroke="rgb(0%, 0%, 0%)" stroke-opacity="1" stroke-miterlimit="10" d="M 121.890691 -0.000628029 C 121.890691 1.566989 118.084755 2.832989 113.385873 2.832989 C 108.690959 2.832989 104.885023 1.566989 104.885023 -0.000628029 C 104.885023 -1.564276 108.690959 -2.834245 113.385873 -2.834245 C 118.084755 -2.834245 121.890691 -1.564276 121.890691 -0.000628029 Z M 121.890691 -0.000628029 " transform="matrix(0.984277, 0, 0, -0.984277, 26.322721, 6.026726)"/>
</g>
<g clip-path="url(#clip-12)">
<path fill="none" stroke-width="0.59776" stroke-linecap="butt" stroke-linejoin="miter" stroke="rgb(0%, 0%, 0%)" stroke-opacity="1" stroke-miterlimit="10" d="M 104.885023 -0.000628029 C 104.885023 -13.585319 121.890691 -13.585319 121.890691 -0.000628029 " transform="matrix(0.984277, 0, 0, -0.984277, 26.322721, 6.026726)"/>
</g>
<g clip-path="url(#clip-13)">
<path fill="none" stroke-width="0.59776" stroke-linecap="butt" stroke-linejoin="miter" stroke="rgb(0%, 0%, 0%)" stroke-opacity="1" stroke-miterlimit="10" d="M 104.885023 -34.015933 C 104.885023 -35.58355 108.690959 -36.84955 113.385873 -36.84955 C 118.084755 -36.84955 121.890691 -35.58355 121.890691 -34.015933 " transform="matrix(0.984277, 0, 0, -0.984277, 26.322721, 6.026726)"/>
</g>
<g clip-path="url(#clip-14)">
<path fill="none" stroke-width="0.59776" stroke-linecap="butt" stroke-linejoin="miter" stroke="rgb(0%, 0%, 0%)" stroke-opacity="1" stroke-dasharray="1.79327 1.79327" stroke-miterlimit="10" d="M 121.890691 -34.015933 C 121.890691 -32.452285 118.084755 -31.182317 113.385873 -31.182317 C 108.690959 -31.182317 104.885023 -32.452285 104.885023 -34.015933 " transform="matrix(0.984277, 0, 0, -0.984277, 26.322721, 6.026726)"/>
</g>
<g clip-path="url(#clip-15)">
<path fill="none" stroke-width="0.59776" stroke-linecap="butt" stroke-linejoin="miter" stroke="rgb(0%, 0%, 0%)" stroke-opacity="1" stroke-miterlimit="10" d="M 104.885023 -34.015933 C 104.885023 -20.427273 121.890691 -20.427273 121.890691 -34.015933 " transform="matrix(0.984277, 0, 0, -0.984277, 26.322721, 6.026726)"/>
</g>
</svg>
