<?xml version="1.0" encoding="UTF-8"?>
<svg xmlns="http://www.w3.org/2000/svg" xmlns:xlink="http://www.w3.org/1999/xlink" width="220.07pt" height="256.522pt" viewBox="0 0 176.056 205.218">
<defs>
<g>
<g id="glyph-0-0">
<path d="M 3.640625 -3.96875 L 4.484375 -3.96875 C 4.6875 -3.96875 4.78125 -3.96875 4.78125 -4.15625 C 4.78125 -4.265625 4.6875 -4.265625 4.515625 -4.265625 L 3.6875 -4.265625 L 3.90625 -5.40625 C 3.9375 -5.609375 4.078125 -6.3125 4.140625 -6.421875 C 4.234375 -6.625 4.390625 -6.765625 4.609375 -6.765625 C 4.640625 -6.765625 4.90625 -6.765625 5.09375 -6.59375 C 4.65625 -6.546875 4.5625 -6.203125 4.5625 -6.046875 C 4.5625 -5.828125 4.734375 -5.703125 4.921875 -5.703125 C 5.1875 -5.703125 5.46875 -5.921875 5.46875 -6.296875 C 5.46875 -6.75 5.015625 -6.984375 4.609375 -6.984375 C 4.265625 -6.984375 3.640625 -6.8125 3.34375 -5.828125 C 3.28125 -5.609375 3.265625 -5.515625 3.015625 -4.265625 L 2.34375 -4.265625 C 2.15625 -4.265625 2.046875 -4.265625 2.046875 -4.078125 C 2.046875 -3.96875 2.125 -3.96875 2.3125 -3.96875 L 2.96875 -3.96875 L 2.234375 -0.046875 C 2.046875 0.90625 1.875 1.8125 1.359375 1.8125 C 1.328125 1.8125 1.078125 1.8125 0.890625 1.640625 C 1.34375 1.609375 1.4375 1.25 1.4375 1.09375 C 1.4375 0.875 1.265625 0.75 1.0625 0.75 C 0.8125 0.75 0.53125 0.96875 0.53125 1.34375 C 0.53125 1.796875 0.953125 2.03125 1.359375 2.03125 C 1.90625 2.03125 2.3125 1.453125 2.484375 1.0625 C 2.796875 0.453125 3.03125 -0.75 3.046875 -0.828125 Z M 3.640625 -3.96875 "/>
</g>
<g id="glyph-0-1">
<path d="M 4.796875 -4.078125 L 3.96875 -6.046875 C 3.9375 -6.125 3.921875 -6.15625 3.921875 -6.171875 C 3.921875 -6.234375 4.09375 -6.421875 4.5 -6.453125 C 4.609375 -6.46875 4.703125 -6.484375 4.703125 -6.640625 C 4.703125 -6.765625 4.59375 -6.765625 4.5625 -6.765625 C 4.15625 -6.765625 3.71875 -6.734375 3.3125 -6.734375 C 3.0625 -6.734375 2.453125 -6.765625 2.203125 -6.765625 C 2.140625 -6.765625 2.015625 -6.765625 2.015625 -6.5625 C 2.015625 -6.453125 2.125 -6.453125 2.25 -6.453125 C 2.84375 -6.453125 2.90625 -6.359375 2.984375 -6.140625 L 4.15625 -3.375 L 2.078125 -1.125 L 1.9375 -1.015625 C 1.453125 -0.5 0.984375 -0.34375 0.484375 -0.3125 C 0.359375 -0.296875 0.265625 -0.296875 0.265625 -0.109375 C 0.265625 -0.09375 0.265625 0 0.390625 0 C 0.6875 0 1.015625 -0.03125 1.328125 -0.03125 C 1.6875 -0.03125 2.078125 0 2.4375 0 C 2.5 0 2.609375 0 2.609375 -0.203125 C 2.609375 -0.296875 2.515625 -0.3125 2.5 -0.3125 C 2.40625 -0.3125 2.09375 -0.34375 2.09375 -0.609375 C 2.09375 -0.765625 2.25 -0.9375 2.375 -1.0625 L 3.375 -2.125 L 4.265625 -3.09375 L 5.265625 -0.734375 C 5.3125 -0.625 5.3125 -0.609375 5.3125 -0.59375 C 5.3125 -0.515625 5.125 -0.34375 4.75 -0.3125 C 4.640625 -0.296875 4.546875 -0.28125 4.546875 -0.125 C 4.546875 0 4.65625 0 4.703125 0 C 4.96875 0 5.671875 -0.03125 5.9375 -0.03125 C 6.1875 -0.03125 6.796875 0 7.046875 0 C 7.109375 0 7.234375 0 7.234375 -0.1875 C 7.234375 -0.3125 7.125 -0.3125 7.046875 -0.3125 C 6.390625 -0.3125 6.375 -0.34375 6.203125 -0.75 C 5.8125 -1.671875 5.15625 -3.203125 4.921875 -3.796875 C 5.59375 -4.5 6.640625 -5.671875 6.953125 -5.953125 C 7.234375 -6.1875 7.625 -6.421875 8.21875 -6.453125 C 8.34375 -6.46875 8.4375 -6.46875 8.4375 -6.65625 C 8.4375 -6.671875 8.4375 -6.765625 8.296875 -6.765625 C 8 -6.765625 7.671875 -6.734375 7.375 -6.734375 C 7 -6.734375 6.625 -6.765625 6.265625 -6.765625 C 6.21875 -6.765625 6.078125 -6.765625 6.078125 -6.5625 C 6.078125 -6.5 6.125 -6.46875 6.203125 -6.453125 C 6.296875 -6.453125 6.59375 -6.421875 6.59375 -6.15625 C 6.59375 -6.015625 6.484375 -5.890625 6.40625 -5.796875 Z M 4.796875 -4.078125 "/>
</g>
<g id="glyph-0-2">
<path d="M 5.90625 -5.640625 L 6.046875 -5.78125 C 6.34375 -6.078125 6.671875 -6.40625 7.34375 -6.453125 C 7.453125 -6.46875 7.546875 -6.46875 7.546875 -6.640625 C 7.546875 -6.71875 7.5 -6.765625 7.421875 -6.765625 C 7.15625 -6.765625 6.875 -6.734375 6.609375 -6.734375 C 6.28125 -6.734375 5.9375 -6.765625 5.609375 -6.765625 C 5.5625 -6.765625 5.421875 -6.765625 5.421875 -6.578125 C 5.421875 -6.46875 5.53125 -6.453125 5.578125 -6.453125 C 5.640625 -6.453125 5.9375 -6.4375 5.9375 -6.234375 C 5.9375 -6.0625 5.703125 -5.8125 5.671875 -5.75 L 3.375 -3.109375 L 2.28125 -6.046875 C 2.21875 -6.1875 2.21875 -6.21875 2.21875 -6.21875 C 2.21875 -6.453125 2.703125 -6.453125 2.796875 -6.453125 C 2.9375 -6.453125 3.046875 -6.453125 3.046875 -6.65625 C 3.046875 -6.765625 2.921875 -6.765625 2.890625 -6.765625 C 2.609375 -6.765625 1.921875 -6.734375 1.640625 -6.734375 C 1.390625 -6.734375 0.78125 -6.765625 0.53125 -6.765625 C 0.46875 -6.765625 0.34375 -6.765625 0.34375 -6.5625 C 0.34375 -6.453125 0.453125 -6.453125 0.578125 -6.453125 C 1.171875 -6.453125 1.203125 -6.375 1.296875 -6.125 L 2.515625 -2.859375 C 2.53125 -2.828125 2.5625 -2.71875 2.5625 -2.6875 C 2.5625 -2.671875 2.15625 -1.0625 2.109375 -0.890625 C 1.984375 -0.34375 1.96875 -0.3125 1.171875 -0.3125 C 0.984375 -0.3125 0.90625 -0.3125 0.90625 -0.109375 C 0.90625 0 1.03125 0 1.046875 0 C 1.328125 0 2.015625 -0.03125 2.296875 -0.03125 C 2.578125 -0.03125 3.28125 0 3.5625 0 C 3.640625 0 3.75 0 3.75 -0.203125 C 3.75 -0.3125 3.671875 -0.3125 3.484375 -0.3125 C 3.453125 -0.3125 3.265625 -0.3125 3.09375 -0.328125 C 2.890625 -0.34375 2.828125 -0.359375 2.828125 -0.484375 C 2.828125 -0.5625 2.921875 -0.90625 2.96875 -1.109375 L 3.3125 -2.5 C 3.375 -2.6875 3.375 -2.71875 3.453125 -2.8125 Z M 5.90625 -5.640625 "/>
</g>
<g id="glyph-0-3">
<path d="M 4.671875 -3.734375 C 4.671875 -3.796875 4.703125 -3.84375 4.703125 -3.90625 C 4.703125 -4.078125 4.578125 -4.1875 4.40625 -4.1875 C 4.3125 -4.1875 4.046875 -4.109375 4 -3.75 C 3.828125 -4.125 3.484375 -4.375 3.078125 -4.375 C 1.953125 -4.375 0.71875 -2.984375 0.71875 -1.5625 C 0.71875 -0.578125 1.328125 0 2.046875 0 C 2.625 0 3.09375 -0.46875 3.1875 -0.578125 L 3.203125 -0.5625 C 2.984375 0.3125 2.875 0.71875 2.875 0.75 C 2.828125 0.828125 2.5 1.8125 1.453125 1.8125 C 1.265625 1.8125 0.9375 1.796875 0.65625 1.71875 C 0.953125 1.625 1.0625 1.359375 1.0625 1.203125 C 1.0625 1.046875 0.953125 0.859375 0.6875 0.859375 C 0.46875 0.859375 0.15625 1.03125 0.15625 1.421875 C 0.15625 1.828125 0.515625 2.03125 1.46875 2.03125 C 2.703125 2.03125 3.421875 1.265625 3.5625 0.65625 Z M 3.375 -1.265625 C 3.3125 -1.015625 3.09375 -0.765625 2.875 -0.578125 C 2.671875 -0.390625 2.359375 -0.21875 2.078125 -0.21875 C 1.578125 -0.21875 1.421875 -0.734375 1.421875 -1.125 C 1.421875 -1.609375 1.71875 -2.78125 1.984375 -3.28125 C 2.25 -3.765625 2.671875 -4.15625 3.09375 -4.15625 C 3.75 -4.15625 3.890625 -3.359375 3.890625 -3.3125 C 3.890625 -3.265625 3.859375 -3.203125 3.859375 -3.15625 Z M 3.375 -1.265625 "/>
</g>
<g id="glyph-1-0">
<path d="M 6.8125 -3.234375 C 6.953125 -3.234375 7.140625 -3.234375 7.140625 -3.4375 C 7.140625 -3.640625 6.953125 -3.640625 6.8125 -3.640625 L 0.875 -3.640625 C 0.75 -3.640625 0.5625 -3.640625 0.5625 -3.4375 C 0.5625 -3.234375 0.75 -3.234375 0.890625 -3.234375 Z M 6.8125 -1.3125 C 6.953125 -1.3125 7.140625 -1.3125 7.140625 -1.515625 C 7.140625 -1.71875 6.953125 -1.71875 6.8125 -1.71875 L 0.890625 -1.71875 C 0.75 -1.71875 0.5625 -1.71875 0.5625 -1.515625 C 0.5625 -1.3125 0.75 -1.3125 0.875 -1.3125 Z M 6.8125 -1.3125 "/>
</g>
</g>
</defs>
<g fill="rgb(0%, 0%, 0%)" fill-opacity="1">
<use xlink:href="#glyph-0-0" x="25.388867" y="83.972925"/>
</g>
<g fill="rgb(0%, 0%, 0%)" fill-opacity="1">
<use xlink:href="#glyph-0-0" x="59.224443" y="15.255384"/>
</g>
<path fill-rule="nonzero" fill="rgb(84.999084%, 84.999084%, 100%)" fill-opacity="1" d="M 28.347656 75.332031 L 28.347656 47.136719 C 28.347656 42.464844 32.136719 38.679688 36.808594 38.679688 C 41.480469 38.679688 45.265625 42.464844 45.265625 47.136719 C 45.265625 51.808594 49.054688 55.59375 53.726562 55.59375 C 58.398438 55.59375 62.183594 51.808594 62.183594 47.136719 L 62.183594 18.941406 L 2.972656 18.941406 L 2.972656 75.332031 L 28.347656 75.332031 "/>
<path fill-rule="nonzero" fill="rgb(100%, 59.999084%, 59.999084%)" fill-opacity="1" d="M 28.347656 75.332031 L 28.347656 47.136719 C 28.347656 42.464844 32.136719 38.679688 36.808594 38.679688 C 41.480469 38.679688 45.265625 42.464844 45.265625 47.136719 C 45.265625 51.808594 49.054688 55.59375 53.726562 55.59375 C 58.398438 55.59375 62.183594 51.808594 62.183594 47.136719 L 62.183594 18.941406 L 87.558594 18.941406 L 87.558594 75.332031 L 28.347656 75.332031 "/>
<path fill="none" stroke-width="0.79701" stroke-linecap="butt" stroke-linejoin="miter" stroke="rgb(0%, 0%, 0%)" stroke-opacity="1" stroke-miterlimit="10" d="M 25.510654 0.000225955 L 25.510654 28.34672 C 25.510654 33.043645 29.320034 36.849097 34.016959 36.849097 C 38.713884 36.849097 42.519336 33.043645 42.519336 28.34672 C 42.519336 23.649794 46.328715 19.844342 51.025641 19.844342 C 55.722566 19.844342 59.528018 23.649794 59.528018 28.34672 L 59.528018 56.693214 " transform="matrix(0.994667, 0, 0, -0.994667, 2.973059, 75.332256)"/>
<g fill="rgb(0%, 0%, 0%)" fill-opacity="1">
<use xlink:href="#glyph-0-1" x="6.672224" y="50.52328"/>
</g>
<g fill="rgb(0%, 0%, 0%)" fill-opacity="1">
<use xlink:href="#glyph-0-2" x="75.904008" y="50.52328"/>
</g>
<g fill="rgb(0%, 0%, 0%)" fill-opacity="1">
<use xlink:href="#glyph-1-0" x="97.802589" y="48.954691"/>
</g>
<path fill-rule="nonzero" fill="rgb(84.999084%, 84.999084%, 100%)" fill-opacity="1" d="M 115.753906 18.941406 L 115.753906 75.332031 L 143.953125 75.332031 L 143.953125 18.941406 Z M 115.753906 18.941406 "/>
<path fill-rule="nonzero" fill="rgb(100%, 59.999084%, 59.999084%)" fill-opacity="1" d="M 143.953125 18.941406 L 143.953125 75.332031 L 172.148438 75.332031 L 172.148438 18.941406 Z M 143.953125 18.941406 "/>
<path fill="none" stroke-width="0.79701" stroke-linecap="butt" stroke-linejoin="miter" stroke="rgb(0%, 0%, 0%)" stroke-opacity="1" stroke-miterlimit="10" d="M 141.735992 56.693214 L 141.735992 0.000225955 " transform="matrix(0.994667, 0, 0, -0.994667, 2.973059, 75.332256)"/>
<g fill="rgb(0%, 0%, 0%)" fill-opacity="1">
<use xlink:href="#glyph-0-1" x="119.453499" y="50.52328"/>
</g>
<g fill="rgb(0%, 0%, 0%)" fill-opacity="1">
<use xlink:href="#glyph-0-2" x="160.490461" y="50.52328"/>
</g>
<g fill="rgb(0%, 0%, 0%)" fill-opacity="1">
<use xlink:href="#glyph-0-0" x="140.990021" y="13.315784"/>
</g>
<g fill="rgb(0%, 0%, 0%)" fill-opacity="1">
<use xlink:href="#glyph-0-0" x="140.990021" y="85.91352"/>
</g>
<g fill="rgb(0%, 0%, 0%)" fill-opacity="1">
<use xlink:href="#glyph-0-3" x="25.807621" y="126.097059"/>
</g>
<g fill="rgb(0%, 0%, 0%)" fill-opacity="1">
<use xlink:href="#glyph-0-3" x="59.642203" y="196.079816"/>
</g>
<path fill-rule="nonzero" fill="rgb(100%, 59.999084%, 59.999084%)" fill-opacity="1" d="M 28.347656 131.722656 L 28.347656 159.917969 C 28.347656 164.589844 32.136719 168.378906 36.808594 168.378906 C 41.480469 168.378906 45.265625 164.589844 45.265625 159.917969 C 45.265625 155.246094 49.054688 151.460938 53.726562 151.460938 C 58.398438 151.460938 62.183594 155.246094 62.183594 159.917969 L 62.183594 188.113281 L 2.972656 188.113281 L 2.972656 131.722656 "/>
<path fill-rule="nonzero" fill="rgb(84.999084%, 84.999084%, 100%)" fill-opacity="1" d="M 28.347656 131.722656 L 28.347656 159.917969 C 28.347656 164.589844 32.136719 168.378906 36.808594 168.378906 C 41.480469 168.378906 45.265625 164.589844 45.265625 159.917969 C 45.265625 155.246094 49.054688 151.460938 53.726562 151.460938 C 58.398438 151.460938 62.183594 155.246094 62.183594 159.917969 L 62.183594 188.113281 L 87.558594 188.113281 L 87.558594 131.722656 L 28.347656 131.722656 "/>
<path fill="none" stroke-width="0.79701" stroke-linecap="butt" stroke-linejoin="miter" stroke="rgb(0%, 0%, 0%)" stroke-opacity="1" stroke-miterlimit="10" d="M 25.510654 -56.692762 L 25.510654 -85.039255 C 25.510654 -89.736181 29.320034 -93.54556 34.016959 -93.54556 C 38.713884 -93.54556 42.519336 -89.736181 42.519336 -85.039255 C 42.519336 -80.34233 46.328715 -76.536878 51.025641 -76.536878 C 55.722566 -76.536878 59.528018 -80.34233 59.528018 -85.039255 L 59.528018 -113.385749 " transform="matrix(0.994667, 0, 0, -0.994667, 2.973059, 75.332256)"/>
<g fill="rgb(0%, 0%, 0%)" fill-opacity="1">
<use xlink:href="#glyph-0-2" x="6.672224" y="163.30356"/>
</g>
<g fill="rgb(0%, 0%, 0%)" fill-opacity="1">
<use xlink:href="#glyph-0-1" x="74.872539" y="163.30356"/>
</g>
<g fill="rgb(0%, 0%, 0%)" fill-opacity="1">
<use xlink:href="#glyph-1-0" x="97.802589" y="161.735965"/>
</g>
<path fill-rule="nonzero" fill="rgb(100%, 59.999084%, 59.999084%)" fill-opacity="1" d="M 115.753906 131.722656 L 115.753906 188.113281 L 143.953125 188.113281 L 143.953125 131.722656 Z M 115.753906 131.722656 "/>
<path fill-rule="nonzero" fill="rgb(84.999084%, 84.999084%, 100%)" fill-opacity="1" d="M 143.953125 131.722656 L 143.953125 188.113281 L 172.148438 188.113281 L 172.148438 131.722656 Z M 143.953125 131.722656 "/>
<g fill="rgb(0%, 0%, 0%)" fill-opacity="1">
<use xlink:href="#glyph-0-2" x="119.453499" y="163.30356"/>
</g>
<g fill="rgb(0%, 0%, 0%)" fill-opacity="1">
<use xlink:href="#glyph-0-1" x="159.457997" y="163.30356"/>
</g>
<path fill="none" stroke-width="0.79701" stroke-linecap="butt" stroke-linejoin="miter" stroke="rgb(0%, 0%, 0%)" stroke-opacity="1" stroke-miterlimit="10" d="M 141.735992 -56.692762 L 141.735992 -113.385749 " transform="matrix(0.994667, 0, 0, -0.994667, 2.973059, 75.332256)"/>
</svg>
