<?xml version="1.0" encoding="UTF-8"?>
<svg xmlns="http://www.w3.org/2000/svg" xmlns:xlink="http://www.w3.org/1999/xlink" width="266.977pt" height="61.0213pt" viewBox="0 0 213.582 48.817">
<defs>
<g>
<g id="glyph-0-0">
<path d="M 1.78125 -1.140625 C 1.375 -0.46875 0.984375 -0.34375 0.5625 -0.3125 C 0.4375 -0.296875 0.34375 -0.296875 0.34375 -0.109375 C 0.34375 -0.046875 0.390625 0 0.46875 0 C 0.75 0 1.046875 -0.03125 1.328125 -0.03125 C 1.65625 -0.03125 2 0 2.328125 0 C 2.375 0 2.515625 0 2.515625 -0.1875 C 2.515625 -0.296875 2.421875 -0.3125 2.34375 -0.3125 C 2.125 -0.328125 1.890625 -0.40625 1.890625 -0.65625 C 1.890625 -0.78125 1.9375 -0.890625 2.03125 -1.015625 L 2.78125 -2.296875 L 5.265625 -2.296875 C 5.28125 -2.078125 5.421875 -0.734375 5.421875 -0.640625 C 5.421875 -0.34375 4.90625 -0.3125 4.71875 -0.3125 C 4.578125 -0.3125 4.46875 -0.3125 4.46875 -0.109375 C 4.46875 0 4.59375 0 4.609375 0 C 5.015625 0 5.453125 -0.03125 5.859375 -0.03125 C 6.109375 -0.03125 6.734375 0 6.96875 0 C 7.03125 0 7.15625 0 7.15625 -0.203125 C 7.15625 -0.3125 7.046875 -0.3125 6.921875 -0.3125 C 6.3125 -0.3125 6.3125 -0.375 6.28125 -0.671875 L 5.671875 -6.859375 C 5.65625 -7.0625 5.65625 -7.109375 5.484375 -7.109375 C 5.328125 -7.109375 5.28125 -7.03125 5.234375 -6.9375 Z M 2.96875 -2.59375 L 4.921875 -5.875 L 5.234375 -2.59375 Z M 2.96875 -2.59375 "/>
</g>
<g id="glyph-1-0">
<path d="M 3.578125 -2.046875 C 3.765625 -2.046875 3.8125 -2.046875 3.8125 -2.234375 C 3.8125 -3.15625 3.3125 -4 2.171875 -4 C 1.09375 -4 0.265625 -3.078125 0.265625 -1.96875 C 0.265625 -0.796875 1.203125 0.09375 2.28125 0.09375 C 3.375 0.09375 3.8125 -0.859375 3.8125 -1.0625 C 3.8125 -1.125 3.765625 -1.1875 3.6875 -1.1875 C 3.609375 -1.1875 3.578125 -1.125 3.5625 -1.078125 C 3.265625 -0.171875 2.46875 -0.15625 2.328125 -0.15625 C 1.90625 -0.15625 1.53125 -0.390625 1.328125 -0.703125 C 1.03125 -1.140625 1.03125 -1.671875 1.03125 -2.046875 Z M 1.03125 -2.265625 C 1.125 -3.640625 1.921875 -3.78125 2.171875 -3.78125 C 2.65625 -3.78125 3.203125 -3.40625 3.203125 -2.265625 Z M 1.03125 -2.265625 "/>
</g>
<g id="glyph-1-1">
<path d="M 1.609375 -3.171875 C 1.578125 -3.21875 1.5625 -3.28125 1.5625 -3.34375 C 1.5625 -3.578125 1.890625 -3.578125 2.0625 -3.578125 L 2.0625 -3.859375 C 1.671875 -3.828125 1.46875 -3.828125 1.078125 -3.828125 C 0.765625 -3.828125 0.5 -3.828125 0.171875 -3.859375 L 0.171875 -3.578125 C 0.59375 -3.578125 0.765625 -3.578125 0.90625 -3.25 L 2.203125 -0.078125 C 2.265625 0.078125 2.328125 0.09375 2.40625 0.09375 C 2.5 0.09375 2.5625 0.078125 2.625 -0.078125 L 3.84375 -3 C 4.03125 -3.453125 4.34375 -3.5625 4.65625 -3.578125 L 4.65625 -3.859375 C 4.390625 -3.828125 3.984375 -3.828125 3.96875 -3.828125 C 3.71875 -3.828125 3.4375 -3.828125 3.1875 -3.859375 L 3.1875 -3.578125 C 3.453125 -3.5625 3.609375 -3.421875 3.609375 -3.1875 C 3.609375 -3.09375 3.59375 -3.078125 3.5625 -2.984375 L 2.625 -0.734375 Z M 1.609375 -3.171875 "/>
</g>
<g id="glyph-2-0">
<path d="M 2.59375 -3.625 C 2.640625 -3.8125 2.640625 -3.828125 2.890625 -3.828125 L 3.484375 -3.828125 C 4.078125 -3.828125 4.5 -3.671875 4.5 -3.203125 C 4.5 -3 4.421875 -2.578125 4 -2.34375 C 3.78125 -2.203125 3.453125 -2.125 3.046875 -2.125 L 2.21875 -2.125 Z M 3.8125 -2.03125 C 4.390625 -2.15625 5.15625 -2.5625 5.15625 -3.140625 C 5.15625 -3.640625 4.53125 -4.0625 3.59375 -4.0625 L 1.671875 -4.0625 C 1.5625 -4.0625 1.46875 -4.0625 1.46875 -3.921875 C 1.46875 -3.828125 1.5625 -3.828125 1.671875 -3.828125 C 1.78125 -3.828125 1.921875 -3.828125 2.046875 -3.78125 C 2.046875 -3.734375 2.046875 -3.6875 2.03125 -3.59375 L 1.25 -0.5 C 1.1875 -0.28125 1.171875 -0.234375 0.734375 -0.234375 C 0.59375 -0.234375 0.59375 -0.234375 0.5625 -0.21875 C 0.53125 -0.203125 0.515625 -0.125 0.515625 -0.078125 C 0.515625 -0.0625 0.53125 0 0.609375 0 C 0.796875 0 1.21875 -0.03125 1.40625 -0.03125 C 1.765625 -0.03125 1.375 -0.03125 1.8125 -0.015625 C 1.953125 -0.015625 2.09375 0 2.21875 0 C 2.25 0 2.296875 0 2.3125 -0.046875 C 2.328125 -0.0625 2.34375 -0.125 2.34375 -0.15625 C 2.328125 -0.234375 2.28125 -0.234375 2.140625 -0.234375 C 2.078125 -0.234375 1.984375 -0.25 1.921875 -0.25 C 1.8125 -0.265625 1.765625 -0.265625 1.765625 -0.328125 C 1.765625 -0.34375 1.78125 -0.375 1.796875 -0.4375 L 2.171875 -1.9375 L 3.03125 -1.9375 C 3.546875 -1.9375 3.8125 -1.703125 3.8125 -1.40625 C 3.8125 -1.34375 3.75 -1.140625 3.71875 -1 C 3.65625 -0.71875 3.625 -0.640625 3.625 -0.53125 C 3.625 -0.09375 4.03125 0.125 4.546875 0.125 C 5.109375 0.125 5.375 -0.4375 5.375 -0.578125 C 5.375 -0.609375 5.34375 -0.671875 5.265625 -0.671875 C 5.1875 -0.671875 5.171875 -0.625 5.15625 -0.578125 C 5.015625 -0.171875 4.734375 -0.078125 4.578125 -0.078125 C 4.421875 -0.078125 4.296875 -0.125 4.296875 -0.484375 C 4.296875 -0.625 4.328125 -0.953125 4.359375 -1.09375 C 4.359375 -1.15625 4.375 -1.28125 4.375 -1.328125 C 4.375 -1.71875 4.0625 -1.9375 3.8125 -2.03125 Z M 3.8125 -2.03125 "/>
</g>
</g>
<clipPath id="clip-0">
<path clip-rule="nonzero" d="M 47 13 L 80 13 L 80 48.632812 L 47 48.632812 Z M 47 13 "/>
</clipPath>
<clipPath id="clip-1">
<path clip-rule="nonzero" d="M 138 13 L 172 13 L 172 48.632812 L 138 48.632812 Z M 138 13 "/>
</clipPath>
</defs>
<g fill="rgb(0%, 0%, 0%)" fill-opacity="1">
<use xlink:href="#glyph-0-0" x="6.47605" y="13.068012"/>
</g>
<g fill="rgb(0%, 0%, 0%)" fill-opacity="1">
<use xlink:href="#glyph-0-0" x="199.245417" y="13.068012"/>
</g>
<path fill="none" stroke-width="0.79701" stroke-linecap="butt" stroke-linejoin="miter" stroke="rgb(0%, 0%, 0%)" stroke-opacity="1" stroke-miterlimit="10" d="M -0.000256058 25.512947 L 71.4345 25.512947 " transform="matrix(0.996265, 0, 0, -0.996265, 17.625255, 35.093445)"/>
<g clip-path="url(#clip-0)">
<path fill="none" stroke-width="0.79701" stroke-linecap="butt" stroke-linejoin="miter" stroke="rgb(0%, 0%, 0%)" stroke-opacity="1" stroke-miterlimit="10" d="M 51.022329 10.20578 C 45.388005 10.20578 40.820164 5.634018 40.820164 -0.000305734 C 40.820164 -5.634629 45.388005 -10.206391 51.022329 -10.206391 " transform="matrix(0.996265, 0, 0, -0.996265, 17.625255, 35.093445)"/>
</g>
<g fill="rgb(0%, 0%, 0%)" fill-opacity="1">
<use xlink:href="#glyph-1-0" x="38.248943" y="39.025705"/>
<use xlink:href="#glyph-1-1" x="42.333071" y="39.025705"/>
</g>
<g fill="rgb(0%, 0%, 0%)" fill-opacity="1">
<use xlink:href="#glyph-2-0" x="47.305991" y="35.23093"/>
</g>
<path fill="none" stroke-width="0.79701" stroke-linecap="butt" stroke-linejoin="miter" stroke="rgb(0%, 0%, 0%)" stroke-opacity="1" stroke-miterlimit="10" d="M 51.022329 10.20578 L 71.4345 10.20578 " transform="matrix(0.996265, 0, 0, -0.996265, 17.625255, 35.093445)"/>
<path fill="none" stroke-width="0.79701" stroke-linecap="butt" stroke-linejoin="miter" stroke="rgb(0%, 0%, 0%)" stroke-opacity="1" stroke-miterlimit="10" d="M 51.022329 -10.206391 L 132.66317 -10.206391 " transform="matrix(0.996265, 0, 0, -0.996265, 17.625255, 35.093445)"/>
<path fill="none" stroke-width="0.79701" stroke-linecap="butt" stroke-linejoin="miter" stroke="rgb(0%, 0%, 0%)" stroke-opacity="1" stroke-miterlimit="10" d="M 71.4345 25.512947 C 83.056027 25.512947 85.322304 10.20578 96.943832 10.20578 " transform="matrix(0.996265, 0, 0, -0.996265, 17.625255, 35.093445)"/>
<path fill="none" stroke-width="0.79701" stroke-linecap="butt" stroke-linejoin="miter" stroke="rgb(0%, 0%, 0%)" stroke-opacity="1" stroke-miterlimit="10" d="M 71.4345 10.20578 C 83.056027 10.20578 85.322304 25.512947 96.943832 25.512947 " transform="matrix(0.996265, 0, 0, -0.996265, 17.625255, 35.093445)"/>
<path fill="none" stroke-width="0.79701" stroke-linecap="butt" stroke-linejoin="miter" stroke="rgb(0%, 0%, 0%)" stroke-opacity="1" stroke-miterlimit="10" d="M 96.943832 25.512947 L 178.584673 25.512947 " transform="matrix(0.996265, 0, 0, -0.996265, 17.625255, 35.093445)"/>
<path fill="none" stroke-width="0.79701" stroke-linecap="butt" stroke-linejoin="miter" stroke="rgb(0%, 0%, 0%)" stroke-opacity="1" stroke-miterlimit="10" d="M 96.943832 10.20578 L 132.66317 10.20578 " transform="matrix(0.996265, 0, 0, -0.996265, 17.625255, 35.093445)"/>
<g clip-path="url(#clip-1)">
<path fill="none" stroke-width="0.79701" stroke-linecap="butt" stroke-linejoin="miter" stroke="rgb(0%, 0%, 0%)" stroke-opacity="1" stroke-miterlimit="10" d="M 132.66317 10.20578 C 138.297494 10.20578 142.865334 5.634018 142.865334 -0.000305734 C 142.865334 -5.634629 138.297494 -10.206391 132.66317 -10.206391 " transform="matrix(0.996265, 0, 0, -0.996265, 17.625255, 35.093445)"/>
</g>
<g fill="rgb(0%, 0%, 0%)" fill-opacity="1">
<use xlink:href="#glyph-1-0" x="164.933043" y="37.016237"/>
<use xlink:href="#glyph-1-1" x="169.017171" y="37.016237"/>
</g>
</svg>
